<svg xmlns="http://www.w3.org/2000/svg" width="36" height="31" viewBox="0 0 36 31">
    <path fill="#00AAEC" fillRule="evenodd" d="M36 3.67A14.07 14.07 0 0 1 31.76 4.9c1.525-.967 2.695-2.5 3.247-4.328a14.273 14.273 0 0 1-4.693 1.897C28.97.95 27.049 0 24.924 0c-4.077 0-7.384 3.504-7.384 7.826 0 .613.064 1.209.19 1.782-6.138-.327-11.579-3.44-15.224-8.18a8.175 8.175 0 0 0-1 3.94c0 2.713 1.304 5.109 3.286 6.513a7.076 7.076 0 0 1-3.347-.977v.097c0 3.793 2.547 6.956 5.927 7.673a6.83 6.83 0 0 1-1.946.275 6.95 6.95 0 0 1-1.39-.139c.94 3.108 3.666 5.372 6.899 5.432-2.527 2.1-5.714 3.352-9.173 3.352A14.31 14.31 0 0 1 0 27.487C3.269 29.704 7.153 31 11.322 31c13.587 0 21.014-11.923 21.014-22.265 0-.34-.006-.681-.019-1.015A15.468 15.468 0 0 0 36 3.67"/>
</svg>
