<?xml version="1.0" encoding="utf-8"?>
<!-- Generator: Adobe Illustrator 22.0.0, SVG Export Plug-In . SVG Version: 6.00 Build 0)  -->
<svg version="1.1" id="Слой_1" opacity="0.1" xmlns="http://www.w3.org/2000/svg" xmlns:xlink="http://www.w3.org/1999/xlink"
	 x="0px" y="0px" viewBox="0 0 3101 1628.6" style="enable-background:new 0 0 3101 1628.6;" xml:space="preserve">
<style type="text/css">
	.st0{fill:#4C4C4C;}
	.st1{fill:#333333;}
</style>
<path class="st0" d="M1182.4,293.7c-2.4-2.4-6.3-2.4-8.7-0.1c-1,1-2.1,1.9-3.2,2.8l0,0c-0.8,0.6-1.7,1.2-2.5,1.7l-21.9-21.6
	c0.3-0.4,0.5-0.8,0.8-1.3c0.1-0.2,0.3-0.4,0.4-0.6c1-1.3,2.1-2.5,3.2-3.7c2.4-2.4,2.5-6.2,0.1-8.7c-2.4-2.4-6.2-2.5-8.7-0.1
	c-1.9,1.8-3.6,3.8-5.1,5.9c-0.2,0.3-0.4,0.6-0.6,1c-6.7,9.9-6.9,19.9-5.5,29.2c-11.7-1.6-24.2-1.1-36.5,11
	c-12,11.8-12.3,24.3-10.6,35.9c-11.8-1.7-24.6-1.4-37,10.9c-2.4,2.4-2.4,6.3-0.1,8.7c1.2,1.2,2.8,1.8,4.4,1.8s3.1-0.6,4.3-1.8
	c1.8-1.8,3.7-3.3,5.5-4.4l22.1,21.7c-1.2,1.8-2.6,3.5-4.4,5.2c-2.4,2.4-2.5,6.3-0.1,8.7c1.2,1.2,2.8,1.8,4.4,1.8s3.1-0.6,4.3-1.8
	c12.1-11.8,12.9-24.5,11.6-35.9c11.6,1.6,24,1,36.2-11c12.3-12.1,12.8-24.4,11.2-35.9c10.2,1.4,21.2,1.2,32-7.1l0,0
	c1.5-1.2,3-2.4,4.4-3.8C1184.7,300,1184.7,296.1,1182.4,293.7z M1133.1,311c1.2,6.5,1.9,12.4,0.2,18l-18.7-18.3
	C1120.4,309.1,1126.4,309.8,1133.1,311z M1067.3,357.5c5.8-1.5,11.8-0.8,18.5,0.4c1.1,6.4,1.6,12.2-0.1,17.7L1067.3,357.5z
	 M1096.4,347.4c-1.2-6.6-1.9-12.6-0.5-18.2l18.6,18.3C1108.8,349.2,1102.9,348.6,1096.4,347.4z M1121,344.5l-22.2-21.8
	c1-1.6,2.3-3.2,4-4.8c1.8-1.7,3.5-3.1,5.3-4.2l22.2,21.7c-1.1,1.7-2.5,3.3-4.2,5C1124.4,342.1,1122.7,343.4,1121,344.5z
	 M1143.5,300.5c-1.1-6.2-1.8-11.9-0.4-17.4l18.1,17.8C1155.6,302.3,1149.8,301.6,1143.5,300.5z"/>
<path class="st0" d="M268.3,814.9c2.4-2.4,2.4-6.3-0.1-8.7c-1-1-2-2.1-2.8-3.2l0,0c-0.6-0.8-1.2-1.6-1.7-2.5l21.2-22.2
	c0.4,0.3,0.9,0.5,1.3,0.8c0.2,0.1,0.4,0.3,0.6,0.4c1.3,1,2.6,2,3.7,3.2c2.4,2.4,6.3,2.4,8.7,0c2.4-2.4,2.4-6.3,0-8.7
	c-1.8-1.8-3.9-3.5-6-5c-0.3-0.2-0.6-0.4-1-0.5c-10-6.6-20-6.6-29.2-5.1c1.5-11.7,0.7-24.2-11.5-36.4c-11.9-11.8-24.4-11.9-36.1-10.1
	c1.6-11.8,1-24.6-11.4-36.8c-2.4-2.4-6.3-2.4-8.7,0.1c-1.2,1.2-1.8,2.8-1.8,4.4c0,1.6,0.6,3.1,1.8,4.3c1.8,1.8,3.3,3.6,4.5,5.4
	l-21.4,22.4c-1.8-1.1-3.5-2.5-5.3-4.3c-2.4-2.4-6.3-2.4-8.7,0c-1.2,1.2-1.8,2.8-1.8,4.4c0,1.6,0.6,3.1,1.8,4.3
	c12,11.9,24.7,12.6,36.1,11c-1.4,11.6-0.6,24,11.5,36c12.2,12.1,24.6,12.5,36,10.7c-1.3,10.2-0.9,21.2,7.6,31.9l0,0
	c1.2,1.5,2.5,3,3.9,4.3C262,817.4,265.9,817.3,268.3,814.9z M250.2,765.9c-6.5,1.3-12.4,2.1-18,0.5l18-19
	C251.9,753.2,251.3,759.2,250.2,765.9z M202.8,700.8c1.6,5.8,1,11.8-0.2,18.5c-6.4,1.2-12.1,1.8-17.7,0.2L202.8,700.8z M213.3,729.8
	c6.6-1.3,12.5-2.1,18.1-0.7l-18,18.9C211.7,742.2,212.2,736.3,213.3,729.8z M216.5,754.3l21.5-22.5c1.6,1,3.2,2.3,4.8,3.9
	c1.8,1.7,3.2,3.5,4.3,5.2l-21.4,22.5c-1.7-1.1-3.3-2.4-5-4.1C219,757.7,217.6,756,216.5,754.3z M260.9,776.2
	c6.2-1.2,11.9-2,17.4-0.6L260.8,794C259.3,788.3,259.9,782.5,260.9,776.2z"/>
<g>
	<path class="st0" d="M664.4,113.5c-19.5-0.2-35.8,30.7-30.3,39c1.9,2.9,6.9,3.6,7.1,3.7c5.2,0.7,7.8-2.6,17-4.5
		c2.1-0.6,4.2-0.9,6.4-0.9c7.5,0.3,9.9,5.4,18.4,7.9c3.4,1,8.8,2.7,11,0.7C699.9,153.6,686.4,113.7,664.4,113.5L664.4,113.5z"/>
	<path class="st0" d="M644.6,100.2c2.6,8.1-0.2,16.3-6.4,18.2c-6.2,1.9-13.3-3.1-15.9-11.3c-2.6-8.2,0.2-16.3,6.4-18.2
		C634.9,87,641.9,92.1,644.6,100.2z"/>
	<path class="st0" d="M671.2,80.2c1.2,11-3.3,20.5-10.2,21.2s-13.5-7.5-14.7-18.5s3.3-20.5,10.2-21.2S670,69.2,671.2,80.2z"/>
	<path class="st0" d="M699.4,89.7c-4.1,9.3-12.1,14.9-17.9,12.4s-7.3-12-3.2-21.3s12.1-14.9,17.9-12.4S703.4,80.4,699.4,89.7z"/>
	<path class="st0" d="M715,122.4c-5,8.5-13.7,12.8-19.5,9.5s-6.3-12.8-1.2-21.3s13.7-12.8,19.5-9.5S720.1,113.9,715,122.4z"/>
</g>
<g>
	<path class="st0" d="M72.4,563.5c-19.5-0.2-35.8,30.7-30.3,39c1.9,2.9,6.9,3.6,7.1,3.7c5.2,0.7,7.8-2.6,17-4.5
		c2.1-0.6,4.2-0.9,6.4-0.9c7.5,0.3,9.9,5.4,18.4,7.9c3.4,1,8.8,2.7,11,0.7C107.9,603.6,94.4,563.7,72.4,563.5L72.4,563.5z"/>
	<path class="st0" d="M52.6,550.2c2.6,8.1-0.2,16.3-6.4,18.2s-13.3-3.1-15.9-11.3s0.2-16.3,6.4-18.2S49.9,542.1,52.6,550.2z"/>
	<path class="st0" d="M79.2,530.2c1.2,11-3.3,20.5-10.2,21.2s-13.5-7.5-14.7-18.5s3.3-20.5,10.2-21.2S78,519.2,79.2,530.2z"/>
	<path class="st0" d="M107.4,539.7c-4.1,9.3-12.1,14.9-17.9,12.4s-7.3-12-3.2-21.3s12.1-14.9,17.9-12.4S111.4,530.4,107.4,539.7z"/>
	<path class="st0" d="M123,572.4c-5,8.5-13.7,12.8-19.5,9.5s-6.3-12.8-1.2-21.3s13.7-12.8,19.5-9.5S128.1,563.9,123,572.4z"/>
</g>
<g>
	<g>
		<path class="st0" d="M1223.6,106c-1.5,0-3.1-0.6-4.3-1.8l-2.6-2.6l-2.6,2.6c-2.4,2.4-6.2,2.3-8.6,0c-2.4-2.4-2.3-6.2,0-8.6
			l2.6-2.6l-2.6-2.6c-2.4-2.4-2.4-6.2,0-8.6s6.2-2.4,8.6,0l2.6,2.6l2.6-2.6c2.4-2.4,6.2-2.3,8.6,0c2.4,2.4,2.3,6.2,0,8.6l-2.6,2.6
			l2.6,2.6c2.4,2.4,2.4,6.2,0,8.6C1226.8,105.4,1225.2,106,1223.6,106z"/>
	</g>
	<g>
		<path class="st0" d="M1221.6,143.3c-1.8,0-3.6-0.8-4.8-2.3c-2.1-2.7-1.7-6.6,0.9-8.7c5.6-4.6,11.4-3.3,15.3-2.4
			c3.3,0.7,4,0.7,4.9,0c0.9-0.8,1.1-1.4,1-4.8c0-3.9-0.1-9.9,5.6-14.5c5.7-4.7,11.5-3.4,15.4-2.5c3.5,0.8,4,0.7,4.8,0
			c0.9-0.8,1.1-1.4,1-4.8c0-3.9-0.1-9.9,5.6-14.5c5.7-4.7,11.5-3.4,15.4-2.5c3.5,0.8,4,0.7,4.8,0c0.9-0.8,1.1-1.4,1-4.8
			c0-3.9,0-9.9,5.7-14.5c2.7-2.2,6.6-1.7,8.7,0.9c2.1,2.7,1.7,6.6-0.9,8.7c-0.9,0.8-1.1,1.4-1.1,4.9c0,3.9,0,9.8-5.6,14.4
			c-5.7,4.7-11.5,3.4-15.4,2.5c-3.5-0.8-4-0.7-4.8,0c-0.9,0.8-1.1,1.4-1,4.8c0,3.9,0.1,9.9-5.6,14.5c-5.7,4.7-11.5,3.4-15.4,2.5
			c-3.5-0.8-4-0.7-4.8,0c-0.9,0.8-1.1,1.4-1,4.8c0,3.9,0.1,9.9-5.6,14.5c-5.7,4.7-11.5,3.4-15.4,2.5c-3.3-0.7-4-0.7-4.9,0
			C1224.4,142.8,1223,143.3,1221.6,143.3z"/>
	</g>
	<g>
		<path class="st0" d="M1319.5,156.5c-12.7,0-23.1-10.3-23.1-23.1s10.3-23.1,23.1-23.1s23.1,10.3,23.1,23.1
			C1342.6,146.2,1332.3,156.5,1319.5,156.5z M1319.5,123.7c-5.4,0-9.7,4.4-9.7,9.7c0,5.4,4.4,9.7,9.7,9.7s9.7-4.4,9.7-9.7
			C1329.3,128.1,1324.9,123.7,1319.5,123.7z"/>
	</g>
</g>
<g>
	<g>
		<path class="st0" d="M949.6,566.5c-1.5,0-3.1-0.6-4.3-1.8l-2.6-2.6l-2.6,2.6c-2.4,2.4-6.2,2.3-8.6,0c-2.4-2.4-2.3-6.2,0-8.6
			l2.6-2.6l-2.6-2.6c-2.4-2.4-2.4-6.2,0-8.6c2.4-2.4,6.2-2.4,8.6,0l2.6,2.6l2.6-2.6c2.4-2.4,6.2-2.3,8.6,0c2.4,2.4,2.3,6.2,0,8.6
			l-2.6,2.6l2.6,2.6c2.4,2.4,2.4,6.2,0,8.6C952.8,565.9,951.2,566.5,949.6,566.5z"/>
	</g>
	<g>
		<path class="st0" d="M947.6,603.8c-1.8,0-3.6-0.8-4.8-2.3c-2.1-2.7-1.7-6.6,0.9-8.7c5.6-4.6,11.4-3.3,15.3-2.4
			c3.3,0.7,4,0.7,4.9,0c0.9-0.8,1.1-1.4,1-4.8c0-3.9-0.1-9.9,5.6-14.5c5.7-4.7,11.5-3.4,15.4-2.5c3.5,0.8,4,0.7,4.8,0
			c0.9-0.8,1.1-1.4,1-4.8c0-3.9-0.1-9.9,5.6-14.5c5.7-4.7,11.5-3.4,15.4-2.5c3.5,0.8,4,0.7,4.8,0c0.9-0.8,1.1-1.4,1-4.8
			c0-3.9,0-9.9,5.7-14.5c2.7-2.2,6.6-1.7,8.7,0.9c2.1,2.7,1.7,6.6-0.9,8.7c-0.9,0.8-1.1,1.4-1.1,4.9c0,3.9,0,9.8-5.6,14.4
			c-5.7,4.7-11.5,3.4-15.4,2.5c-3.5-0.8-4-0.7-4.8,0c-0.9,0.8-1.1,1.4-1,4.8c0,3.9,0.1,9.9-5.6,14.5c-5.7,4.7-11.5,3.4-15.4,2.5
			c-3.5-0.8-4-0.7-4.8,0c-0.9,0.8-1.1,1.4-1,4.8c0,3.9,0.1,9.9-5.6,14.5c-5.7,4.7-11.5,3.4-15.4,2.5c-3.3-0.7-4-0.7-4.9,0
			C950.4,603.3,949,603.8,947.6,603.8z"/>
	</g>
	<g>
		<path class="st0" d="M1045.5,617c-12.7,0-23.1-10.3-23.1-23.1s10.3-23.1,23.1-23.1s23.1,10.3,23.1,23.1S1058.3,617,1045.5,617z
			 M1045.5,584.2c-5.4,0-9.7,4.4-9.7,9.7c0,5.4,4.4,9.7,9.7,9.7s9.7-4.4,9.7-9.7C1055.3,588.6,1050.9,584.2,1045.5,584.2z"/>
	</g>
</g>
<g>
	<g>
		<path class="st0" d="M465.5,324.1c-1.5,0-3.1-0.6-4.3-1.8l-2.6-2.6l-2.6,2.6c-2.4,2.4-6.2,2.3-8.6,0c-2.4-2.4-2.3-6.2,0-8.6
			l2.6-2.6l-2.6-2.6c-2.4-2.4-2.4-6.2,0-8.6s6.2-2.4,8.6,0l2.6,2.6l2.6-2.6c2.4-2.4,6.2-2.3,8.6,0c2.4,2.4,2.3,6.2,0,8.6l-2.6,2.6
			l2.6,2.6c2.4,2.4,2.4,6.2,0,8.6C468.6,323.5,467,324.1,465.5,324.1z"/>
	</g>
	<g>
		<path class="st0" d="M463.5,361.4c-1.8,0-3.6-0.8-4.8-2.3c-2.1-2.7-1.7-6.6,0.9-8.7c5.6-4.6,11.4-3.3,15.3-2.4
			c3.3,0.7,4,0.7,4.9,0c0.9-0.8,1.1-1.4,1-4.8c0-3.9-0.1-9.9,5.6-14.5c5.7-4.7,11.5-3.4,15.4-2.5c3.5,0.8,4,0.7,4.8,0
			c0.9-0.8,1.1-1.4,1-4.8c0-3.9-0.1-9.9,5.6-14.5c5.7-4.7,11.5-3.4,15.4-2.5c3.5,0.8,4,0.7,4.8,0c0.9-0.8,1.1-1.4,1-4.8
			c0-3.9,0-9.9,5.7-14.5c2.7-2.2,6.6-1.7,8.7,0.9c2.1,2.7,1.7,6.6-0.9,8.7c-0.9,0.8-1.1,1.4-1.1,4.9c0,3.9,0,9.8-5.6,14.4
			c-5.7,4.7-11.5,3.4-15.4,2.5c-3.5-0.8-4-0.7-4.8,0c-0.9,0.8-1.1,1.4-1,4.8c0,3.9,0.1,9.9-5.6,14.5c-5.7,4.7-11.5,3.4-15.4,2.5
			c-3.5-0.8-4-0.7-4.8,0c-0.9,0.8-1.1,1.4-1,4.8c0,3.9,0.1,9.9-5.6,14.5c-5.7,4.7-11.5,3.4-15.4,2.5c-3.3-0.7-4-0.7-4.9,0
			C466.2,360.9,464.8,361.4,463.5,361.4z"/>
	</g>
	<g>
		<path class="st0" d="M561.4,374.6c-12.7,0-23.1-10.3-23.1-23.1s10.3-23.1,23.1-23.1s23.1,10.3,23.1,23.1S574.1,374.6,561.4,374.6z
			 M561.4,341.8c-5.4,0-9.7,4.4-9.7,9.7c0,5.4,4.4,9.7,9.7,9.7s9.7-4.4,9.7-9.7C571.1,346.2,566.7,341.8,561.4,341.8z"/>
	</g>
</g>
<g>
	<path class="st0" d="M267.9,332c2.3,7,1.1,14.7-3.4,20.6l-29.9,37c-0.5,0.7-1.5,0.9-2.3,0.5l-42.4-21.6h-0.1
		c-11-5.8-15.1-19.5-9.3-30.4c2.9-5.4,7.8-9.4,13.7-11.1c11.9-3.7,24.6,2.8,28.7,14.7c-1.3-12.4,7.6-23.5,20-25
		C253.8,315.1,264.3,321.5,267.9,332L267.9,332z M163.8,291.9c1.7,2.4,2.1,5.5,1.1,8.3l-7.1,17.5c-0.1,0.3-0.4,0.6-0.8,0.5
		c0,0,0,0-0.1,0l-18.8-3.5c-2.8-0.6-5.1-2.4-6.4-4.9c-2-4.1-0.6-9,3.2-11.5c4.2-2.8,9.8-1.7,12.7,2.4c-2-4.6,0.2-9.9,4.7-11.9
		c0,0,0,0,0.1,0C156.5,287,161.2,288.3,163.8,291.9L163.8,291.9z M217.9,293.4c0.4,2.4-0.4,4.9-2.2,6.5L204,310.6
		c-0.2,0.2-0.6,0.3-0.8,0l0,0l-12.7-9.2c-1.8-1.4-2.9-3.6-3-5.9c0-4.2,3.4-7.7,7.6-7.7c3.8,0,7,2.7,7.6,6.5c0.2-4.2,3.7-7.5,8-7.3
		C214.3,287.1,217.3,289.8,217.9,293.4z M250.2,276.7c-0.2,1.8-1.3,3.4-3,4.2l-10.6,5.1c-0.2,0.1-0.4,0.1-0.6-0.1l-7-9.2
		c-1-1.4-1.3-3.2-0.8-4.8c0.9-2.6,3.5-4.3,6.3-3.9c3,0.4,5.2,3.2,4.8,6.3c1.1-2.9,4.3-4.4,7.2-3.4
		C249,271.8,250.5,274.2,250.2,276.7L250.2,276.7z"/>
</g>
<g>
	<path class="st0" d="M319.9,70.9h37.9v79.7h-0.6c-17.7-23.5-24.4-51.1-26.6-62.1h14.1v-8.8h-24.2l0.6,4.9
		c0.2,1.6,5.2,40.9,30.2,73.4l1.4,1.6l13.9,0.2V62.2h-46.8v8.7H319.9z"/>
	<path class="st0" d="M370.1,159.6l13.9-0.2l1.4-1.6c25-32.3,30-71.5,30.2-73.4l0.6-4.9h-24.4v9H406c-2,11-8.9,38.6-26.4,62.3H379
		V71.1h37.7v-9h-46.6V159.6z"/>
</g>
<g>
	<path class="st0" d="M1247.9,534.9h37.9v79.7h-0.6c-17.7-23.5-24.4-51.1-26.6-62.1h14.1v-8.8h-24.2l0.6,4.9
		c0.2,1.6,5.2,40.9,30.2,73.4l1.4,1.6l13.9,0.2v-97.7h-46.8L1247.9,534.9L1247.9,534.9z"/>
	<path class="st0" d="M1298.1,623.6l13.9-0.2l1.4-1.6c25-32.3,30-71.5,30.2-73.4l0.6-4.9h-24.4v9h14.1c-2,11-8.9,38.6-26.4,62.3
		h-0.6v-79.7h37.7v-9H1298v97.5H1298.1z"/>
</g>
<g>
	<path class="st0" d="M764.6,288.9h38v80H802c-17.8-23.6-24.5-51.3-26.7-62.3h14.2v-8.8h-24.3l0.6,4.9c0.2,1.6,5.3,41,30.3,73.6
		l1.4,1.6l14,0.2v-98h-46.9V288.9z"/>
	<path class="st0" d="M815,377.9l14-0.2l1.4-1.6c25.1-32.4,30.1-71.8,30.3-73.6l0.6-4.9h-24.5v9H851c-2,11.1-8.9,38.8-26.5,62.5
		h-0.6v-80h37.8v-9H815V377.9z"/>
</g>
<g>
	<path class="st1" d="M794,802.2l28.5-36.2c1.9-2.4,3.6-3.7,5.4-4c19.9,12.1,42.5,9.2,56.4-8.4c14.9-19.4,10.6-45.1-10.2-61.4
		c-21.4-16.8-47.4-15.7-63,4.1c-13.7,17.4-11.3,39.9,5.3,56.6c0.2,1.8-0.7,3.7-2.6,6.2l-28.5,36.2c-3.8,4.9-5.5,4.9-9.9,2.3l-1.6,2
		l19,14.9l1.6-2C790.4,808.9,790,807.3,794,802.2z M817.6,701.2c13.2-16.8,37.2-19.8,53.8-6.8s19.3,37.1,6.1,53.9
		c-13.2,16.8-37.2,19.8-53.8,6.8C807.3,742.2,804.4,718,817.6,701.2z"/>
	<path class="st1" d="M843.2,749.5c0,0,14.7-5.1,6.3-22.8c0,0-7.8-14.7-24.3-2.4c0,0-4.7,4.8,2,8.1c0,0,6.4,0.1,8.2,5.2
		c0,0,1.4,4-0.7,8.6C834.7,746.4,833.5,753.7,843.2,749.5z"/>
	<path class="st1" d="M857.1,728.6c1.8,3.4,6.8,4.1,10.9,1.7c4.1-2.3,6.3-6.8,4.5-10.2s-6.7-5.9-10.9-1.7
		C858.1,722,855.4,725.4,857.1,728.6z"/>
	<path class="st1" d="M847.8,717.1c2.4,3.2,7.9,2.6,11.8,0.1c4.4-2.7,5.8-8.2,3.7-11.2s-7.5-3.2-11.8-0.1
		C847,709,845.4,713.9,847.8,717.1z"/>
	<path class="st1" d="M842.3,714.1c3.2-2.4,4-6.3,2.4-9.2c-1.6-3.3-6.1-2.9-9.5-0.6c-3.2,2.4-3.3,5.9-2.4,9.2
		C833.5,716.7,839,716.4,842.3,714.1z"/>
	<path class="st1" d="M858.1,736c-3.2,2.4-5.2,7.4-2.4,9.2s6.1,2.9,9.5,0.6c3.2-2.4,5.1-6.8,2.4-9.2
		C865.3,734.2,861.6,733.5,858.1,736z"/>
</g>
<g>
	<path class="st1" d="M107.7,156.1l-23.1-34.4c-1.5-2.3-2.2-4.1-1.9-5.7c15.8-13.7,19.6-33.8,8.4-50.5C78.7,47.4,55.5,44,35.8,57.2
		C15.5,70.8,9.2,93.5,21.9,112.3c11.1,16.5,31,20.7,49.8,11.1c1.6,0.3,3,1.6,4.6,3.9l23.1,34.4c3.1,4.6,2.7,6-0.7,9.1l1.3,1.9
		l18-12.1l-1.3-1.9C112.4,161.1,111,160.9,107.7,156.1z M27.8,108c-10.7-16-6.7-37.4,9.1-47.9c15.7-10.6,37.1-6.2,47.8,9.7
		c10.7,16,6.7,37.4-9.1,47.9C60.1,128.2,38.5,124,27.8,108z"/>
	<path class="st1" d="M76.3,99.5c0,0-0.3-14-17.8-11.8c0,0-14.7,2.6-8.8,20.1c0,0,2.8,5.4,7.5,0.5c0,0,1.9-5.4,6.7-5.6
		c0,0,3.8-0.1,7.2,3C71.2,105.9,77.1,108.9,76.3,99.5z"/>
	<path class="st1" d="M62.2,81.8c3.4-0.6,5.4-4.7,4.5-8.9c-0.9-4.2-4.1-7.3-7.5-6.7c-3.4,0.6-6.9,4.1-4.5,8.9
		C56.8,79.1,59,82.3,62.2,81.8z"/>
	<path class="st1" d="M49.8,86.6c3.4-1.1,4.5-6.1,3.4-10.1c-1.1-4.5-5.4-7.2-8.6-6.2s-4.8,5.5-3.4,10.1C42.6,85,46.4,87.7,49.8,86.6
		z"/>
	<path class="st1" d="M45.7,90.4c-1.2-3.4-4.3-5.2-7.2-4.6c-3.2,0.5-4.2,4.5-3.2,8c1.2,3.4,4.1,4.5,7.2,4.6
		C45.5,98.7,46.7,94,45.7,90.4z"/>
	<path class="st1" d="M68.8,83c1.2,3.4,4.9,6.5,7.2,4.6c2.3-1.8,4.2-4.5,3.2-8C78,76.3,74.7,73.4,72,75C69.2,76.3,67.7,79.3,68.8,83
		z"/>
</g>
<g>
	<path class="st0" d="M1010.7,107.2c0.8,1.3,0.4,2.9-0.9,3.7l-0.1,0.1l-36.8,20.3c-0.8,0.5-1.9,0.5-2.7,0l-36.7-20.4
		c-1.3-0.7-1.8-2.4-1.1-3.7l0.1-0.1l36.8-59.6c0.8-1.3,2.6-1.7,3.9-0.8c0.3,0.2,0.6,0.5,0.8,0.8L1010.7,107.2z"/>
	<path class="st0" d="M1001.2,128.6c1.3-0.8,2.9-0.4,3.7,0.9c0.6,0.9,0.5,2.2-0.1,3l-30.9,42.1c-0.9,1.2-2.7,1.5-3.9,0.6
		c-0.2-0.2-0.4-0.4-0.6-0.6l-30.9-42.1c-0.9-1.2-0.6-2.9,0.6-3.8c0.9-0.7,2.1-0.7,3-0.1l28.2,15.8c0.8,0.5,1.9,0.5,2.7,0
		L1001.2,128.6z"/>
</g>
<g>
	<path class="st0" d="M723.5,557.9c0.8,1.3,0.4,2.9-0.9,3.7l-0.1,0.1L685.7,582c-0.8,0.5-1.9,0.5-2.7,0l-36.7-20.4
		c-1.3-0.7-1.8-2.4-1.1-3.7l0.1-0.1l36.8-59.6c0.8-1.3,2.6-1.7,3.9-0.8c0.3,0.2,0.6,0.5,0.8,0.8L723.5,557.9z"/>
	<path class="st0" d="M714,579.3c1.3-0.8,2.9-0.4,3.7,0.9c0.6,0.9,0.5,2.2-0.1,3l-30.9,42.1c-0.9,1.2-2.7,1.5-3.9,0.6
		c-0.2-0.2-0.4-0.4-0.6-0.6l-30.9-42.1c-0.9-1.2-0.6-2.9,0.6-3.8c0.9-0.7,2.1-0.7,3-0.1l28.2,15.8c0.8,0.5,1.9,0.5,2.7,0L714,579.3z
		"/>
</g>
<g transform="translate(0,-952.36218)">
	<path d="M1440,1658.7c15.3,6.4,26.9,22.6,36.6,39.7c1.7-1.1,3.6-1.9,5.5-2.4c3.4-0.7,7.4-0.4,9.5,1.9c2.4,3.4,1.8,7.5,0.8,10.9
		c-1,3.5-3,7.2-5.8,10.4c0.5,4.6,2.1,10,2.2,14.9c0.1,2.6-0.3,5.5-2.6,7.6c-3,2.3-6.8,2.8-9.9,1.7L1396,1710
		c-4.9-2-8.6-6.6-11.2-11.3c-1.9-3.4-3-6.8-3.4-10.4c-8.1-2.7-13.5-5.7-16.9-9.1c-3.5-3.5-4.7-8-3.2-11.5c2.7-4.8,7.9-5.9,12.7-5.8
		c5,0.4,10,1.4,14.8,3.3c1.5,0.7,2.3,2.8,1.5,4.3c-0.7,1.5-2.8,2.3-4.3,1.5c-3.3-1.4-8.2-2.6-12.2-2.7c-2.5,0-4.9,0.2-6.6,1.8
		c-0.4,0.9-0.5,2.2,1.9,4.5c2.2,2.2,6.7,5,14.1,7.5c4.7-9.2,12.8-16.9,22.4-21.6C1416.1,1655.4,1428.5,1653.9,1440,1658.7z
		 M1437.5,1664.6c-9.4-3.9-19.9-2.7-29.1,1.8s-16.9,12.3-20.6,21.1c0,2.8,1.2,5.8,2.5,8.1c2.1,3.8,5.6,7.4,8.1,8.5l79.9,33.2
		c2.4,0.6,3.4-0.1,3.6-0.2c0.2-0.2,0.5-0.9,0.5-2.7c-0.1-3.6-2-9.7-2.4-15.7c-0.1-0.9,0.3-1.8,0.9-2.5c2.6-2.6,4.5-6.2,5.3-9.1
		c0.6-1.7,0.6-3.2,0.4-4.9c-1-0.3-2.3-0.1-3.2,0.1c-2.1,0.5-4.4,1.8-5.4,3c-1.3,1.5-4.2,1.2-5.2-0.5
		C1463,1686.8,1451,1670.2,1437.5,1664.6z M1471,1713.3c1.6,0.7,2.4,2.6,1.7,4.2s-2.6,2.4-4.2,1.7s-2.4-2.6-1.7-4.2
		C1467.5,1713.4,1469.4,1712.7,1471,1713.3z"/>
</g>
<g transform="translate(0,-952.36218)">
	<path d="M410,1486.7c15.3,6.4,26.9,22.6,36.6,39.7c1.7-1.1,3.6-1.9,5.5-2.4c3.4-0.7,7.4-0.4,9.5,1.9c2.4,3.4,1.8,7.5,0.8,10.9
		c-1,3.5-3,7.2-5.8,10.4c0.5,4.6,2.1,10,2.2,14.9c0.1,2.6-0.3,5.5-2.6,7.6c-3,2.3-6.8,2.8-9.9,1.7L366,1538
		c-4.9-2-8.6-6.6-11.2-11.3c-1.9-3.4-3-6.8-3.4-10.4c-8.1-2.7-13.5-5.7-16.9-9.1c-3.5-3.5-4.7-8-3.2-11.5c2.7-4.8,7.9-5.9,12.7-5.8
		c5,0.4,10,1.4,14.8,3.3c1.5,0.7,2.3,2.8,1.5,4.3c-0.7,1.5-2.8,2.3-4.3,1.5c-3.3-1.4-8.2-2.6-12.2-2.7c-2.5,0-4.9,0.2-6.6,1.8
		c-0.4,0.9-0.5,2.2,1.9,4.5c2.2,2.2,6.7,5,14.1,7.5c4.7-9.2,12.8-16.9,22.4-21.6C386.1,1483.4,398.5,1481.9,410,1486.7z
		 M407.5,1492.6c-9.4-3.9-19.9-2.7-29.1,1.8s-16.9,12.3-20.6,21.1c0,2.8,1.2,5.8,2.5,8.1c2.1,3.8,5.6,7.4,8.1,8.5l79.9,33.2
		c2.4,0.6,3.4-0.1,3.6-0.2c0.2-0.2,0.5-0.9,0.5-2.7c-0.1-3.6-2-9.7-2.4-15.7c-0.1-0.9,0.3-1.8,0.9-2.5c2.6-2.6,4.5-6.2,5.3-9.1
		c0.6-1.7,0.6-3.2,0.4-4.9c-1-0.3-2.3-0.1-3.2,0.1c-2.1,0.5-4.4,1.8-5.4,3c-1.3,1.5-4.2,1.2-5.2-0.5
		C433,1514.8,421,1498.2,407.5,1492.6z M441,1541.3c1.6,0.7,2.4,2.6,1.7,4.2c-0.7,1.6-2.6,2.4-4.2,1.7s-2.4-2.6-1.7-4.2
		C437.5,1541.4,439.4,1540.7,441,1541.3z"/>
</g>
<g>
	<path d="M1201.6,779.1c-7.3-3.2-12.9,0.3-18.4,3.6c-5.5,3.4-10.7,6.6-18.1,3.8c13.6-7.7,22.9-22.3,22.9-39
		c0-24.7-20.1-44.7-44.7-44.7s-44.7,20.1-44.7,44.7c0,24.7,20.1,44.7,44.7,44.7c5.8,0,11.3-1.1,16.4-3.1c4.1,2.2,7.7,3.1,10.9,3.1
		c6.1,0,10.9-3,15.1-5.6c5.6-3.4,9.2-5.4,14-3.3c1.2,0.5,2.6,0,3.1-1.2C1203.3,781,1202.8,779.6,1201.6,779.1z M1162.1,782.9
		c-0.1-4.4-0.5-8.8-1.1-13.2c3.1-2.2,6.1-4.5,9-7c0.9,4.2,1.6,8.5,2,12.7C1169.1,778.4,1165.7,780.9,1162.1,782.9z M1176.1,770.4
		c-0.5-3.8-1.2-7.6-2.1-11.3c3.3-3.2,6.4-6.6,9.3-10.2C1183,756.9,1180.4,764.3,1176.1,770.4z M1143.3,707.5
		c5.6,0,10.9,1.2,15.8,3.2c-1.8,3.2-3.8,6.2-6,9c-3.8-4.4-8-8.5-12.4-12.2C1141.5,707.5,1142.4,707.5,1143.3,707.5z M1134.4,708.5
		c5.7,4.4,10.9,9.4,15.7,14.9c-3,3.3-6.2,6.3-9.7,9c-5.8-6.8-12.4-12.9-19.5-18C1124.9,711.6,1129.5,709.6,1134.4,708.5z
		 M1116.9,717.4c7.2,5,13.8,11,19.6,17.8c-3.8,2.5-7.9,4.6-12.1,6.4c-4.8-5.3-10-10-15.7-14.2
		C1110.9,723.5,1113.7,720.2,1116.9,717.4z M1106.6,731.5c4.6,3.5,9,7.4,13.1,11.7c-5.3,1.7-10.7,2.8-16.4,3.2
		C1103.4,741.1,1104.6,736.1,1106.6,731.5z M1103.4,751.1L1103.4,751.1c0.1,0,0.1,0,0.2,0c25.2-1.8,47.5-16.1,59.7-38.2
		c4.2,2.4,8,5.6,11.1,9.4c-14,24.3-38.8,40.5-66.7,43.5C1105.3,761.3,1103.8,756.3,1103.4,751.1z M1140.3,787.5
		c-3.9-0.3-7.6-1.1-11.1-2.4c3.9-1.2,7.8-2.5,11.6-4.1C1140.7,783.1,1140.5,785.3,1140.3,787.5z M1122.7,781.9c-5-3-9.3-7-12.5-11.8
		c27.8-3.6,52.5-19.7,67.1-43.7c2.9,4.6,4.8,9.8,5.7,15.4C1168.1,762,1146.9,776.1,1122.7,781.9z M1145,787.6
		c0.3-2.9,0.5-5.8,0.5-8.8c3.8-1.8,7.5-3.9,11.1-6.1c0.5,4.1,0.8,8.3,0.8,12.4C1153.5,786.5,1149.4,787.4,1145,787.6z"/>
</g>
<g>
	<g>
		<g>
			<path d="M1469,300.7l-27.3,13.6c-1.3,0.7-2.9,0.1-3.6-1.2c-0.7-1.3-0.1-2.9,1.2-3.6l27.3-13.6c5.5-2.8,7.8-9.5,5.1-15.1
				l-5.2-10.4l-95.1,47.3c-1.8,0.9-2.7,2.9-2.2,4.8l2.9,14.8c0.3,1.1,1.1,2.2,2.3,2.7c1.2,0.5,2.5,0.5,3.7-0.1l36.5-18.2
				c1.3-0.7,2.9-0.1,3.6,1.2c0.7,1.3,0.1,2.9-1.2,3.6l-36.5,18.2c-2.6,1.3-5.6,1.3-8.3,0.1s-4.6-3.6-5.3-6.4l-2.9-14.8
				c-1.1-4.3,1-8.7,5.1-10.7l97.5-48.5c1.3-0.7,2.9-0.1,3.6,1.2l6.4,12.8C1480.5,286.6,1477.2,296.6,1469,300.7z"/>
		</g>
		<g>
			<path d="M1420.8,384l-19.4,9.6c-2.8,1.4-5.9,1.4-8.7,0c-2.7-1.4-4.6-3.9-5.2-6.9l-6.6-46.1c-0.2-1.1,0.4-2.3,1.5-2.8l32.2-16
				c0.8-0.4,1.7-0.4,2.4,0c0.8,0.4,1.3,1.1,1.4,2l7.4,50.4C1426.5,378.1,1424.4,382.2,1420.8,384z M1386.5,341.7l6.3,44.1
				c0.2,1.3,1.1,2.4,2.3,3c1.2,0.6,2.7,0.6,3.9,0l19.4-9.6c1.5-0.8,2.4-2.5,2.1-4.2l-6.9-46.8L1386.5,341.7z"/>
		</g>
		<g>
			<path d="M1430.5,347.7l-9.8,4.8c-0.8,0.4-1.7,0.4-2.4,0c-0.8-0.4-1.3-1.1-1.4-2l-3.8-25.9c-0.2-1.1,0.4-2.3,1.5-2.8l24.8-12.3
				c1.3-0.7,2.9-0.1,3.6,1.2C1449.6,324.3,1444.1,340.9,1430.5,347.7z M1421.6,346.1l6.5-3.2c10.2-5.1,14.8-16.9,11.1-27.4
				l-20.5,10.2L1421.6,346.1z"/>
		</g>
	</g>
	<g>
		<path d="M1433.4,334.5c-0.2,0.1-0.4,0.2-0.6,0.2c-11.6,2.7-19.1-8.6-19.4-9.1c-0.8-1.2-0.4-2.9,0.8-3.7c1.2-0.8,2.9-0.4,3.7,0.8
			l0,0c0.1,0.1,5.8,8.6,13.7,6.8c1.4-0.3,2.9,0.6,3.2,2C1435.1,332.7,1434.5,333.9,1433.4,334.5z"/>
	</g>
</g>
<g>
	<g>
		<g>
			<path d="M608.8,719.2l-27.3,13.6c-1.3,0.7-2.9,0.1-3.6-1.2s-0.1-2.9,1.2-3.6l27.3-13.6c5.5-2.8,7.8-9.5,5.1-15.1l-5.2-10.4
				l-95.1,47.3c-1.8,0.9-2.7,2.9-2.2,4.8l2.9,14.8c0.3,1.1,1.1,2.2,2.3,2.7s2.5,0.5,3.7-0.1l36.5-18.2c1.3-0.7,2.9-0.1,3.6,1.2
				c0.7,1.3,0.1,2.9-1.2,3.6l-36.5,18.2c-2.6,1.3-5.6,1.3-8.3,0.1s-4.6-3.6-5.3-6.4l-2.9-14.8c-1.1-4.3,1-8.7,5.1-10.7l97.5-48.5
				c1.3-0.7,2.9-0.1,3.6,1.2l6.4,12.8C620.4,705.1,617,715.1,608.8,719.2z"/>
		</g>
		<g>
			<path d="M560.6,802.5l-19.4,9.6c-2.8,1.4-5.9,1.4-8.7,0c-2.7-1.4-4.6-3.9-5.2-6.9l-6.6-46.1c-0.2-1.1,0.4-2.3,1.5-2.8l32.2-16
				c0.8-0.4,1.7-0.4,2.4,0c0.8,0.4,1.3,1.1,1.4,2l7.4,50.4C566.3,796.6,564.3,800.7,560.6,802.5z M526.3,760.2l6.3,44.1
				c0.2,1.3,1.1,2.4,2.3,3s2.7,0.6,3.9,0l19.4-9.6c1.5-0.8,2.4-2.5,2.1-4.2l-6.9-46.8L526.3,760.2z"/>
		</g>
		<g>
			<path d="M570.3,766.2l-9.8,4.8c-0.8,0.4-1.7,0.4-2.4,0c-0.8-0.4-1.3-1.1-1.4-2l-3.8-25.9c-0.2-1.1,0.4-2.3,1.5-2.8l24.8-12.3
				c1.3-0.7,2.9-0.1,3.6,1.2C589.5,742.8,583.9,759.4,570.3,766.2z M561.5,764.6l6.5-3.2c10.2-5.1,14.8-16.9,11.1-27.4l-20.5,10.2
				L561.5,764.6z"/>
		</g>
	</g>
	<g>
		<path d="M573.3,753c-0.2,0.1-0.4,0.2-0.6,0.2c-11.6,2.7-19.1-8.6-19.4-9.1c-0.8-1.2-0.4-2.9,0.8-3.7s2.9-0.4,3.7,0.8l0,0
			c0.1,0.1,5.8,8.6,13.7,6.8c1.4-0.3,2.9,0.6,3.2,2C575,751.2,574.4,752.4,573.3,753z"/>
	</g>
</g>
<path class="st0" d="M2742.6,293.7c-2.4-2.4-6.3-2.4-8.7-0.1c-1,1-2.1,1.9-3.2,2.8l0,0c-0.8,0.6-1.7,1.2-2.5,1.7l-21.9-21.6
	c0.3-0.4,0.5-0.8,0.8-1.3c0.1-0.2,0.3-0.4,0.4-0.6c1-1.3,2.1-2.5,3.2-3.7c2.4-2.4,2.5-6.2,0.1-8.7c-2.4-2.4-6.2-2.5-8.7-0.1
	c-1.9,1.8-3.6,3.8-5.1,5.9c-0.2,0.3-0.4,0.6-0.6,1c-6.7,9.9-6.9,19.9-5.5,29.2c-11.7-1.6-24.2-1.1-36.5,11
	c-12,11.8-12.3,24.3-10.6,35.9c-11.8-1.7-24.6-1.4-37,10.9c-2.4,2.4-2.4,6.3-0.1,8.7c1.2,1.2,2.8,1.8,4.4,1.8c1.6,0,3.1-0.6,4.3-1.8
	c1.8-1.8,3.7-3.3,5.5-4.4L2643,382c-1.2,1.8-2.6,3.5-4.4,5.2c-2.4,2.4-2.5,6.3-0.1,8.7c1.2,1.2,2.8,1.8,4.4,1.8
	c1.6,0,3.1-0.6,4.3-1.8c12.1-11.8,12.9-24.5,11.6-35.9c11.6,1.6,24,1,36.2-11c12.3-12.1,12.8-24.4,11.2-35.9
	c10.2,1.4,21.2,1.2,32-7.1l0,0c1.5-1.2,3-2.4,4.4-3.8C2744.9,300,2744.9,296.1,2742.6,293.7z M2693.3,311c1.2,6.5,1.9,12.4,0.2,18
	l-18.7-18.3C2680.6,309.1,2686.6,309.8,2693.3,311z M2627.5,357.5c5.8-1.5,11.8-0.8,18.5,0.4c1.1,6.4,1.6,12.2-0.1,17.7
	L2627.5,357.5z M2656.6,347.4c-1.2-6.6-1.9-12.6-0.5-18.2l18.6,18.3C2669,349.2,2663.1,348.6,2656.6,347.4z M2681.2,344.5
	l-22.2-21.8c1-1.6,2.3-3.2,4-4.8c1.8-1.7,3.5-3.1,5.3-4.2l22.2,21.7c-1.1,1.7-2.5,3.3-4.2,5C2684.6,342.1,2682.9,343.4,2681.2,344.5
	z M2703.7,300.5c-1.1-6.2-1.8-11.9-0.4-17.4l18.1,17.8C2715.8,302.3,2710,301.6,2703.7,300.5z"/>
<path class="st0" d="M1828.5,814.9c2.4-2.4,2.4-6.3-0.1-8.7c-1-1-2-2.1-2.8-3.2l0,0c-0.6-0.8-1.2-1.6-1.7-2.5l21.2-22.2
	c0.4,0.3,0.9,0.5,1.3,0.8c0.2,0.1,0.4,0.3,0.6,0.4c1.3,1,2.6,2,3.7,3.2c2.4,2.4,6.3,2.4,8.7,0s2.4-6.3,0-8.7c-1.8-1.8-3.9-3.5-6-5
	c-0.3-0.2-0.6-0.4-1-0.5c-10-6.6-20-6.6-29.2-5.1c1.5-11.7,0.7-24.2-11.5-36.4c-11.9-11.8-24.4-11.9-36.1-10.1
	c1.6-11.8,1-24.6-11.4-36.8c-2.4-2.4-6.3-2.4-8.7,0.1c-1.2,1.2-1.8,2.8-1.8,4.4c0,1.6,0.6,3.1,1.8,4.3c1.8,1.8,3.3,3.6,4.5,5.4
	l-21.4,22.4c-1.8-1.1-3.5-2.5-5.3-4.3c-2.4-2.4-6.3-2.4-8.7,0c-1.2,1.2-1.8,2.8-1.8,4.4c0,1.6,0.6,3.1,1.8,4.3
	c12,11.9,24.7,12.6,36.1,11c-1.4,11.6-0.6,24,11.5,36c12.2,12.1,24.6,12.5,36,10.7c-1.3,10.2-0.9,21.2,7.6,31.9l0,0
	c1.2,1.5,2.5,3,3.9,4.3C1822.2,817.4,1826.1,817.3,1828.5,814.9z M1810.4,765.9c-6.5,1.3-12.4,2.1-18,0.5l18-19
	C1812.1,753.2,1811.5,759.2,1810.4,765.9z M1763,700.8c1.6,5.8,1,11.8-0.2,18.5c-6.4,1.2-12.1,1.8-17.7,0.2L1763,700.8z
	 M1773.5,729.8c6.6-1.3,12.5-2.1,18.1-0.7l-18,18.9C1771.9,742.2,1772.4,736.3,1773.5,729.8z M1776.7,754.3l21.5-22.5
	c1.6,1,3.2,2.3,4.8,3.9c1.8,1.7,3.2,3.5,4.3,5.2l-21.4,22.5c-1.7-1.1-3.3-2.4-5-4.1C1779.2,757.7,1777.8,756,1776.7,754.3z
	 M1821.1,776.2c6.2-1.2,11.9-2,17.4-0.6L1821,794C1819.5,788.3,1820.1,782.5,1821.1,776.2z"/>
<g>
	<path class="st0" d="M2224.6,113.5c-19.5-0.2-35.8,30.7-30.3,39c1.9,2.9,6.9,3.6,7.1,3.7c5.2,0.7,7.8-2.6,17-4.5
		c2.1-0.6,4.2-0.9,6.4-0.9c7.5,0.3,9.9,5.4,18.4,7.9c3.4,1,8.8,2.7,11,0.7C2260.1,153.6,2246.6,113.7,2224.6,113.5L2224.6,113.5z"/>
	<path class="st0" d="M2204.8,100.2c2.6,8.1-0.2,16.3-6.4,18.2c-6.2,1.9-13.3-3.1-15.9-11.3s0.2-16.3,6.4-18.2
		C2195.1,87,2202.1,92.1,2204.8,100.2z"/>
	<path class="st0" d="M2231.4,80.2c1.2,11-3.3,20.5-10.2,21.2c-6.9,0.7-13.5-7.5-14.7-18.5s3.3-20.5,10.2-21.2
		C2223.6,61,2230.2,69.2,2231.4,80.2z"/>
	<path class="st0" d="M2259.6,89.7c-4.1,9.3-12.1,14.9-17.9,12.4s-7.3-12-3.2-21.3s12.1-14.9,17.9-12.4
		C2262.2,70.9,2263.6,80.4,2259.6,89.7z"/>
	<path class="st0" d="M2275.2,122.4c-5,8.5-13.7,12.8-19.5,9.5s-6.3-12.8-1.2-21.3s13.7-12.8,19.5-9.5S2280.3,113.9,2275.2,122.4z"
		/>
</g>
<g>
	<path class="st0" d="M1632.6,563.5c-19.5-0.2-35.8,30.7-30.3,39c1.9,2.9,6.9,3.6,7.1,3.7c5.2,0.7,7.8-2.6,17-4.5
		c2.1-0.6,4.2-0.9,6.4-0.9c7.5,0.3,9.9,5.4,18.4,7.9c3.4,1,8.8,2.7,11,0.7C1668.1,603.6,1654.6,563.7,1632.6,563.5L1632.6,563.5z"/>
	<path class="st0" d="M1612.8,550.2c2.6,8.1-0.2,16.3-6.4,18.2c-6.2,1.9-13.3-3.1-15.9-11.3s0.2-16.3,6.4-18.2
		C1603.1,537,1610.1,542.1,1612.8,550.2z"/>
	<path class="st0" d="M1639.4,530.2c1.2,11-3.3,20.5-10.2,21.2c-6.9,0.7-13.5-7.5-14.7-18.5s3.3-20.5,10.2-21.2
		C1631.6,511,1638.2,519.2,1639.4,530.2z"/>
	<path class="st0" d="M1667.6,539.7c-4.1,9.3-12.1,14.9-17.9,12.4c-5.8-2.5-7.3-12-3.2-21.3s12.1-14.9,17.9-12.4
		S1671.6,530.4,1667.6,539.7z"/>
	<path class="st0" d="M1683.2,572.4c-5,8.5-13.7,12.8-19.5,9.5c-5.8-3.3-6.3-12.8-1.2-21.3s13.7-12.8,19.5-9.5
		S1688.3,563.9,1683.2,572.4z"/>
</g>
<g>
	<g>
		<path class="st0" d="M2783.8,106c-1.5,0-3.1-0.6-4.3-1.8l-2.6-2.6l-2.6,2.6c-2.4,2.4-6.2,2.3-8.6,0c-2.4-2.4-2.3-6.2,0-8.6
			l2.6-2.6l-2.6-2.6c-2.4-2.4-2.4-6.2,0-8.6c2.4-2.4,6.2-2.4,8.6,0l2.6,2.6l2.6-2.6c2.4-2.4,6.2-2.3,8.6,0c2.4,2.4,2.3,6.2,0,8.6
			l-2.6,2.6l2.6,2.6c2.4,2.4,2.4,6.2,0,8.6C2787,105.4,2785.4,106,2783.8,106z"/>
	</g>
	<g>
		<path class="st0" d="M2781.8,143.3c-1.8,0-3.6-0.8-4.8-2.3c-2.1-2.7-1.7-6.6,0.9-8.7c5.6-4.6,11.4-3.3,15.3-2.4
			c3.3,0.7,4,0.7,4.9,0c0.9-0.8,1.1-1.4,1-4.8c0-3.9-0.1-9.9,5.6-14.5c5.7-4.7,11.5-3.4,15.4-2.5c3.5,0.8,4,0.7,4.8,0
			c0.9-0.8,1.1-1.4,1-4.8c0-3.9-0.1-9.9,5.6-14.5c5.7-4.7,11.5-3.4,15.4-2.5c3.5,0.8,4,0.7,4.8,0c0.9-0.8,1.1-1.4,1-4.8
			c0-3.9,0-9.9,5.7-14.5c2.7-2.2,6.6-1.7,8.7,0.9c2.1,2.7,1.7,6.6-0.9,8.7c-0.9,0.8-1.1,1.4-1.1,4.9c0,3.9,0,9.8-5.6,14.4
			c-5.7,4.7-11.5,3.4-15.4,2.5c-3.5-0.8-4-0.7-4.8,0c-0.9,0.8-1.1,1.4-1,4.8c0,3.9,0.1,9.9-5.6,14.5c-5.7,4.7-11.5,3.4-15.4,2.5
			c-3.5-0.8-4-0.7-4.8,0c-0.9,0.8-1.1,1.4-1,4.8c0,3.9,0.1,9.9-5.6,14.5c-5.7,4.7-11.5,3.4-15.4,2.5c-3.3-0.7-4-0.7-4.9,0
			C2784.6,142.8,2783.2,143.3,2781.8,143.3z"/>
	</g>
	<g>
		<path class="st0" d="M2879.7,156.5c-12.7,0-23.1-10.3-23.1-23.1s10.3-23.1,23.1-23.1c12.8,0,23.1,10.3,23.1,23.1
			C2902.8,146.2,2892.5,156.5,2879.7,156.5z M2879.7,123.7c-5.4,0-9.7,4.4-9.7,9.7c0,5.4,4.4,9.7,9.7,9.7c5.3,0,9.7-4.4,9.7-9.7
			C2889.5,128.1,2885.1,123.7,2879.7,123.7z"/>
	</g>
</g>
<g>
	<g>
		<path class="st0" d="M2509.8,566.5c-1.5,0-3.1-0.6-4.3-1.8l-2.6-2.6l-2.6,2.6c-2.4,2.4-6.2,2.3-8.6,0c-2.4-2.4-2.3-6.2,0-8.6
			l2.6-2.6l-2.6-2.6c-2.4-2.4-2.4-6.2,0-8.6c2.4-2.4,6.2-2.4,8.6,0l2.6,2.6l2.6-2.6c2.4-2.4,6.2-2.3,8.6,0c2.4,2.4,2.3,6.2,0,8.6
			l-2.6,2.6l2.6,2.6c2.4,2.4,2.4,6.2,0,8.6C2513,565.9,2511.4,566.5,2509.8,566.5z"/>
	</g>
	<g>
		<path class="st0" d="M2507.8,603.8c-1.8,0-3.6-0.8-4.8-2.3c-2.1-2.7-1.7-6.6,0.9-8.7c5.6-4.6,11.4-3.3,15.3-2.4
			c3.3,0.7,4,0.7,4.9,0c0.9-0.8,1.1-1.4,1-4.8c0-3.9-0.1-9.9,5.6-14.5c5.7-4.7,11.5-3.4,15.4-2.5c3.5,0.8,4,0.7,4.8,0
			c0.9-0.8,1.1-1.4,1-4.8c0-3.9-0.1-9.9,5.6-14.5c5.7-4.7,11.5-3.4,15.4-2.5c3.5,0.8,4,0.7,4.8,0c0.9-0.8,1.1-1.4,1-4.8
			c0-3.9,0-9.9,5.7-14.5c2.7-2.2,6.6-1.7,8.7,0.9c2.1,2.7,1.7,6.6-0.9,8.7c-0.9,0.8-1.1,1.4-1.1,4.9c0,3.9,0,9.8-5.6,14.4
			c-5.7,4.7-11.5,3.4-15.4,2.5c-3.5-0.8-4-0.7-4.8,0c-0.9,0.8-1.1,1.4-1,4.8c0,3.9,0.1,9.9-5.6,14.5c-5.7,4.7-11.5,3.4-15.4,2.5
			c-3.5-0.8-4-0.7-4.8,0c-0.9,0.8-1.1,1.4-1,4.8c0,3.9,0.1,9.9-5.6,14.5c-5.7,4.7-11.5,3.4-15.4,2.5c-3.3-0.7-4-0.7-4.9,0
			C2510.6,603.3,2509.2,603.8,2507.8,603.8z"/>
	</g>
	<g>
		<path class="st0" d="M2605.7,617c-12.7,0-23.1-10.3-23.1-23.1s10.3-23.1,23.1-23.1c12.8,0,23.1,10.3,23.1,23.1
			S2618.5,617,2605.7,617z M2605.7,584.2c-5.4,0-9.7,4.4-9.7,9.7c0,5.4,4.4,9.7,9.7,9.7c5.3,0,9.7-4.4,9.7-9.7
			C2615.5,588.6,2611.1,584.2,2605.7,584.2z"/>
	</g>
</g>
<g>
	<g>
		<path class="st0" d="M2025.7,324.1c-1.5,0-3.1-0.6-4.3-1.8l-2.6-2.6l-2.6,2.6c-2.4,2.4-6.2,2.3-8.6,0c-2.4-2.4-2.3-6.2,0-8.6
			l2.6-2.6l-2.6-2.6c-2.4-2.4-2.4-6.2,0-8.6s6.2-2.4,8.6,0l2.6,2.6l2.6-2.6c2.4-2.4,6.2-2.3,8.6,0c2.4,2.4,2.3,6.2,0,8.6l-2.6,2.6
			l2.6,2.6c2.4,2.4,2.4,6.2,0,8.6C2028.8,323.5,2027.2,324.1,2025.7,324.1z"/>
	</g>
	<g>
		<path class="st0" d="M2023.7,361.4c-1.8,0-3.6-0.8-4.8-2.3c-2.1-2.7-1.7-6.6,0.9-8.7c5.6-4.6,11.4-3.3,15.3-2.4
			c3.3,0.7,4,0.7,4.9,0c0.9-0.8,1.1-1.4,1-4.8c0-3.9-0.1-9.9,5.6-14.5c5.7-4.7,11.5-3.4,15.4-2.5c3.5,0.8,4,0.7,4.8,0
			c0.9-0.8,1.1-1.4,1-4.8c0-3.9-0.1-9.9,5.6-14.5c5.7-4.7,11.5-3.4,15.4-2.5c3.5,0.8,4,0.7,4.8,0c0.9-0.8,1.1-1.4,1-4.8
			c0-3.9,0-9.9,5.7-14.5c2.7-2.2,6.6-1.7,8.7,0.9c2.1,2.7,1.7,6.6-0.9,8.7c-0.9,0.8-1.1,1.4-1.1,4.9c0,3.9,0,9.8-5.6,14.4
			c-5.7,4.7-11.5,3.4-15.4,2.5c-3.5-0.8-4-0.7-4.8,0c-0.9,0.8-1.1,1.4-1,4.8c0,3.9,0.1,9.9-5.6,14.5c-5.7,4.7-11.5,3.4-15.4,2.5
			c-3.5-0.8-4-0.7-4.8,0c-0.9,0.8-1.1,1.4-1,4.8c0,3.9,0.1,9.9-5.6,14.5c-5.7,4.7-11.5,3.4-15.4,2.5c-3.3-0.7-4-0.7-4.9,0
			C2026.4,360.9,2025,361.4,2023.7,361.4z"/>
	</g>
	<g>
		<path class="st0" d="M2121.6,374.6c-12.7,0-23.1-10.3-23.1-23.1s10.3-23.1,23.1-23.1c12.8,0,23.1,10.3,23.1,23.1
			S2134.3,374.6,2121.6,374.6z M2121.6,341.8c-5.4,0-9.7,4.4-9.7,9.7c0,5.4,4.4,9.7,9.7,9.7c5.3,0,9.7-4.4,9.7-9.7
			C2131.3,346.2,2126.9,341.8,2121.6,341.8z"/>
	</g>
</g>
<g>
	<path class="st0" d="M1828.1,332c2.3,7,1.1,14.7-3.4,20.6l-29.9,37c-0.5,0.7-1.5,0.9-2.3,0.5l-42.4-21.6h-0.1
		c-11-5.8-15.1-19.5-9.3-30.4c2.9-5.4,7.8-9.4,13.7-11.1c11.9-3.7,24.6,2.8,28.7,14.7c-1.3-12.4,7.6-23.5,20-25
		C1814,315.1,1824.5,321.5,1828.1,332L1828.1,332z M1724,291.9c1.7,2.4,2.1,5.5,1.1,8.3l-7.1,17.5c-0.1,0.3-0.4,0.6-0.8,0.5
		c0,0,0,0-0.1,0l-18.8-3.5c-2.8-0.6-5.1-2.4-6.4-4.9c-2-4.1-0.6-9,3.2-11.5c4.2-2.8,9.8-1.7,12.7,2.4c-2-4.6,0.2-9.9,4.7-11.9
		c0,0,0,0,0.1,0C1716.7,287,1721.4,288.3,1724,291.9L1724,291.9z M1778.1,293.4c0.4,2.4-0.4,4.9-2.2,6.5l-11.7,10.7
		c-0.2,0.2-0.6,0.3-0.8,0l0,0l-12.7-9.2c-1.8-1.4-2.9-3.6-3-5.9c0-4.2,3.4-7.7,7.6-7.7c3.8,0,7,2.7,7.6,6.5c0.2-4.2,3.7-7.5,8-7.3
		C1774.5,287.1,1777.5,289.8,1778.1,293.4z M1810.4,276.7c-0.2,1.8-1.3,3.4-3,4.2l-10.6,5.1c-0.2,0.1-0.4,0.1-0.6-0.1l-7-9.2
		c-1-1.4-1.3-3.2-0.8-4.8c0.9-2.6,3.5-4.3,6.3-3.9c3,0.4,5.2,3.2,4.8,6.3c1.1-2.9,4.3-4.4,7.2-3.4
		C1809.2,271.8,1810.7,274.2,1810.4,276.7L1810.4,276.7z"/>
</g>
<g>
	<path class="st0" d="M1880.1,70.9h37.9v79.7h-0.6c-17.7-23.5-24.4-51.1-26.6-62.1h14.1v-8.8h-24.2l0.6,4.9
		c0.2,1.6,5.2,40.9,30.2,73.4l1.4,1.6l13.9,0.2V62.2H1880L1880.1,70.9L1880.1,70.9z"/>
	<path class="st0" d="M1930.3,159.6l13.9-0.2l1.4-1.6c25-32.3,30-71.5,30.2-73.4l0.6-4.9H1952v9h14.2c-2,11-8.9,38.6-26.4,62.3h-0.6
		V71.1h37.7v-9h-46.6V159.6z"/>
</g>
<g>
	<path class="st0" d="M2808.1,534.9h37.9v79.7h-0.6c-17.7-23.5-24.4-51.1-26.6-62.1h14.1v-8.8h-24.2l0.6,4.9
		c0.2,1.6,5.2,40.9,30.2,73.4l1.4,1.6l13.9,0.2v-97.7H2808v8.8H2808.1z"/>
	<path class="st0" d="M2858.3,623.6l13.9-0.2l1.4-1.6c25-32.3,30-71.5,30.2-73.4l0.6-4.9H2880v9h14.1c-2,11-8.9,38.6-26.4,62.3h-0.6
		v-79.7h37.7v-9h-46.6v97.5H2858.3z"/>
</g>
<g>
	<path class="st0" d="M2324.8,288.9h38v80h-0.6c-17.8-23.6-24.5-51.3-26.7-62.3h14.2v-8.8h-24.3l0.6,4.9c0.2,1.6,5.3,41,30.3,73.6
		l1.4,1.6l14,0.2v-98h-46.9V288.9z"/>
	<path class="st0" d="M2375.2,377.9l14-0.2l1.4-1.6c25.1-32.4,30.1-71.8,30.3-73.6l0.6-4.9H2397v9h14.2c-2,11.1-8.9,38.8-26.5,62.5
		h-0.6v-80h37.8v-9h-46.7V377.9z"/>
</g>
<g>
	<path class="st1" d="M2354.2,802.2l28.5-36.2c1.9-2.4,3.6-3.7,5.4-4c19.9,12.1,42.5,9.2,56.4-8.4c14.9-19.4,10.6-45.1-10.2-61.4
		c-21.4-16.8-47.4-15.7-63,4.1c-13.7,17.4-11.3,39.9,5.3,56.6c0.2,1.8-0.7,3.7-2.6,6.2l-28.5,36.2c-3.8,4.9-5.5,4.9-9.9,2.3l-1.6,2
		l19,14.9l1.6-2C2350.6,808.9,2350.2,807.3,2354.2,802.2z M2377.8,701.2c13.2-16.8,37.2-19.8,53.8-6.8c16.6,13,19.3,37.1,6.1,53.9
		c-13.2,16.8-37.2,19.8-53.8,6.8C2367.5,742.2,2364.6,718,2377.8,701.2z"/>
	<path class="st1" d="M2403.4,749.5c0,0,14.7-5.1,6.3-22.8c0,0-7.8-14.7-24.3-2.4c0,0-4.7,4.8,2,8.1c0,0,6.4,0.1,8.2,5.2
		c0,0,1.4,4-0.7,8.6C2394.9,746.4,2393.7,753.7,2403.4,749.5z"/>
	<path class="st1" d="M2417.3,728.6c1.8,3.4,6.8,4.1,10.9,1.7c4.1-2.3,6.3-6.8,4.5-10.2s-6.7-5.9-10.9-1.7
		C2418.3,722,2415.6,725.4,2417.3,728.6z"/>
	<path class="st1" d="M2408,717.1c2.4,3.2,7.9,2.6,11.8,0.1c4.4-2.7,5.8-8.2,3.7-11.2s-7.5-3.2-11.8-0.1
		C2407.2,709,2405.6,713.9,2408,717.1z"/>
	<path class="st1" d="M2402.5,714.1c3.2-2.4,4-6.3,2.4-9.2c-1.6-3.3-6.1-2.9-9.5-0.6c-3.2,2.4-3.3,5.9-2.4,9.2
		C2393.7,716.7,2399.2,716.4,2402.5,714.1z"/>
	<path class="st1" d="M2418.3,736c-3.2,2.4-5.2,7.4-2.4,9.2c2.8,1.8,6.1,2.9,9.5,0.6c3.2-2.4,5.1-6.8,2.4-9.2
		C2425.5,734.2,2421.8,733.5,2418.3,736z"/>
</g>
<g>
	<path class="st1" d="M1667.9,156.1l-23.1-34.4c-1.5-2.3-2.2-4.1-1.9-5.7c15.8-13.7,19.6-33.8,8.4-50.5
		c-12.4-18.1-35.6-21.5-55.3-8.3c-20.3,13.6-26.6,36.3-13.9,55.1c11.1,16.5,31,20.7,49.8,11.1c1.6,0.3,3,1.6,4.6,3.9l23.1,34.4
		c3.1,4.6,2.7,6-0.7,9.1l1.3,1.9l18-12.1l-1.3-1.9C1672.6,161.1,1671.2,160.9,1667.9,156.1z M1588,108c-10.7-16-6.7-37.4,9.1-47.9
		c15.7-10.6,37.1-6.2,47.8,9.7c10.7,16,6.7,37.4-9.1,47.9C1620.3,128.2,1598.7,124,1588,108z"/>
	<path class="st1" d="M1636.5,99.5c0,0-0.3-14-17.8-11.8c0,0-14.7,2.6-8.8,20.1c0,0,2.8,5.4,7.5,0.5c0,0,1.9-5.4,6.7-5.6
		c0,0,3.8-0.1,7.2,3C1631.4,105.9,1637.3,108.9,1636.5,99.5z"/>
	<path class="st1" d="M1622.4,81.8c3.4-0.6,5.4-4.7,4.5-8.9c-0.9-4.2-4.1-7.3-7.5-6.7c-3.4,0.6-6.9,4.1-4.5,8.9
		C1617,79.1,1619.2,82.3,1622.4,81.8z"/>
	<path class="st1" d="M1610,86.6c3.4-1.1,4.5-6.1,3.4-10.1c-1.1-4.5-5.4-7.2-8.6-6.2c-3.2,1-4.8,5.5-3.4,10.1S1606.6,87.7,1610,86.6
		z"/>
	<path class="st1" d="M1605.9,90.4c-1.2-3.4-4.3-5.2-7.2-4.6c-3.2,0.5-4.2,4.5-3.2,8c1.2,3.4,4.1,4.5,7.2,4.6
		C1605.7,98.7,1606.9,94,1605.9,90.4z"/>
	<path class="st1" d="M1629,83c1.2,3.4,4.9,6.5,7.2,4.6c2.3-1.8,4.2-4.5,3.2-8c-1.2-3.3-4.5-6.2-7.2-4.6
		C1629.4,76.3,1627.9,79.3,1629,83z"/>
</g>
<g>
	<path class="st0" d="M2570.9,107.2c0.8,1.3,0.4,2.9-0.9,3.7l-0.1,0.1l-36.8,20.3c-0.8,0.5-1.9,0.5-2.7,0l-36.7-20.4
		c-1.3-0.7-1.8-2.4-1.1-3.7l0.1-0.1l36.8-59.6c0.8-1.3,2.6-1.7,3.9-0.8c0.3,0.2,0.6,0.5,0.8,0.8L2570.9,107.2z"/>
	<path class="st0" d="M2561.4,128.6c1.3-0.8,2.9-0.4,3.7,0.9c0.6,0.9,0.5,2.2-0.1,3l-30.9,42.1c-0.9,1.2-2.7,1.5-3.9,0.6
		c-0.2-0.2-0.4-0.4-0.6-0.6l-30.9-42.1c-0.9-1.2-0.6-2.9,0.6-3.8c0.9-0.7,2.1-0.7,3-0.1l28.2,15.8c0.8,0.5,1.9,0.5,2.7,0
		L2561.4,128.6z"/>
</g>
<g>
	<path class="st0" d="M2283.7,557.9c0.8,1.3,0.4,2.9-0.9,3.7l-0.1,0.1l-36.8,20.3c-0.8,0.5-1.9,0.5-2.7,0l-36.7-20.4
		c-1.3-0.7-1.8-2.4-1.1-3.7l0.1-0.1l36.8-59.6c0.8-1.3,2.6-1.7,3.9-0.8c0.3,0.2,0.6,0.5,0.8,0.8L2283.7,557.9z"/>
	<path class="st0" d="M2274.2,579.3c1.3-0.8,2.9-0.4,3.7,0.9c0.6,0.9,0.5,2.2-0.1,3l-30.9,42.1c-0.9,1.2-2.7,1.5-3.9,0.6
		c-0.2-0.2-0.4-0.4-0.6-0.6l-30.9-42.1c-0.9-1.2-0.6-2.9,0.6-3.8c0.9-0.7,2.1-0.7,3-0.1l28.2,15.8c0.8,0.5,1.9,0.5,2.7,0
		L2274.2,579.3z"/>
</g>
<g transform="translate(0,-952.36218)">
	<path d="M3000.2,1658.7c15.3,6.4,26.9,22.6,36.6,39.7c1.7-1.1,3.6-1.9,5.5-2.4c3.4-0.7,7.4-0.4,9.5,1.9c2.4,3.4,1.8,7.5,0.8,10.9
		c-1,3.5-3,7.2-5.8,10.4c0.5,4.6,2.1,10,2.2,14.9c0.1,2.6-0.3,5.5-2.6,7.6c-3,2.3-6.8,2.8-9.9,1.7l-80.3-33.4
		c-4.9-2-8.6-6.6-11.2-11.3c-1.9-3.4-3-6.8-3.4-10.4c-8.1-2.7-13.5-5.7-16.9-9.1c-3.5-3.5-4.7-8-3.2-11.5c2.7-4.8,7.9-5.9,12.7-5.8
		c5,0.4,10,1.4,14.8,3.3c1.5,0.7,2.3,2.8,1.5,4.3c-0.7,1.5-2.8,2.3-4.3,1.5c-3.3-1.4-8.2-2.6-12.2-2.7c-2.5,0-4.9,0.2-6.6,1.8
		c-0.4,0.9-0.5,2.2,1.9,4.5c2.2,2.2,6.7,5,14.1,7.5c4.7-9.2,12.8-16.9,22.4-21.6C2976.3,1655.4,2988.7,1653.9,3000.2,1658.7z
		 M2997.7,1664.6c-9.4-3.9-19.9-2.7-29.1,1.8s-16.9,12.3-20.6,21.1c0,2.8,1.2,5.8,2.5,8.1c2.1,3.8,5.6,7.4,8.1,8.5l79.9,33.2
		c2.4,0.6,3.4-0.1,3.6-0.2c0.2-0.2,0.5-0.9,0.5-2.7c-0.1-3.6-2-9.7-2.4-15.7c-0.1-0.9,0.3-1.8,0.9-2.5c2.6-2.6,4.5-6.2,5.3-9.1
		c0.6-1.7,0.6-3.2,0.4-4.9c-1-0.3-2.3-0.1-3.2,0.1c-2.1,0.5-4.4,1.8-5.4,3c-1.3,1.5-4.2,1.2-5.2-0.5
		C3023.2,1686.8,3011.2,1670.2,2997.7,1664.6z M3031.2,1713.3c1.6,0.7,2.4,2.6,1.7,4.2c-0.7,1.6-2.6,2.4-4.2,1.7
		c-1.6-0.7-2.4-2.6-1.7-4.2S3029.6,1712.7,3031.2,1713.3z"/>
</g>
<g transform="translate(0,-952.36218)">
	<path d="M1970.2,1486.7c15.3,6.4,26.9,22.6,36.6,39.7c1.7-1.1,3.6-1.9,5.5-2.4c3.4-0.7,7.4-0.4,9.5,1.9c2.4,3.4,1.8,7.5,0.8,10.9
		c-1,3.5-3,7.2-5.8,10.4c0.5,4.6,2.1,10,2.2,14.9c0.1,2.6-0.3,5.5-2.6,7.6c-3,2.3-6.8,2.8-9.9,1.7l-80.3-33.4
		c-4.9-2-8.6-6.6-11.2-11.3c-1.9-3.4-3-6.8-3.4-10.4c-8.1-2.7-13.5-5.7-16.9-9.1c-3.5-3.5-4.7-8-3.2-11.5c2.7-4.8,7.9-5.9,12.7-5.8
		c5,0.4,10,1.4,14.8,3.3c1.5,0.7,2.3,2.8,1.5,4.3c-0.7,1.5-2.8,2.3-4.3,1.5c-3.3-1.4-8.2-2.6-12.2-2.7c-2.5,0-4.9,0.2-6.6,1.8
		c-0.4,0.9-0.5,2.2,1.9,4.5c2.2,2.2,6.7,5,14.1,7.5c4.7-9.2,12.8-16.9,22.4-21.6C1946.3,1483.4,1958.7,1481.9,1970.2,1486.7z
		 M1967.7,1492.6c-9.4-3.9-19.9-2.7-29.1,1.8c-9.2,4.5-16.9,12.3-20.6,21.1c0,2.8,1.2,5.8,2.5,8.1c2.1,3.8,5.6,7.4,8.1,8.5
		l79.9,33.2c2.4,0.6,3.4-0.1,3.6-0.2c0.2-0.2,0.5-0.9,0.5-2.7c-0.1-3.6-2-9.7-2.4-15.7c-0.1-0.9,0.3-1.8,0.9-2.5
		c2.6-2.6,4.5-6.2,5.3-9.1c0.6-1.7,0.6-3.2,0.4-4.9c-1-0.3-2.3-0.1-3.2,0.1c-2.1,0.5-4.4,1.8-5.4,3c-1.3,1.5-4.2,1.2-5.2-0.5
		C1993.2,1514.8,1981.2,1498.2,1967.7,1492.6z M2001.2,1541.3c1.6,0.7,2.4,2.6,1.7,4.2c-0.7,1.6-2.6,2.4-4.2,1.7
		c-1.6-0.7-2.4-2.6-1.7-4.2S1999.6,1540.7,2001.2,1541.3z"/>
</g>
<g>
	<path d="M2761.8,779.1c-7.3-3.2-12.9,0.3-18.4,3.6c-5.5,3.4-10.7,6.6-18.1,3.8c13.6-7.7,22.9-22.3,22.9-39
		c0-24.7-20.1-44.7-44.7-44.7c-24.6,0-44.7,20.1-44.7,44.7c0,24.7,20.1,44.7,44.7,44.7c5.8,0,11.3-1.1,16.4-3.1
		c4.1,2.2,7.7,3.1,10.9,3.1c6.1,0,10.9-3,15.1-5.6c5.6-3.4,9.2-5.4,14-3.3c1.2,0.5,2.6,0,3.1-1.2
		C2763.5,781,2763,779.6,2761.8,779.1z M2722.3,782.9c-0.1-4.4-0.5-8.8-1.1-13.2c3.1-2.2,6.1-4.5,9-7c0.9,4.2,1.6,8.5,2,12.7
		C2729.3,778.4,2725.9,780.9,2722.3,782.9z M2736.3,770.4c-0.5-3.8-1.2-7.6-2.1-11.3c3.3-3.2,6.4-6.6,9.3-10.2
		C2743.2,756.9,2740.6,764.3,2736.3,770.4z M2703.5,707.5c5.6,0,10.9,1.2,15.8,3.2c-1.8,3.2-3.8,6.2-6,9c-3.8-4.4-8-8.5-12.4-12.2
		C2701.7,707.5,2702.6,707.5,2703.5,707.5z M2694.6,708.5c5.7,4.4,10.9,9.4,15.7,14.9c-3,3.3-6.2,6.3-9.7,9
		c-5.8-6.8-12.4-12.9-19.5-18C2685.1,711.6,2689.7,709.6,2694.6,708.5z M2677.1,717.4c7.2,5,13.8,11,19.6,17.8
		c-3.8,2.5-7.9,4.6-12.1,6.4c-4.8-5.3-10-10-15.7-14.2C2671.1,723.5,2673.9,720.2,2677.1,717.4z M2666.8,731.5
		c4.6,3.5,9,7.4,13.1,11.7c-5.3,1.7-10.7,2.8-16.4,3.2C2663.6,741.1,2664.8,736.1,2666.8,731.5z M2663.6,751.1L2663.6,751.1
		c0.1,0,0.1,0,0.2,0c25.2-1.8,47.5-16.1,59.7-38.2c4.2,2.4,8,5.6,11.1,9.4c-14,24.3-38.8,40.5-66.7,43.5
		C2665.5,761.3,2664,756.3,2663.6,751.1z M2700.5,787.5c-3.9-0.3-7.6-1.1-11.1-2.4c3.9-1.2,7.8-2.5,11.6-4.1
		C2700.9,783.1,2700.7,785.3,2700.5,787.5z M2682.9,781.9c-5-3-9.3-7-12.5-11.8c27.8-3.6,52.5-19.7,67.1-43.7
		c2.9,4.6,4.8,9.8,5.7,15.4C2728.3,762,2707.1,776.1,2682.9,781.9z M2705.2,787.6c0.3-2.9,0.5-5.8,0.5-8.8c3.8-1.8,7.5-3.9,11.1-6.1
		c0.5,4.1,0.8,8.3,0.8,12.4C2713.7,786.5,2709.6,787.4,2705.2,787.6z"/>
</g>
<g>
	<g>
		<g>
			<path d="M3029.2,300.7l-27.3,13.6c-1.3,0.7-2.9,0.1-3.6-1.2c-0.7-1.3-0.1-2.9,1.2-3.6l27.3-13.6c5.5-2.8,7.8-9.5,5.1-15.1
				l-5.2-10.4l-95.1,47.3c-1.8,0.9-2.7,2.9-2.2,4.8l2.9,14.8c0.3,1.1,1.1,2.2,2.3,2.7s2.5,0.5,3.7-0.1l36.5-18.2
				c1.3-0.7,2.9-0.1,3.6,1.2c0.7,1.3,0.1,2.9-1.2,3.6l-36.5,18.2c-2.6,1.3-5.6,1.3-8.3,0.1c-2.7-1.2-4.6-3.6-5.3-6.4l-2.9-14.8
				c-1.1-4.3,1-8.7,5.1-10.7l97.5-48.5c1.3-0.7,2.9-0.1,3.6,1.2l6.4,12.8C3040.7,286.6,3037.4,296.6,3029.2,300.7z"/>
		</g>
		<g>
			<path d="M2981,384l-19.4,9.6c-2.8,1.4-5.9,1.4-8.7,0c-2.7-1.4-4.6-3.9-5.2-6.9l-6.6-46.1c-0.2-1.1,0.4-2.3,1.5-2.8l32.2-16
				c0.8-0.4,1.7-0.4,2.4,0c0.8,0.4,1.3,1.1,1.4,2l7.4,50.4C2986.7,378.1,2984.6,382.2,2981,384z M2946.7,341.7l6.3,44.1
				c0.2,1.3,1.1,2.4,2.3,3s2.7,0.6,3.9,0l19.4-9.6c1.5-0.8,2.4-2.5,2.1-4.2l-6.9-46.8L2946.7,341.7z"/>
		</g>
		<g>
			<path d="M2990.7,347.7l-9.8,4.8c-0.8,0.4-1.7,0.4-2.4,0c-0.8-0.4-1.3-1.1-1.4-2l-3.8-25.9c-0.2-1.1,0.4-2.3,1.5-2.8l24.8-12.3
				c1.3-0.7,2.9-0.1,3.6,1.2C3009.8,324.3,3004.3,340.9,2990.7,347.7z M2981.8,346.1l6.5-3.2c10.2-5.1,14.8-16.9,11.1-27.4
				l-20.5,10.2L2981.8,346.1z"/>
		</g>
	</g>
	<g>
		<path d="M2993.6,334.5c-0.2,0.1-0.4,0.2-0.6,0.2c-11.6,2.7-19.1-8.6-19.4-9.1c-0.8-1.2-0.4-2.9,0.8-3.7c1.2-0.8,2.9-0.4,3.7,0.8
			l0,0c0.1,0.1,5.8,8.6,13.7,6.8c1.4-0.3,2.9,0.6,3.2,2C2995.3,332.7,2994.7,333.9,2993.6,334.5z"/>
	</g>
</g>
<g>
	<g>
		<g>
			<path d="M2169,719.2l-27.3,13.6c-1.3,0.7-2.9,0.1-3.6-1.2s-0.1-2.9,1.2-3.6l27.3-13.6c5.5-2.8,7.8-9.5,5.1-15.1l-5.2-10.4
				l-95.1,47.3c-1.8,0.9-2.7,2.9-2.2,4.8l2.9,14.8c0.3,1.1,1.1,2.2,2.3,2.7c1.2,0.5,2.5,0.5,3.7-0.1l36.5-18.2
				c1.3-0.7,2.9-0.1,3.6,1.2s0.1,2.9-1.2,3.6l-36.5,18.2c-2.6,1.3-5.6,1.3-8.3,0.1s-4.6-3.6-5.3-6.4l-2.9-14.8
				c-1.1-4.3,1-8.7,5.1-10.7l97.5-48.5c1.3-0.7,2.9-0.1,3.6,1.2l6.4,12.8C2180.6,705.1,2177.2,715.1,2169,719.2z"/>
		</g>
		<g>
			<path d="M2120.8,802.5l-19.4,9.6c-2.8,1.4-5.9,1.4-8.7,0c-2.7-1.4-4.6-3.9-5.2-6.9l-6.6-46.1c-0.2-1.1,0.4-2.3,1.5-2.8l32.2-16
				c0.8-0.4,1.7-0.4,2.4,0c0.8,0.4,1.3,1.1,1.4,2l7.4,50.4C2126.5,796.6,2124.5,800.7,2120.8,802.5z M2086.5,760.2l6.3,44.1
				c0.2,1.3,1.1,2.4,2.3,3c1.2,0.6,2.7,0.6,3.9,0l19.4-9.6c1.5-0.8,2.4-2.5,2.1-4.2l-6.9-46.8L2086.5,760.2z"/>
		</g>
		<g>
			<path d="M2130.5,766.2l-9.8,4.8c-0.8,0.4-1.7,0.4-2.4,0c-0.8-0.4-1.3-1.1-1.4-2l-3.8-25.9c-0.2-1.1,0.4-2.3,1.5-2.8l24.8-12.3
				c1.3-0.7,2.9-0.1,3.6,1.2C2149.7,742.8,2144.1,759.4,2130.5,766.2z M2121.7,764.6l6.5-3.2c10.2-5.1,14.8-16.9,11.1-27.4
				l-20.5,10.2L2121.7,764.6z"/>
		</g>
	</g>
	<g>
		<path d="M2133.5,753c-0.2,0.1-0.4,0.2-0.6,0.2c-11.6,2.7-19.1-8.6-19.4-9.1c-0.8-1.2-0.4-2.9,0.8-3.7s2.9-0.4,3.7,0.8l0,0
			c0.1,0.1,5.8,8.6,13.7,6.8c1.4-0.3,2.9,0.6,3.2,2C2135.2,751.2,2134.6,752.4,2133.5,753z"/>
	</g>
</g>
<path class="st0" d="M1182.4,1107.5c-2.4-2.4-6.3-2.4-8.7-0.1c-1,1-2.1,1.9-3.2,2.8l0,0c-0.8,0.6-1.7,1.2-2.5,1.7l-21.9-21.6
	c0.3-0.4,0.5-0.8,0.8-1.3c0.1-0.2,0.3-0.4,0.4-0.6c1-1.3,2.1-2.5,3.2-3.7c2.4-2.4,2.5-6.2,0.1-8.7c-2.4-2.4-6.2-2.5-8.7-0.1
	c-1.9,1.8-3.6,3.8-5.1,5.9c-0.2,0.3-0.4,0.6-0.6,1c-6.7,9.9-6.9,19.9-5.5,29.2c-11.7-1.6-24.2-1.1-36.5,11
	c-12,11.8-12.3,24.3-10.6,35.9c-11.8-1.7-24.6-1.4-37,10.9c-2.4,2.4-2.4,6.3-0.1,8.7c1.2,1.2,2.8,1.8,4.4,1.8s3.1-0.6,4.3-1.8
	c1.8-1.8,3.7-3.3,5.5-4.4l22.1,21.7c-1.2,1.8-2.6,3.5-4.4,5.2c-2.4,2.4-2.5,6.3-0.1,8.7c1.2,1.2,2.8,1.8,4.4,1.8s3.1-0.6,4.3-1.8
	c12.1-11.8,12.9-24.5,11.6-35.9c11.6,1.6,24,1,36.2-11c12.3-12.1,12.8-24.4,11.2-35.9c10.2,1.4,21.2,1.2,32-7.1l0,0
	c1.5-1.2,3-2.4,4.4-3.8C1184.7,1113.8,1184.7,1109.9,1182.4,1107.5z M1133.1,1124.8c1.2,6.5,1.9,12.4,0.2,18l-18.7-18.3
	C1120.4,1122.9,1126.4,1123.6,1133.1,1124.8z M1067.3,1171.3c5.8-1.5,11.8-0.8,18.5,0.4c1.1,6.4,1.6,12.2-0.1,17.7L1067.3,1171.3z
	 M1096.4,1161.2c-1.2-6.6-1.9-12.6-0.5-18.2l18.6,18.3C1108.8,1163,1102.9,1162.4,1096.4,1161.2z M1121,1158.3l-22.2-21.8
	c1-1.6,2.3-3.2,4-4.8c1.8-1.7,3.5-3.1,5.3-4.2l22.2,21.7c-1.1,1.7-2.5,3.3-4.2,5C1124.4,1155.9,1122.7,1157.2,1121,1158.3z
	 M1143.5,1114.3c-1.1-6.2-1.8-11.9-0.4-17.4l18.1,17.8C1155.6,1116.1,1149.8,1115.4,1143.5,1114.3z"/>
<path class="st0" d="M268.3,1628.7c2.4-2.4,2.4-6.3-0.1-8.7c-1-1-2-2.1-2.8-3.2l0,0c-0.6-0.8-1.2-1.6-1.7-2.5l21.2-22.2
	c0.4,0.3,0.9,0.5,1.3,0.8c0.2,0.1,0.4,0.3,0.6,0.4c1.3,1,2.6,2,3.7,3.2c2.4,2.4,6.3,2.4,8.7,0c2.4-2.4,2.4-6.3,0-8.7
	c-1.8-1.8-3.9-3.5-6-5c-0.3-0.2-0.6-0.4-1-0.5c-10-6.6-20-6.6-29.2-5.1c1.5-11.7,0.7-24.2-11.5-36.4c-11.9-11.8-24.4-11.9-36.1-10.1
	c1.6-11.8,1-24.6-11.4-36.8c-2.4-2.4-6.3-2.4-8.7,0.1c-1.2,1.2-1.8,2.8-1.8,4.4s0.6,3.1,1.8,4.3c1.8,1.8,3.3,3.6,4.5,5.4l-21.4,22.4
	c-1.8-1.1-3.5-2.5-5.3-4.3c-2.4-2.4-6.3-2.4-8.7,0c-1.2,1.2-1.8,2.8-1.8,4.4s0.6,3.1,1.8,4.3c12,11.9,24.7,12.6,36.1,11
	c-1.4,11.6-0.6,24,11.5,36c12.2,12.1,24.6,12.5,36,10.7c-1.3,10.2-0.9,21.2,7.6,31.9l0,0c1.2,1.5,2.5,3,3.9,4.3
	C262,1631.2,265.9,1631.1,268.3,1628.7z M250.2,1579.7c-6.5,1.3-12.4,2.1-18,0.5l18-19C251.9,1567,251.3,1573,250.2,1579.7z
	 M202.8,1514.6c1.6,5.8,1,11.8-0.2,18.5c-6.4,1.2-12.1,1.8-17.7,0.2L202.8,1514.6z M213.3,1543.6c6.6-1.3,12.5-2.1,18.1-0.7
	l-18,18.9C211.7,1556,212.2,1550.1,213.3,1543.6z M216.5,1568.1l21.5-22.5c1.6,1,3.2,2.3,4.8,3.9c1.8,1.7,3.2,3.5,4.3,5.2
	l-21.4,22.5c-1.7-1.1-3.3-2.4-5-4.1C219,1571.5,217.6,1569.8,216.5,1568.1z M260.9,1590c6.2-1.2,11.9-2,17.4-0.6l-17.5,18.4
	C259.3,1602.1,259.9,1596.3,260.9,1590z"/>
<g>
	<path class="st0" d="M664.4,927.3c-19.5-0.2-35.8,30.7-30.3,39c1.9,2.9,6.9,3.6,7.1,3.7c5.2,0.7,7.8-2.6,17-4.5
		c2.1-0.6,4.2-0.9,6.4-0.9c7.5,0.3,9.9,5.4,18.4,7.9c3.4,1,8.8,2.7,11,0.7C699.9,967.4,686.4,927.5,664.4,927.3L664.4,927.3z"/>
	<path class="st0" d="M644.6,914c2.6,8.1-0.2,16.3-6.4,18.2c-6.2,1.9-13.3-3.1-15.9-11.3c-2.6-8.2,0.2-16.3,6.4-18.2
		C634.9,900.8,641.9,905.9,644.6,914z"/>
	<path class="st0" d="M671.2,894c1.2,11-3.3,20.5-10.2,21.2c-6.9,0.7-13.5-7.5-14.7-18.5s3.3-20.5,10.2-21.2
		C663.4,874.8,670,883,671.2,894z"/>
	<path class="st0" d="M699.4,903.5c-4.1,9.3-12.1,14.9-17.9,12.4s-7.3-12-3.2-21.3s12.1-14.9,17.9-12.4S703.4,894.2,699.4,903.5z"/>
	<path class="st0" d="M715,936.2c-5,8.5-13.7,12.8-19.5,9.5c-5.8-3.3-6.3-12.8-1.2-21.3s13.7-12.8,19.5-9.5S720.1,927.7,715,936.2z"
		/>
</g>
<g>
	<path class="st0" d="M72.4,1377.3c-19.5-0.2-35.8,30.7-30.3,39c1.9,2.9,6.9,3.6,7.1,3.7c5.2,0.7,7.8-2.6,17-4.5
		c2.1-0.6,4.2-0.9,6.4-0.9c7.5,0.3,9.9,5.4,18.4,7.9c3.4,1,8.8,2.7,11,0.7C107.9,1417.4,94.4,1377.5,72.4,1377.3L72.4,1377.3z"/>
	<path class="st0" d="M52.6,1364c2.6,8.1-0.2,16.3-6.4,18.2s-13.3-3.1-15.9-11.3c-2.6-8.2,0.2-16.3,6.4-18.2S49.9,1355.9,52.6,1364z
		"/>
	<path class="st0" d="M79.2,1344c1.2,11-3.3,20.5-10.2,21.2c-6.9,0.7-13.5-7.5-14.7-18.5s3.3-20.5,10.2-21.2
		C71.4,1324.8,78,1333,79.2,1344z"/>
	<path class="st0" d="M107.4,1353.5c-4.1,9.3-12.1,14.9-17.9,12.4s-7.3-12-3.2-21.3c4.1-9.3,12.1-14.9,17.9-12.4
		S111.4,1344.2,107.4,1353.5z"/>
	<path class="st0" d="M123,1386.2c-5,8.5-13.7,12.8-19.5,9.5c-5.8-3.3-6.3-12.8-1.2-21.3s13.7-12.8,19.5-9.5
		C127.6,1368.2,128.1,1377.7,123,1386.2z"/>
</g>
<g>
	<g>
		<path class="st0" d="M1223.6,919.8c-1.5,0-3.1-0.6-4.3-1.8l-2.6-2.6l-2.6,2.6c-2.4,2.4-6.2,2.3-8.6,0c-2.4-2.4-2.3-6.2,0-8.6
			l2.6-2.6l-2.6-2.6c-2.4-2.4-2.4-6.2,0-8.6c2.4-2.4,6.2-2.4,8.6,0l2.6,2.6l2.6-2.6c2.4-2.4,6.2-2.3,8.6,0c2.4,2.4,2.3,6.2,0,8.6
			l-2.6,2.6l2.6,2.6c2.4,2.4,2.4,6.2,0,8.6C1226.8,919.2,1225.2,919.8,1223.6,919.8z"/>
	</g>
	<g>
		<path class="st0" d="M1221.6,957.1c-1.8,0-3.6-0.8-4.8-2.3c-2.1-2.7-1.7-6.6,0.9-8.7c5.6-4.6,11.4-3.3,15.3-2.4
			c3.3,0.7,4,0.7,4.9,0c0.9-0.8,1.1-1.4,1-4.8c0-3.9-0.1-9.9,5.6-14.5c5.7-4.7,11.5-3.4,15.4-2.5c3.5,0.8,4,0.7,4.8,0
			c0.9-0.8,1.1-1.4,1-4.8c0-3.9-0.1-9.9,5.6-14.5c5.7-4.7,11.5-3.4,15.4-2.5c3.5,0.8,4,0.7,4.8,0c0.9-0.8,1.1-1.4,1-4.8
			c0-3.9,0-9.9,5.7-14.5c2.7-2.2,6.6-1.7,8.7,0.9c2.1,2.7,1.7,6.6-0.9,8.7c-0.9,0.8-1.1,1.4-1.1,4.9c0,3.9,0,9.8-5.6,14.4
			c-5.7,4.7-11.5,3.4-15.4,2.5c-3.5-0.8-4-0.7-4.8,0c-0.9,0.8-1.1,1.4-1,4.8c0,3.9,0.1,9.9-5.6,14.5c-5.7,4.7-11.5,3.4-15.4,2.5
			c-3.5-0.8-4-0.7-4.8,0c-0.9,0.8-1.1,1.4-1,4.8c0,3.9,0.1,9.9-5.6,14.5c-5.7,4.7-11.5,3.4-15.4,2.5c-3.3-0.7-4-0.7-4.9,0
			C1224.4,956.6,1223,957.1,1221.6,957.1z"/>
	</g>
	<g>
		<path class="st0" d="M1319.5,970.3c-12.7,0-23.1-10.3-23.1-23.1c0-12.8,10.3-23.1,23.1-23.1s23.1,10.3,23.1,23.1
			S1332.3,970.3,1319.5,970.3z M1319.5,937.5c-5.4,0-9.7,4.4-9.7,9.7c0,5.4,4.4,9.7,9.7,9.7s9.7-4.4,9.7-9.7
			C1329.3,941.9,1324.9,937.5,1319.5,937.5z"/>
	</g>
</g>
<g>
	<g>
		<path class="st0" d="M949.6,1380.3c-1.5,0-3.1-0.6-4.3-1.8l-2.6-2.6l-2.6,2.6c-2.4,2.4-6.2,2.3-8.6,0c-2.4-2.4-2.3-6.2,0-8.6
			l2.6-2.6l-2.6-2.6c-2.4-2.4-2.4-6.2,0-8.6s6.2-2.4,8.6,0l2.6,2.6l2.6-2.6c2.4-2.4,6.2-2.3,8.6,0c2.4,2.4,2.3,6.2,0,8.6l-2.6,2.6
			l2.6,2.6c2.4,2.4,2.4,6.2,0,8.6C952.8,1379.7,951.2,1380.3,949.6,1380.3z"/>
	</g>
	<g>
		<path class="st0" d="M947.6,1417.6c-1.8,0-3.6-0.8-4.8-2.3c-2.1-2.7-1.7-6.6,0.9-8.7c5.6-4.6,11.4-3.3,15.3-2.4
			c3.3,0.7,4,0.7,4.9,0c0.9-0.8,1.1-1.4,1-4.8c0-3.9-0.1-9.9,5.6-14.5c5.7-4.7,11.5-3.4,15.4-2.5c3.5,0.8,4,0.7,4.8,0
			c0.9-0.8,1.1-1.4,1-4.8c0-3.9-0.1-9.9,5.6-14.5c5.7-4.7,11.5-3.4,15.4-2.5c3.5,0.8,4,0.7,4.8,0c0.9-0.8,1.1-1.4,1-4.8
			c0-3.9,0-9.9,5.7-14.5c2.7-2.2,6.6-1.7,8.7,0.9c2.1,2.7,1.7,6.6-0.9,8.7c-0.9,0.8-1.1,1.4-1.1,4.9c0,3.9,0,9.8-5.6,14.4
			c-5.7,4.7-11.5,3.4-15.4,2.5c-3.5-0.8-4-0.7-4.8,0c-0.9,0.8-1.1,1.4-1,4.8c0,3.9,0.1,9.9-5.6,14.5c-5.7,4.7-11.5,3.4-15.4,2.5
			c-3.5-0.8-4-0.7-4.8,0c-0.9,0.8-1.1,1.4-1,4.8c0,3.9,0.1,9.9-5.6,14.5c-5.7,4.7-11.5,3.4-15.4,2.5c-3.3-0.7-4-0.7-4.9,0
			C950.4,1417.1,949,1417.6,947.6,1417.6z"/>
	</g>
	<g>
		<path class="st0" d="M1045.5,1430.8c-12.7,0-23.1-10.3-23.1-23.1c0-12.8,10.3-23.1,23.1-23.1s23.1,10.3,23.1,23.1
			C1068.6,1420.5,1058.3,1430.8,1045.5,1430.8z M1045.5,1398c-5.4,0-9.7,4.4-9.7,9.7c0,5.4,4.4,9.7,9.7,9.7s9.7-4.4,9.7-9.7
			C1055.3,1402.4,1050.9,1398,1045.5,1398z"/>
	</g>
</g>
<g>
	<g>
		<path class="st0" d="M465.5,1137.9c-1.5,0-3.1-0.6-4.3-1.8l-2.6-2.6l-2.6,2.6c-2.4,2.4-6.2,2.3-8.6,0c-2.4-2.4-2.3-6.2,0-8.6
			l2.6-2.6l-2.6-2.6c-2.4-2.4-2.4-6.2,0-8.6c2.4-2.4,6.2-2.4,8.6,0l2.6,2.6l2.6-2.6c2.4-2.4,6.2-2.3,8.6,0c2.4,2.4,2.3,6.2,0,8.6
			l-2.6,2.6l2.6,2.6c2.4,2.4,2.4,6.2,0,8.6C468.6,1137.3,467,1137.9,465.5,1137.9z"/>
	</g>
	<g>
		<path class="st0" d="M463.5,1175.2c-1.8,0-3.6-0.8-4.8-2.3c-2.1-2.7-1.7-6.6,0.9-8.7c5.6-4.6,11.4-3.3,15.3-2.4
			c3.3,0.7,4,0.7,4.9,0c0.9-0.8,1.1-1.4,1-4.8c0-3.9-0.1-9.9,5.6-14.5c5.7-4.7,11.5-3.4,15.4-2.5c3.5,0.8,4,0.7,4.8,0
			c0.9-0.8,1.1-1.4,1-4.8c0-3.9-0.1-9.9,5.6-14.5c5.7-4.7,11.5-3.4,15.4-2.5c3.5,0.8,4,0.7,4.8,0c0.9-0.8,1.1-1.4,1-4.8
			c0-3.9,0-9.9,5.7-14.5c2.7-2.2,6.6-1.7,8.7,0.9c2.1,2.7,1.7,6.6-0.9,8.7c-0.9,0.8-1.1,1.4-1.1,4.9c0,3.9,0,9.8-5.6,14.4
			c-5.7,4.7-11.5,3.4-15.4,2.5c-3.5-0.8-4-0.7-4.8,0c-0.9,0.8-1.1,1.4-1,4.8c0,3.9,0.1,9.9-5.6,14.5c-5.7,4.7-11.5,3.4-15.4,2.5
			c-3.5-0.8-4-0.7-4.8,0c-0.9,0.8-1.1,1.4-1,4.8c0,3.9,0.1,9.9-5.6,14.5c-5.7,4.7-11.5,3.4-15.4,2.5c-3.3-0.7-4-0.7-4.9,0
			C466.2,1174.7,464.8,1175.2,463.5,1175.2z"/>
	</g>
	<g>
		<path class="st0" d="M561.4,1188.4c-12.7,0-23.1-10.3-23.1-23.1s10.3-23.1,23.1-23.1s23.1,10.3,23.1,23.1
			S574.1,1188.4,561.4,1188.4z M561.4,1155.6c-5.4,0-9.7,4.4-9.7,9.7c0,5.4,4.4,9.7,9.7,9.7s9.7-4.4,9.7-9.7
			C571.1,1160,566.7,1155.6,561.4,1155.6z"/>
	</g>
</g>
<g>
	<path class="st0" d="M267.9,1145.8c2.3,7,1.1,14.7-3.4,20.6l-29.9,37c-0.5,0.7-1.5,0.9-2.3,0.5l-42.4-21.6h-0.1
		c-11-5.8-15.1-19.5-9.3-30.4c2.9-5.4,7.8-9.4,13.7-11.1c11.9-3.7,24.6,2.8,28.7,14.7c-1.3-12.4,7.6-23.5,20-25
		C253.8,1128.9,264.3,1135.3,267.9,1145.8L267.9,1145.8z M163.8,1105.7c1.7,2.4,2.1,5.5,1.1,8.3l-7.1,17.5c-0.1,0.3-0.4,0.6-0.8,0.5
		c0,0,0,0-0.1,0l-18.8-3.5c-2.8-0.6-5.1-2.4-6.4-4.9c-2-4.1-0.6-9,3.2-11.5c4.2-2.8,9.8-1.7,12.7,2.4c-2-4.6,0.2-9.9,4.7-11.9
		c0,0,0,0,0.1,0C156.5,1100.8,161.2,1102.1,163.8,1105.7L163.8,1105.7z M217.9,1107.2c0.4,2.4-0.4,4.9-2.2,6.5l-11.7,10.7
		c-0.2,0.2-0.6,0.3-0.8,0l0,0l-12.7-9.2c-1.8-1.4-2.9-3.6-3-5.9c0-4.2,3.4-7.7,7.6-7.7c3.8,0,7,2.7,7.6,6.5c0.2-4.2,3.7-7.5,8-7.3
		C214.3,1100.9,217.3,1103.6,217.9,1107.2z M250.2,1090.5c-0.2,1.8-1.3,3.4-3,4.2l-10.6,5.1c-0.2,0.1-0.4,0.1-0.6-0.1l-7-9.2
		c-1-1.4-1.3-3.2-0.8-4.8c0.9-2.6,3.5-4.3,6.3-3.9c3,0.4,5.2,3.2,4.8,6.3c1.1-2.9,4.3-4.4,7.2-3.4
		C249,1085.6,250.5,1088,250.2,1090.5L250.2,1090.5z"/>
</g>
<g>
	<path class="st0" d="M319.9,884.7h37.9v79.7h-0.6c-17.7-23.5-24.4-51.1-26.6-62.1h14.1v-8.8h-24.2l0.6,4.9
		c0.2,1.6,5.2,40.9,30.2,73.4l1.4,1.6l13.9,0.2V876h-46.8v8.7H319.9z"/>
	<path class="st0" d="M370.1,973.4l13.9-0.2l1.4-1.6c25-32.3,30-71.5,30.2-73.4l0.6-4.9h-24.4v9H406c-2,11-8.9,38.6-26.4,62.3H379
		v-79.7h37.7v-9h-46.6V973.4z"/>
</g>
<g>
	<path class="st0" d="M1247.9,1348.7h37.9v79.7h-0.6c-17.7-23.5-24.4-51.1-26.6-62.1h14.1v-8.8h-24.2l0.6,4.9
		c0.2,1.6,5.2,40.9,30.2,73.4l1.4,1.6l13.9,0.2v-97.7h-46.8L1247.9,1348.7L1247.9,1348.7z"/>
	<path class="st0" d="M1298.1,1437.4l13.9-0.2l1.4-1.6c25-32.3,30-71.5,30.2-73.4l0.6-4.9h-24.4v9h14.1c-2,11-8.9,38.6-26.4,62.3
		h-0.6v-79.7h37.7v-9H1298v97.5H1298.1z"/>
</g>
<g>
	<path class="st0" d="M764.6,1102.7h38v80H802c-17.8-23.6-24.5-51.3-26.7-62.3h14.2v-8.8h-24.3l0.6,4.9c0.2,1.6,5.3,41,30.3,73.6
		l1.4,1.6l14,0.2v-98h-46.9V1102.7z"/>
	<path class="st0" d="M815,1191.7l14-0.2l1.4-1.6c25.1-32.4,30.1-71.8,30.3-73.6l0.6-4.9h-24.5v9H851c-2,11.1-8.9,38.8-26.5,62.5
		h-0.6v-80h37.8v-9H815V1191.7z"/>
</g>
<g>
	<path class="st1" d="M794,1616l28.5-36.2c1.9-2.4,3.6-3.7,5.4-4c19.9,12.1,42.5,9.2,56.4-8.4c14.9-19.4,10.6-45.1-10.2-61.4
		c-21.4-16.8-47.4-15.7-63,4.1c-13.7,17.4-11.3,39.9,5.3,56.6c0.2,1.8-0.7,3.7-2.6,6.2l-28.5,36.2c-3.8,4.9-5.5,4.9-9.9,2.3l-1.6,2
		l19,14.9l1.6-2C790.4,1622.7,790,1621.1,794,1616z M817.6,1515c13.2-16.8,37.2-19.8,53.8-6.8s19.3,37.1,6.1,53.9
		c-13.2,16.8-37.2,19.8-53.8,6.8C807.3,1556,804.4,1531.8,817.6,1515z"/>
	<path class="st1" d="M843.2,1563.3c0,0,14.7-5.1,6.3-22.8c0,0-7.8-14.7-24.3-2.4c0,0-4.7,4.8,2,8.1c0,0,6.4,0.1,8.2,5.2
		c0,0,1.4,4-0.7,8.6C834.7,1560.2,833.5,1567.5,843.2,1563.3z"/>
	<path class="st1" d="M857.1,1542.4c1.8,3.4,6.8,4.1,10.9,1.7c4.1-2.3,6.3-6.8,4.5-10.2s-6.7-5.9-10.9-1.7
		C858.1,1535.8,855.4,1539.2,857.1,1542.4z"/>
	<path class="st1" d="M847.8,1530.9c2.4,3.2,7.9,2.6,11.8,0.1c4.4-2.7,5.8-8.2,3.7-11.2s-7.5-3.2-11.8-0.1
		C847,1522.8,845.4,1527.7,847.8,1530.9z"/>
	<path class="st1" d="M842.3,1527.9c3.2-2.4,4-6.3,2.4-9.2c-1.6-3.3-6.1-2.9-9.5-0.6c-3.2,2.4-3.3,5.9-2.4,9.2
		C833.5,1530.5,839,1530.2,842.3,1527.9z"/>
	<path class="st1" d="M858.1,1549.8c-3.2,2.4-5.2,7.4-2.4,9.2c2.8,1.8,6.1,2.9,9.5,0.6c3.2-2.4,5.1-6.8,2.4-9.2
		C865.3,1548,861.6,1547.3,858.1,1549.8z"/>
</g>
<g>
	<path class="st1" d="M107.7,969.9l-23.1-34.4c-1.5-2.3-2.2-4.1-1.9-5.7c15.8-13.7,19.6-33.8,8.4-50.5
		c-12.4-18.1-35.6-21.5-55.3-8.3c-20.3,13.6-26.6,36.3-13.9,55.1c11.1,16.5,31,20.7,49.8,11.1c1.6,0.3,3,1.6,4.6,3.9l23.1,34.4
		c3.1,4.6,2.7,6-0.7,9.1l1.3,1.9l18-12.1l-1.3-1.9C112.4,974.9,111,974.7,107.7,969.9z M27.8,921.8c-10.7-16-6.7-37.4,9.1-47.9
		c15.7-10.6,37.1-6.2,47.8,9.7c10.7,16,6.7,37.4-9.1,47.9C60.1,942,38.5,937.8,27.8,921.8z"/>
	<path class="st1" d="M76.3,913.3c0,0-0.3-14-17.8-11.8c0,0-14.7,2.6-8.8,20.1c0,0,2.8,5.4,7.5,0.5c0,0,1.9-5.4,6.7-5.6
		c0,0,3.8-0.1,7.2,3C71.2,919.7,77.1,922.7,76.3,913.3z"/>
	<path class="st1" d="M62.2,895.6c3.4-0.6,5.4-4.7,4.5-8.9c-0.9-4.2-4.1-7.3-7.5-6.7c-3.4,0.6-6.9,4.1-4.5,8.9
		C56.8,892.9,59,896.1,62.2,895.6z"/>
	<path class="st1" d="M49.8,900.4c3.4-1.1,4.5-6.1,3.4-10.1c-1.1-4.5-5.4-7.2-8.6-6.2s-4.8,5.5-3.4,10.1
		C42.6,898.8,46.4,901.5,49.8,900.4z"/>
	<path class="st1" d="M45.7,904.2c-1.2-3.4-4.3-5.2-7.2-4.6c-3.2,0.5-4.2,4.5-3.2,8c1.2,3.4,4.1,4.5,7.2,4.6
		C45.5,912.5,46.7,907.8,45.7,904.2z"/>
	<path class="st1" d="M68.8,896.8c1.2,3.4,4.9,6.5,7.2,4.6c2.3-1.8,4.2-4.5,3.2-8c-1.2-3.3-4.5-6.2-7.2-4.6
		C69.2,890.1,67.7,893.1,68.8,896.8z"/>
</g>
<g>
	<path class="st0" d="M1010.7,921c0.8,1.3,0.4,2.9-0.9,3.7l-0.1,0.1l-36.8,20.3c-0.8,0.5-1.9,0.5-2.7,0l-36.7-20.4
		c-1.3-0.7-1.8-2.4-1.1-3.7l0.1-0.1l36.8-59.6c0.8-1.3,2.6-1.7,3.9-0.8c0.3,0.2,0.6,0.5,0.8,0.8L1010.7,921z"/>
	<path class="st0" d="M1001.2,942.4c1.3-0.8,2.9-0.4,3.7,0.9c0.6,0.9,0.5,2.2-0.1,3l-30.9,42.1c-0.9,1.2-2.7,1.5-3.9,0.6
		c-0.2-0.2-0.4-0.4-0.6-0.6l-30.9-42.1c-0.9-1.2-0.6-2.9,0.6-3.8c0.9-0.7,2.1-0.7,3-0.1l28.2,15.8c0.8,0.5,1.9,0.5,2.7,0
		L1001.2,942.4z"/>
</g>
<g>
	<path class="st0" d="M723.5,1371.7c0.8,1.3,0.4,2.9-0.9,3.7l-0.1,0.1l-36.8,20.3c-0.8,0.5-1.9,0.5-2.7,0l-36.7-20.4
		c-1.3-0.7-1.8-2.4-1.1-3.7l0.1-0.1l36.8-59.6c0.8-1.3,2.6-1.7,3.9-0.8c0.3,0.2,0.6,0.5,0.8,0.8L723.5,1371.7z"/>
	<path class="st0" d="M714,1393.1c1.3-0.8,2.9-0.4,3.7,0.9c0.6,0.9,0.5,2.2-0.1,3l-30.9,42.1c-0.9,1.2-2.7,1.5-3.9,0.6
		c-0.2-0.2-0.4-0.4-0.6-0.6l-30.9-42.1c-0.9-1.2-0.6-2.9,0.6-3.8c0.9-0.7,2.1-0.7,3-0.1l28.2,15.8c0.8,0.5,1.9,0.5,2.7,0L714,1393.1
		z"/>
</g>
<g transform="translate(0,-952.36218)">
	<path d="M1440,2472.5c15.3,6.4,26.9,22.6,36.6,39.7c1.7-1.1,3.6-1.9,5.5-2.4c3.4-0.7,7.4-0.4,9.5,1.9c2.4,3.4,1.8,7.5,0.8,10.9
		c-1,3.5-3,7.2-5.8,10.4c0.5,4.6,2.1,10,2.2,14.9c0.1,2.6-0.3,5.5-2.6,7.6c-3,2.3-6.8,2.8-9.9,1.7l-80.3-33.4
		c-4.9-2-8.6-6.6-11.2-11.3c-1.9-3.4-3-6.8-3.4-10.4c-8.1-2.7-13.5-5.7-16.9-9.1c-3.5-3.5-4.7-8-3.2-11.5c2.7-4.8,7.9-5.9,12.7-5.8
		c5,0.4,10,1.4,14.8,3.3c1.5,0.7,2.3,2.8,1.5,4.3c-0.7,1.5-2.8,2.3-4.3,1.5c-3.3-1.4-8.2-2.6-12.2-2.7c-2.5,0-4.9,0.2-6.6,1.8
		c-0.4,0.9-0.5,2.2,1.9,4.5c2.2,2.2,6.7,5,14.1,7.5c4.7-9.2,12.8-16.9,22.4-21.6C1416.1,2469.2,1428.5,2467.7,1440,2472.5z
		 M1437.5,2478.4c-9.4-3.9-19.9-2.7-29.1,1.8s-16.9,12.3-20.6,21.1c0,2.8,1.2,5.8,2.5,8.1c2.1,3.8,5.6,7.4,8.1,8.5l79.9,33.2
		c2.4,0.6,3.4-0.1,3.6-0.2c0.2-0.2,0.5-0.9,0.5-2.7c-0.1-3.6-2-9.7-2.4-15.7c-0.1-0.9,0.3-1.8,0.9-2.5c2.6-2.6,4.5-6.2,5.3-9.1
		c0.6-1.7,0.6-3.2,0.4-4.9c-1-0.3-2.3-0.1-3.2,0.1c-2.1,0.5-4.4,1.8-5.4,3c-1.3,1.5-4.2,1.2-5.2-0.5
		C1463,2500.6,1451,2484,1437.5,2478.4z M1471,2527.1c1.6,0.7,2.4,2.6,1.7,4.2c-0.7,1.6-2.6,2.4-4.2,1.7c-1.6-0.7-2.4-2.6-1.7-4.2
		C1467.5,2527.2,1469.4,2526.5,1471,2527.1z"/>
</g>
<g transform="translate(0,-952.36218)">
	<path d="M410,2300.5c15.3,6.4,26.9,22.6,36.6,39.7c1.7-1.1,3.6-1.9,5.5-2.4c3.4-0.7,7.4-0.4,9.5,1.9c2.4,3.4,1.8,7.5,0.8,10.9
		c-1,3.5-3,7.2-5.8,10.4c0.5,4.6,2.1,10,2.2,14.9c0.1,2.6-0.3,5.5-2.6,7.6c-3,2.3-6.8,2.8-9.9,1.7l-80.3-33.4
		c-4.9-2-8.6-6.6-11.2-11.3c-1.9-3.4-3-6.8-3.4-10.4c-8.1-2.7-13.5-5.7-16.9-9.1c-3.5-3.5-4.7-8-3.2-11.5c2.7-4.8,7.9-5.9,12.7-5.8
		c5,0.4,10,1.4,14.8,3.3c1.5,0.7,2.3,2.8,1.5,4.3c-0.7,1.5-2.8,2.3-4.3,1.5c-3.3-1.4-8.2-2.6-12.2-2.7c-2.5,0-4.9,0.2-6.6,1.8
		c-0.4,0.9-0.5,2.2,1.9,4.5c2.2,2.2,6.7,5,14.1,7.5c4.7-9.2,12.8-16.9,22.4-21.6C386.1,2297.2,398.5,2295.7,410,2300.5z
		 M407.5,2306.4c-9.4-3.9-19.9-2.7-29.1,1.8s-16.9,12.3-20.6,21.1c0,2.8,1.2,5.8,2.5,8.1c2.1,3.8,5.6,7.4,8.1,8.5l79.9,33.2
		c2.4,0.6,3.4-0.1,3.6-0.2c0.2-0.2,0.5-0.9,0.5-2.7c-0.1-3.6-2-9.7-2.4-15.7c-0.1-0.9,0.3-1.8,0.9-2.5c2.6-2.6,4.5-6.2,5.3-9.1
		c0.6-1.7,0.6-3.2,0.4-4.9c-1-0.3-2.3-0.1-3.2,0.1c-2.1,0.5-4.4,1.8-5.4,3c-1.3,1.5-4.2,1.2-5.2-0.5
		C433,2328.6,421,2312,407.5,2306.4z M441,2355.1c1.6,0.7,2.4,2.6,1.7,4.2c-0.7,1.6-2.6,2.4-4.2,1.7c-1.6-0.7-2.4-2.6-1.7-4.2
		C437.5,2355.2,439.4,2354.5,441,2355.1z"/>
</g>
<g>
	<path d="M1201.6,1592.9c-7.3-3.2-12.9,0.3-18.4,3.6c-5.5,3.4-10.7,6.6-18.1,3.8c13.6-7.7,22.9-22.3,22.9-39
		c0-24.7-20.1-44.7-44.7-44.7s-44.7,20.1-44.7,44.7c0,24.7,20.1,44.7,44.7,44.7c5.8,0,11.3-1.1,16.4-3.1c4.1,2.2,7.7,3.1,10.9,3.1
		c6.1,0,10.9-3,15.1-5.6c5.6-3.4,9.2-5.4,14-3.3c1.2,0.5,2.6,0,3.1-1.2C1203.3,1594.8,1202.8,1593.4,1201.6,1592.9z M1162.1,1596.7
		c-0.1-4.4-0.5-8.8-1.1-13.2c3.1-2.2,6.1-4.5,9-7c0.9,4.2,1.6,8.5,2,12.7C1169.1,1592.2,1165.7,1594.7,1162.1,1596.7z
		 M1176.1,1584.2c-0.5-3.8-1.2-7.6-2.1-11.3c3.3-3.2,6.4-6.6,9.3-10.2C1183,1570.7,1180.4,1578.1,1176.1,1584.2z M1143.3,1521.3
		c5.6,0,10.9,1.2,15.8,3.2c-1.8,3.2-3.8,6.2-6,9c-3.8-4.4-8-8.5-12.4-12.2C1141.5,1521.3,1142.4,1521.3,1143.3,1521.3z
		 M1134.4,1522.3c5.7,4.4,10.9,9.4,15.7,14.9c-3,3.3-6.2,6.3-9.7,9c-5.8-6.8-12.4-12.9-19.5-18
		C1124.9,1525.4,1129.5,1523.4,1134.4,1522.3z M1116.9,1531.2c7.2,5,13.8,11,19.6,17.8c-3.8,2.5-7.9,4.6-12.1,6.4
		c-4.8-5.3-10-10-15.7-14.2C1110.9,1537.3,1113.7,1534,1116.9,1531.2z M1106.6,1545.3c4.6,3.5,9,7.4,13.1,11.7
		c-5.3,1.7-10.7,2.8-16.4,3.2C1103.4,1554.9,1104.6,1549.9,1106.6,1545.3z M1103.4,1564.9L1103.4,1564.9c0.1,0,0.1,0,0.2,0
		c25.2-1.8,47.5-16.1,59.7-38.2c4.2,2.4,8,5.6,11.1,9.4c-14,24.3-38.8,40.5-66.7,43.5C1105.3,1575.1,1103.8,1570.1,1103.4,1564.9z
		 M1140.3,1601.3c-3.9-0.3-7.6-1.1-11.1-2.4c3.9-1.2,7.8-2.5,11.6-4.1C1140.7,1596.9,1140.5,1599.1,1140.3,1601.3z M1122.7,1595.7
		c-5-3-9.3-7-12.5-11.8c27.8-3.6,52.5-19.7,67.1-43.7c2.9,4.6,4.8,9.8,5.7,15.4C1168.1,1575.8,1146.9,1589.9,1122.7,1595.7z
		 M1145,1601.4c0.3-2.9,0.5-5.8,0.5-8.8c3.8-1.8,7.5-3.9,11.1-6.1c0.5,4.1,0.8,8.3,0.8,12.4
		C1153.5,1600.3,1149.4,1601.2,1145,1601.4z"/>
</g>
<g>
	<g>
		<g>
			<path d="M1469,1114.5l-27.3,13.6c-1.3,0.7-2.9,0.1-3.6-1.2c-0.7-1.3-0.1-2.9,1.2-3.6l27.3-13.6c5.5-2.8,7.8-9.5,5.1-15.1
				l-5.2-10.4l-95.1,47.3c-1.8,0.9-2.7,2.9-2.2,4.8l2.9,14.8c0.3,1.1,1.1,2.2,2.3,2.7c1.2,0.5,2.5,0.5,3.7-0.1l36.5-18.2
				c1.3-0.7,2.9-0.1,3.6,1.2c0.7,1.3,0.1,2.9-1.2,3.6l-36.5,18.2c-2.6,1.3-5.6,1.3-8.3,0.1c-2.7-1.2-4.6-3.6-5.3-6.4l-2.9-14.8
				c-1.1-4.3,1-8.7,5.1-10.7l97.5-48.5c1.3-0.7,2.9-0.1,3.6,1.2l6.4,12.8C1480.5,1100.4,1477.2,1110.4,1469,1114.5z"/>
		</g>
		<g>
			<path d="M1420.8,1197.8l-19.4,9.6c-2.8,1.4-5.9,1.4-8.7,0c-2.7-1.4-4.6-3.9-5.2-6.9l-6.6-46.1c-0.2-1.1,0.4-2.3,1.5-2.8l32.2-16
				c0.8-0.4,1.7-0.4,2.4,0c0.8,0.4,1.3,1.1,1.4,2l7.4,50.4C1426.5,1191.9,1424.4,1196,1420.8,1197.8z M1386.5,1155.5l6.3,44.1
				c0.2,1.3,1.1,2.4,2.3,3c1.2,0.6,2.7,0.6,3.9,0l19.4-9.6c1.5-0.8,2.4-2.5,2.1-4.2l-6.9-46.8L1386.5,1155.5z"/>
		</g>
		<g>
			<path d="M1430.5,1161.5l-9.8,4.8c-0.8,0.4-1.7,0.4-2.4,0c-0.8-0.4-1.3-1.1-1.4-2l-3.8-25.9c-0.2-1.1,0.4-2.3,1.5-2.8l24.8-12.3
				c1.3-0.7,2.9-0.1,3.6,1.2C1449.6,1138.1,1444.1,1154.7,1430.5,1161.5z M1421.6,1159.9l6.5-3.2c10.2-5.1,14.8-16.9,11.1-27.4
				l-20.5,10.2L1421.6,1159.9z"/>
		</g>
	</g>
	<g>
		<path d="M1433.4,1148.3c-0.2,0.1-0.4,0.2-0.6,0.2c-11.6,2.7-19.1-8.6-19.4-9.1c-0.8-1.2-0.4-2.9,0.8-3.7c1.2-0.8,2.9-0.4,3.7,0.8
			l0,0c0.1,0.1,5.8,8.6,13.7,6.8c1.4-0.3,2.9,0.6,3.2,2C1435.1,1146.5,1434.5,1147.7,1433.4,1148.3z"/>
	</g>
</g>
<g>
	<g>
		<g>
			<path d="M608.8,1533l-27.3,13.6c-1.3,0.7-2.9,0.1-3.6-1.2c-0.7-1.3-0.1-2.9,1.2-3.6l27.3-13.6c5.5-2.8,7.8-9.5,5.1-15.1
				l-5.2-10.4l-95.1,47.3c-1.8,0.9-2.7,2.9-2.2,4.8l2.9,14.8c0.3,1.1,1.1,2.2,2.3,2.7s2.5,0.5,3.7-0.1l36.5-18.2
				c1.3-0.7,2.9-0.1,3.6,1.2c0.7,1.3,0.1,2.9-1.2,3.6l-36.5,18.2c-2.6,1.3-5.6,1.3-8.3,0.1c-2.7-1.2-4.6-3.6-5.3-6.4l-2.9-14.8
				c-1.1-4.3,1-8.7,5.1-10.7l97.5-48.5c1.3-0.7,2.9-0.1,3.6,1.2l6.4,12.8C620.4,1518.9,617,1528.9,608.8,1533z"/>
		</g>
		<g>
			<path d="M560.6,1616.3l-19.4,9.6c-2.8,1.4-5.9,1.4-8.7,0c-2.7-1.4-4.6-3.9-5.2-6.9l-6.6-46.1c-0.2-1.1,0.4-2.3,1.5-2.8l32.2-16
				c0.8-0.4,1.7-0.4,2.4,0c0.8,0.4,1.3,1.1,1.4,2l7.4,50.4C566.3,1610.4,564.3,1614.5,560.6,1616.3z M526.3,1574l6.3,44.1
				c0.2,1.3,1.1,2.4,2.3,3s2.7,0.6,3.9,0l19.4-9.6c1.5-0.8,2.4-2.5,2.1-4.2l-6.9-46.8L526.3,1574z"/>
		</g>
		<g>
			<path d="M570.3,1580l-9.8,4.8c-0.8,0.4-1.7,0.4-2.4,0c-0.8-0.4-1.3-1.1-1.4-2l-3.8-25.9c-0.2-1.1,0.4-2.3,1.5-2.8l24.8-12.3
				c1.3-0.7,2.9-0.1,3.6,1.2C589.5,1556.6,583.9,1573.2,570.3,1580z M561.5,1578.4l6.5-3.2c10.2-5.1,14.8-16.9,11.1-27.4l-20.5,10.2
				L561.5,1578.4z"/>
		</g>
	</g>
	<g>
		<path d="M573.3,1566.8c-0.2,0.1-0.4,0.2-0.6,0.2c-11.6,2.7-19.1-8.6-19.4-9.1c-0.8-1.2-0.4-2.9,0.8-3.7c1.2-0.8,2.9-0.4,3.7,0.8
			l0,0c0.1,0.1,5.8,8.6,13.7,6.8c1.4-0.3,2.9,0.6,3.2,2C575,1565,574.4,1566.2,573.3,1566.8z"/>
	</g>
</g>
<path class="st0" d="M2742.6,1107.5c-2.4-2.4-6.3-2.4-8.7-0.1c-1,1-2.1,1.9-3.2,2.8l0,0c-0.8,0.6-1.7,1.2-2.5,1.7l-21.9-21.6
	c0.3-0.4,0.5-0.8,0.8-1.3c0.1-0.2,0.3-0.4,0.4-0.6c1-1.3,2.1-2.5,3.2-3.7c2.4-2.4,2.5-6.2,0.1-8.7c-2.4-2.4-6.2-2.5-8.7-0.1
	c-1.9,1.8-3.6,3.8-5.1,5.9c-0.2,0.3-0.4,0.6-0.6,1c-6.7,9.9-6.9,19.9-5.5,29.2c-11.7-1.6-24.2-1.1-36.5,11
	c-12,11.8-12.3,24.3-10.6,35.9c-11.8-1.7-24.6-1.4-37,10.9c-2.4,2.4-2.4,6.3-0.1,8.7c1.2,1.2,2.8,1.8,4.4,1.8c1.6,0,3.1-0.6,4.3-1.8
	c1.8-1.8,3.7-3.3,5.5-4.4l22.1,21.7c-1.2,1.8-2.6,3.5-4.4,5.2c-2.4,2.4-2.5,6.3-0.1,8.7c1.2,1.2,2.8,1.8,4.4,1.8
	c1.6,0,3.1-0.6,4.3-1.8c12.1-11.8,12.9-24.5,11.6-35.9c11.6,1.6,24,1,36.2-11c12.3-12.1,12.8-24.4,11.2-35.9
	c10.2,1.4,21.2,1.2,32-7.1l0,0c1.5-1.2,3-2.4,4.4-3.8C2744.9,1113.8,2744.9,1109.9,2742.6,1107.5z M2693.3,1124.8
	c1.2,6.5,1.9,12.4,0.2,18l-18.7-18.3C2680.6,1122.9,2686.6,1123.6,2693.3,1124.8z M2627.5,1171.3c5.8-1.5,11.8-0.8,18.5,0.4
	c1.1,6.4,1.6,12.2-0.1,17.7L2627.5,1171.3z M2656.6,1161.2c-1.2-6.6-1.9-12.6-0.5-18.2l18.6,18.3
	C2669,1163,2663.1,1162.4,2656.6,1161.2z M2681.2,1158.3l-22.2-21.8c1-1.6,2.3-3.2,4-4.8c1.8-1.7,3.5-3.1,5.3-4.2l22.2,21.7
	c-1.1,1.7-2.5,3.3-4.2,5C2684.6,1155.9,2682.9,1157.2,2681.2,1158.3z M2703.7,1114.3c-1.1-6.2-1.8-11.9-0.4-17.4l18.1,17.8
	C2715.8,1116.1,2710,1115.4,2703.7,1114.3z"/>
<path class="st0" d="M1828.5,1628.7c2.4-2.4,2.4-6.3-0.1-8.7c-1-1-2-2.1-2.8-3.2l0,0c-0.6-0.8-1.2-1.6-1.7-2.5l21.2-22.2
	c0.4,0.3,0.9,0.5,1.3,0.8c0.2,0.1,0.4,0.3,0.6,0.4c1.3,1,2.6,2,3.7,3.2c2.4,2.4,6.3,2.4,8.7,0s2.4-6.3,0-8.7c-1.8-1.8-3.9-3.5-6-5
	c-0.3-0.2-0.6-0.4-1-0.5c-10-6.6-20-6.6-29.2-5.1c1.5-11.7,0.7-24.2-11.5-36.4c-11.9-11.8-24.4-11.9-36.1-10.1
	c1.6-11.8,1-24.6-11.4-36.8c-2.4-2.4-6.3-2.4-8.7,0.1c-1.2,1.2-1.8,2.8-1.8,4.4s0.6,3.1,1.8,4.3c1.8,1.8,3.3,3.6,4.5,5.4l-21.4,22.4
	c-1.8-1.1-3.5-2.5-5.3-4.3c-2.4-2.4-6.3-2.4-8.7,0c-1.2,1.2-1.8,2.8-1.8,4.4s0.6,3.1,1.8,4.3c12,11.9,24.7,12.6,36.1,11
	c-1.4,11.6-0.6,24,11.5,36c12.2,12.1,24.6,12.5,36,10.7c-1.3,10.2-0.9,21.2,7.6,31.9l0,0c1.2,1.5,2.5,3,3.9,4.3
	C1822.2,1631.2,1826.1,1631.1,1828.5,1628.7z M1810.4,1579.7c-6.5,1.3-12.4,2.1-18,0.5l18-19C1812.1,1567,1811.5,1573,1810.4,1579.7
	z M1763,1514.6c1.6,5.8,1,11.8-0.2,18.5c-6.4,1.2-12.1,1.8-17.7,0.2L1763,1514.6z M1773.5,1543.6c6.6-1.3,12.5-2.1,18.1-0.7
	l-18,18.9C1771.9,1556,1772.4,1550.1,1773.5,1543.6z M1776.7,1568.1l21.5-22.5c1.6,1,3.2,2.3,4.8,3.9c1.8,1.7,3.2,3.5,4.3,5.2
	l-21.4,22.5c-1.7-1.1-3.3-2.4-5-4.1C1779.2,1571.5,1777.8,1569.8,1776.7,1568.1z M1821.1,1590c6.2-1.2,11.9-2,17.4-0.6l-17.5,18.4
	C1819.5,1602.1,1820.1,1596.3,1821.1,1590z"/>
<g>
	<path class="st0" d="M2224.6,927.3c-19.5-0.2-35.8,30.7-30.3,39c1.9,2.9,6.9,3.6,7.1,3.7c5.2,0.7,7.8-2.6,17-4.5
		c2.1-0.6,4.2-0.9,6.4-0.9c7.5,0.3,9.9,5.4,18.4,7.9c3.4,1,8.8,2.7,11,0.7C2260.1,967.4,2246.6,927.5,2224.6,927.3L2224.6,927.3z"/>
	<path class="st0" d="M2204.8,914c2.6,8.1-0.2,16.3-6.4,18.2c-6.2,1.9-13.3-3.1-15.9-11.3s0.2-16.3,6.4-18.2
		C2195.1,900.8,2202.1,905.9,2204.8,914z"/>
	<path class="st0" d="M2231.4,894c1.2,11-3.3,20.5-10.2,21.2c-6.9,0.7-13.5-7.5-14.7-18.5s3.3-20.5,10.2-21.2
		C2223.6,874.8,2230.2,883,2231.4,894z"/>
	<path class="st0" d="M2259.6,903.5c-4.1,9.3-12.1,14.9-17.9,12.4s-7.3-12-3.2-21.3s12.1-14.9,17.9-12.4
		C2262.2,884.7,2263.6,894.2,2259.6,903.5z"/>
	<path class="st0" d="M2275.2,936.2c-5,8.5-13.7,12.8-19.5,9.5c-5.8-3.3-6.3-12.8-1.2-21.3s13.7-12.8,19.5-9.5
		S2280.3,927.7,2275.2,936.2z"/>
</g>
<g>
	<path class="st0" d="M1632.6,1377.3c-19.5-0.2-35.8,30.7-30.3,39c1.9,2.9,6.9,3.6,7.1,3.7c5.2,0.7,7.8-2.6,17-4.5
		c2.1-0.6,4.2-0.9,6.4-0.9c7.5,0.3,9.9,5.4,18.4,7.9c3.4,1,8.8,2.7,11,0.7C1668.1,1417.4,1654.6,1377.5,1632.6,1377.3L1632.6,1377.3
		z"/>
	<path class="st0" d="M1612.8,1364c2.6,8.1-0.2,16.3-6.4,18.2c-6.2,1.9-13.3-3.1-15.9-11.3c-2.6-8.2,0.2-16.3,6.4-18.2
		C1603.1,1350.8,1610.1,1355.9,1612.8,1364z"/>
	<path class="st0" d="M1639.4,1344c1.2,11-3.3,20.5-10.2,21.2c-6.9,0.7-13.5-7.5-14.7-18.5s3.3-20.5,10.2-21.2
		C1631.6,1324.8,1638.2,1333,1639.4,1344z"/>
	<path class="st0" d="M1667.6,1353.5c-4.1,9.3-12.1,14.9-17.9,12.4c-5.8-2.5-7.3-12-3.2-21.3c4.1-9.3,12.1-14.9,17.9-12.4
		S1671.6,1344.2,1667.6,1353.5z"/>
	<path class="st0" d="M1683.2,1386.2c-5,8.5-13.7,12.8-19.5,9.5c-5.8-3.3-6.3-12.8-1.2-21.3s13.7-12.8,19.5-9.5
		C1687.8,1368.2,1688.3,1377.7,1683.2,1386.2z"/>
</g>
<g>
	<g>
		<path class="st0" d="M2783.8,919.8c-1.5,0-3.1-0.6-4.3-1.8l-2.6-2.6l-2.6,2.6c-2.4,2.4-6.2,2.3-8.6,0c-2.4-2.4-2.3-6.2,0-8.6
			l2.6-2.6l-2.6-2.6c-2.4-2.4-2.4-6.2,0-8.6c2.4-2.4,6.2-2.4,8.6,0l2.6,2.6l2.6-2.6c2.4-2.4,6.2-2.3,8.6,0c2.4,2.4,2.3,6.2,0,8.6
			l-2.6,2.6l2.6,2.6c2.4,2.4,2.4,6.2,0,8.6C2787,919.2,2785.4,919.8,2783.8,919.8z"/>
	</g>
	<g>
		<path class="st0" d="M2781.8,957.1c-1.8,0-3.6-0.8-4.8-2.3c-2.1-2.7-1.7-6.6,0.9-8.7c5.6-4.6,11.4-3.3,15.3-2.4
			c3.3,0.7,4,0.7,4.9,0c0.9-0.8,1.1-1.4,1-4.8c0-3.9-0.1-9.9,5.6-14.5c5.7-4.7,11.5-3.4,15.4-2.5c3.5,0.8,4,0.7,4.8,0
			c0.9-0.8,1.1-1.4,1-4.8c0-3.9-0.1-9.9,5.6-14.5c5.7-4.7,11.5-3.4,15.4-2.5c3.5,0.8,4,0.7,4.8,0c0.9-0.8,1.1-1.4,1-4.8
			c0-3.9,0-9.9,5.7-14.5c2.7-2.2,6.6-1.7,8.7,0.9c2.1,2.7,1.7,6.6-0.9,8.7c-0.9,0.8-1.1,1.4-1.1,4.9c0,3.9,0,9.8-5.6,14.4
			c-5.7,4.7-11.5,3.4-15.4,2.5c-3.5-0.8-4-0.7-4.8,0c-0.9,0.8-1.1,1.4-1,4.8c0,3.9,0.1,9.9-5.6,14.5c-5.7,4.7-11.5,3.4-15.4,2.5
			c-3.5-0.8-4-0.7-4.8,0c-0.9,0.8-1.1,1.4-1,4.8c0,3.9,0.1,9.9-5.6,14.5c-5.7,4.7-11.5,3.4-15.4,2.5c-3.3-0.7-4-0.7-4.9,0
			C2784.6,956.6,2783.2,957.1,2781.8,957.1z"/>
	</g>
	<g>
		<path class="st0" d="M2879.7,970.3c-12.7,0-23.1-10.3-23.1-23.1c0-12.8,10.3-23.1,23.1-23.1c12.8,0,23.1,10.3,23.1,23.1
			S2892.5,970.3,2879.7,970.3z M2879.7,937.5c-5.4,0-9.7,4.4-9.7,9.7c0,5.4,4.4,9.7,9.7,9.7c5.3,0,9.7-4.4,9.7-9.7
			C2889.5,941.9,2885.1,937.5,2879.7,937.5z"/>
	</g>
</g>
<g>
	<g>
		<path class="st0" d="M2509.8,1380.3c-1.5,0-3.1-0.6-4.3-1.8l-2.6-2.6l-2.6,2.6c-2.4,2.4-6.2,2.3-8.6,0c-2.4-2.4-2.3-6.2,0-8.6
			l2.6-2.6l-2.6-2.6c-2.4-2.4-2.4-6.2,0-8.6c2.4-2.4,6.2-2.4,8.6,0l2.6,2.6l2.6-2.6c2.4-2.4,6.2-2.3,8.6,0c2.4,2.4,2.3,6.2,0,8.6
			l-2.6,2.6l2.6,2.6c2.4,2.4,2.4,6.2,0,8.6C2513,1379.7,2511.4,1380.3,2509.8,1380.3z"/>
	</g>
	<g>
		<path class="st0" d="M2507.8,1417.6c-1.8,0-3.6-0.8-4.8-2.3c-2.1-2.7-1.7-6.6,0.9-8.7c5.6-4.6,11.4-3.3,15.3-2.4
			c3.3,0.7,4,0.7,4.9,0c0.9-0.8,1.1-1.4,1-4.8c0-3.9-0.1-9.9,5.6-14.5c5.7-4.7,11.5-3.4,15.4-2.5c3.5,0.8,4,0.7,4.8,0
			c0.9-0.8,1.1-1.4,1-4.8c0-3.9-0.1-9.9,5.6-14.5c5.7-4.7,11.5-3.4,15.4-2.5c3.5,0.8,4,0.7,4.8,0c0.9-0.8,1.1-1.4,1-4.8
			c0-3.9,0-9.9,5.7-14.5c2.7-2.2,6.6-1.7,8.7,0.9c2.1,2.7,1.7,6.6-0.9,8.7c-0.9,0.8-1.1,1.4-1.1,4.9c0,3.9,0,9.8-5.6,14.4
			c-5.7,4.7-11.5,3.4-15.4,2.5c-3.5-0.8-4-0.7-4.8,0c-0.9,0.8-1.1,1.4-1,4.8c0,3.9,0.1,9.9-5.6,14.5c-5.7,4.7-11.5,3.4-15.4,2.5
			c-3.5-0.8-4-0.7-4.8,0c-0.9,0.8-1.1,1.4-1,4.8c0,3.9,0.1,9.9-5.6,14.5c-5.7,4.7-11.5,3.4-15.4,2.5c-3.3-0.7-4-0.7-4.9,0
			C2510.6,1417.1,2509.2,1417.6,2507.8,1417.6z"/>
	</g>
	<g>
		<path class="st0" d="M2605.7,1430.8c-12.7,0-23.1-10.3-23.1-23.1c0-12.8,10.3-23.1,23.1-23.1c12.8,0,23.1,10.3,23.1,23.1
			C2628.8,1420.5,2618.5,1430.8,2605.7,1430.8z M2605.7,1398c-5.4,0-9.7,4.4-9.7,9.7c0,5.4,4.4,9.7,9.7,9.7c5.3,0,9.7-4.4,9.7-9.7
			C2615.5,1402.4,2611.1,1398,2605.7,1398z"/>
	</g>
</g>
<g>
	<g>
		<path class="st0" d="M2025.7,1137.9c-1.5,0-3.1-0.6-4.3-1.8l-2.6-2.6l-2.6,2.6c-2.4,2.4-6.2,2.3-8.6,0c-2.4-2.4-2.3-6.2,0-8.6
			l2.6-2.6l-2.6-2.6c-2.4-2.4-2.4-6.2,0-8.6c2.4-2.4,6.2-2.4,8.6,0l2.6,2.6l2.6-2.6c2.4-2.4,6.2-2.3,8.6,0c2.4,2.4,2.3,6.2,0,8.6
			l-2.6,2.6l2.6,2.6c2.4,2.4,2.4,6.2,0,8.6C2028.8,1137.3,2027.2,1137.9,2025.7,1137.9z"/>
	</g>
	<g>
		<path class="st0" d="M2023.7,1175.2c-1.8,0-3.6-0.8-4.8-2.3c-2.1-2.7-1.7-6.6,0.9-8.7c5.6-4.6,11.4-3.3,15.3-2.4
			c3.3,0.7,4,0.7,4.9,0c0.9-0.8,1.1-1.4,1-4.8c0-3.9-0.1-9.9,5.6-14.5c5.7-4.7,11.5-3.4,15.4-2.5c3.5,0.8,4,0.7,4.8,0
			c0.9-0.8,1.1-1.4,1-4.8c0-3.9-0.1-9.9,5.6-14.5c5.7-4.7,11.5-3.4,15.4-2.5c3.5,0.8,4,0.7,4.8,0c0.9-0.8,1.1-1.4,1-4.8
			c0-3.9,0-9.9,5.7-14.5c2.7-2.2,6.6-1.7,8.7,0.9c2.1,2.7,1.7,6.6-0.9,8.7c-0.9,0.8-1.1,1.4-1.1,4.9c0,3.9,0,9.8-5.6,14.4
			c-5.7,4.7-11.5,3.4-15.4,2.5c-3.5-0.8-4-0.7-4.8,0c-0.9,0.8-1.1,1.4-1,4.8c0,3.9,0.1,9.9-5.6,14.5c-5.7,4.7-11.5,3.4-15.4,2.5
			c-3.5-0.8-4-0.7-4.8,0c-0.9,0.8-1.1,1.4-1,4.8c0,3.9,0.1,9.9-5.6,14.5c-5.7,4.7-11.5,3.4-15.4,2.5c-3.3-0.7-4-0.7-4.9,0
			C2026.4,1174.7,2025,1175.2,2023.7,1175.2z"/>
	</g>
	<g>
		<path class="st0" d="M2121.6,1188.4c-12.7,0-23.1-10.3-23.1-23.1s10.3-23.1,23.1-23.1c12.8,0,23.1,10.3,23.1,23.1
			S2134.3,1188.4,2121.6,1188.4z M2121.6,1155.6c-5.4,0-9.7,4.4-9.7,9.7c0,5.4,4.4,9.7,9.7,9.7c5.3,0,9.7-4.4,9.7-9.7
			S2126.9,1155.6,2121.6,1155.6z"/>
	</g>
</g>
<g>
	<path class="st0" d="M1828.1,1145.8c2.3,7,1.1,14.7-3.4,20.6l-29.9,37c-0.5,0.7-1.5,0.9-2.3,0.5l-42.4-21.6h-0.1
		c-11-5.8-15.1-19.5-9.3-30.4c2.9-5.4,7.8-9.4,13.7-11.1c11.9-3.7,24.6,2.8,28.7,14.7c-1.3-12.4,7.6-23.5,20-25
		C1814,1128.9,1824.5,1135.3,1828.1,1145.8L1828.1,1145.8z M1724,1105.7c1.7,2.4,2.1,5.5,1.1,8.3l-7.1,17.5
		c-0.1,0.3-0.4,0.6-0.8,0.5c0,0,0,0-0.1,0l-18.8-3.5c-2.8-0.6-5.1-2.4-6.4-4.9c-2-4.1-0.6-9,3.2-11.5c4.2-2.8,9.8-1.7,12.7,2.4
		c-2-4.6,0.2-9.9,4.7-11.9c0,0,0,0,0.1,0C1716.7,1100.8,1721.4,1102.1,1724,1105.7L1724,1105.7z M1778.1,1107.2
		c0.4,2.4-0.4,4.9-2.2,6.5l-11.7,10.7c-0.2,0.2-0.6,0.3-0.8,0l0,0l-12.7-9.2c-1.8-1.4-2.9-3.6-3-5.9c0-4.2,3.4-7.7,7.6-7.7
		c3.8,0,7,2.7,7.6,6.5c0.2-4.2,3.7-7.5,8-7.3C1774.5,1100.9,1777.5,1103.6,1778.1,1107.2z M1810.4,1090.5c-0.2,1.8-1.3,3.4-3,4.2
		l-10.6,5.1c-0.2,0.1-0.4,0.1-0.6-0.1l-7-9.2c-1-1.4-1.3-3.2-0.8-4.8c0.9-2.6,3.5-4.3,6.3-3.9c3,0.4,5.2,3.2,4.8,6.3
		c1.1-2.9,4.3-4.4,7.2-3.4C1809.2,1085.6,1810.7,1088,1810.4,1090.5L1810.4,1090.5z"/>
</g>
<g>
	<path class="st0" d="M1880.1,884.7h37.9v79.7h-0.6c-17.7-23.5-24.4-51.1-26.6-62.1h14.1v-8.8h-24.2l0.6,4.9
		c0.2,1.6,5.2,40.9,30.2,73.4l1.4,1.6l13.9,0.2V876H1880L1880.1,884.7L1880.1,884.7z"/>
	<path class="st0" d="M1930.3,973.4l13.9-0.2l1.4-1.6c25-32.3,30-71.5,30.2-73.4l0.6-4.9H1952v9h14.2c-2,11-8.9,38.6-26.4,62.3h-0.6
		v-79.7h37.7v-9h-46.6V973.4z"/>
</g>
<g>
	<path class="st0" d="M2808.1,1348.7h37.9v79.7h-0.6c-17.7-23.5-24.4-51.1-26.6-62.1h14.1v-8.8h-24.2l0.6,4.9
		c0.2,1.6,5.2,40.9,30.2,73.4l1.4,1.6l13.9,0.2v-97.7H2808v8.8H2808.1z"/>
	<path class="st0" d="M2858.3,1437.4l13.9-0.2l1.4-1.6c25-32.3,30-71.5,30.2-73.4l0.6-4.9H2880v9h14.1c-2,11-8.9,38.6-26.4,62.3
		h-0.6v-79.7h37.7v-9h-46.6v97.5H2858.3z"/>
</g>
<g>
	<path class="st0" d="M2324.8,1102.7h38v80h-0.6c-17.8-23.6-24.5-51.3-26.7-62.3h14.2v-8.8h-24.3l0.6,4.9c0.2,1.6,5.3,41,30.3,73.6
		l1.4,1.6l14,0.2v-98h-46.9V1102.7z"/>
	<path class="st0" d="M2375.2,1191.7l14-0.2l1.4-1.6c25.1-32.4,30.1-71.8,30.3-73.6l0.6-4.9H2397v9h14.2c-2,11.1-8.9,38.8-26.5,62.5
		h-0.6v-80h37.8v-9h-46.7V1191.7z"/>
</g>
<g>
	<path class="st1" d="M2354.2,1616l28.5-36.2c1.9-2.4,3.6-3.7,5.4-4c19.9,12.1,42.5,9.2,56.4-8.4c14.9-19.4,10.6-45.1-10.2-61.4
		c-21.4-16.8-47.4-15.7-63,4.1c-13.7,17.4-11.3,39.9,5.3,56.6c0.2,1.8-0.7,3.7-2.6,6.2l-28.5,36.2c-3.8,4.9-5.5,4.9-9.9,2.3l-1.6,2
		l19,14.9l1.6-2C2350.6,1622.7,2350.2,1621.1,2354.2,1616z M2377.8,1515c13.2-16.8,37.2-19.8,53.8-6.8c16.6,13,19.3,37.1,6.1,53.9
		c-13.2,16.8-37.2,19.8-53.8,6.8C2367.5,1556,2364.6,1531.8,2377.8,1515z"/>
	<path class="st1" d="M2403.4,1563.3c0,0,14.7-5.1,6.3-22.8c0,0-7.8-14.7-24.3-2.4c0,0-4.7,4.8,2,8.1c0,0,6.4,0.1,8.2,5.2
		c0,0,1.4,4-0.7,8.6C2394.9,1560.2,2393.7,1567.5,2403.4,1563.3z"/>
	<path class="st1" d="M2417.3,1542.4c1.8,3.4,6.8,4.1,10.9,1.7c4.1-2.3,6.3-6.8,4.5-10.2s-6.7-5.9-10.9-1.7
		C2418.3,1535.8,2415.6,1539.2,2417.3,1542.4z"/>
	<path class="st1" d="M2408,1530.9c2.4,3.2,7.9,2.6,11.8,0.1c4.4-2.7,5.8-8.2,3.7-11.2s-7.5-3.2-11.8-0.1
		C2407.2,1522.8,2405.6,1527.7,2408,1530.9z"/>
	<path class="st1" d="M2402.5,1527.9c3.2-2.4,4-6.3,2.4-9.2c-1.6-3.3-6.1-2.9-9.5-0.6c-3.2,2.4-3.3,5.9-2.4,9.2
		C2393.7,1530.5,2399.2,1530.2,2402.5,1527.9z"/>
	<path class="st1" d="M2418.3,1549.8c-3.2,2.4-5.2,7.4-2.4,9.2c2.8,1.8,6.1,2.9,9.5,0.6c3.2-2.4,5.1-6.8,2.4-9.2
		C2425.5,1548,2421.8,1547.3,2418.3,1549.8z"/>
</g>
<g>
	<path class="st1" d="M1667.9,969.9l-23.1-34.4c-1.5-2.3-2.2-4.1-1.9-5.7c15.8-13.7,19.6-33.8,8.4-50.5
		c-12.4-18.1-35.6-21.5-55.3-8.3c-20.3,13.6-26.6,36.3-13.9,55.1c11.1,16.5,31,20.7,49.8,11.1c1.6,0.3,3,1.6,4.6,3.9l23.1,34.4
		c3.1,4.6,2.7,6-0.7,9.1l1.3,1.9l18-12.1l-1.3-1.9C1672.6,974.9,1671.2,974.7,1667.9,969.9z M1588,921.8c-10.7-16-6.7-37.4,9.1-47.9
		c15.7-10.6,37.1-6.2,47.8,9.7c10.7,16,6.7,37.4-9.1,47.9C1620.3,942,1598.7,937.8,1588,921.8z"/>
	<path class="st1" d="M1636.5,913.3c0,0-0.3-14-17.8-11.8c0,0-14.7,2.6-8.8,20.1c0,0,2.8,5.4,7.5,0.5c0,0,1.9-5.4,6.7-5.6
		c0,0,3.8-0.1,7.2,3C1631.4,919.7,1637.3,922.7,1636.5,913.3z"/>
	<path class="st1" d="M1622.4,895.6c3.4-0.6,5.4-4.7,4.5-8.9c-0.9-4.2-4.1-7.3-7.5-6.7c-3.4,0.6-6.9,4.1-4.5,8.9
		C1617,892.9,1619.2,896.1,1622.4,895.6z"/>
	<path class="st1" d="M1610,900.4c3.4-1.1,4.5-6.1,3.4-10.1c-1.1-4.5-5.4-7.2-8.6-6.2c-3.2,1-4.8,5.5-3.4,10.1
		C1602.8,898.8,1606.6,901.5,1610,900.4z"/>
	<path class="st1" d="M1605.9,904.2c-1.2-3.4-4.3-5.2-7.2-4.6c-3.2,0.5-4.2,4.5-3.2,8c1.2,3.4,4.1,4.5,7.2,4.6
		C1605.7,912.5,1606.9,907.8,1605.9,904.2z"/>
	<path class="st1" d="M1629,896.8c1.2,3.4,4.9,6.5,7.2,4.6c2.3-1.8,4.2-4.5,3.2-8c-1.2-3.3-4.5-6.2-7.2-4.6
		C1629.4,890.1,1627.9,893.1,1629,896.8z"/>
</g>
<g>
	<path class="st0" d="M2570.9,921c0.8,1.3,0.4,2.9-0.9,3.7l-0.1,0.1l-36.8,20.3c-0.8,0.5-1.9,0.5-2.7,0l-36.7-20.4
		c-1.3-0.7-1.8-2.4-1.1-3.7l0.1-0.1l36.8-59.6c0.8-1.3,2.6-1.7,3.9-0.8c0.3,0.2,0.6,0.5,0.8,0.8L2570.9,921z"/>
	<path class="st0" d="M2561.4,942.4c1.3-0.8,2.9-0.4,3.7,0.9c0.6,0.9,0.5,2.2-0.1,3l-30.9,42.1c-0.9,1.2-2.7,1.5-3.9,0.6
		c-0.2-0.2-0.4-0.4-0.6-0.6l-30.9-42.1c-0.9-1.2-0.6-2.9,0.6-3.8c0.9-0.7,2.1-0.7,3-0.1l28.2,15.8c0.8,0.5,1.9,0.5,2.7,0
		L2561.4,942.4z"/>
</g>
<g>
	<path class="st0" d="M2283.7,1371.7c0.8,1.3,0.4,2.9-0.9,3.7l-0.1,0.1l-36.8,20.3c-0.8,0.5-1.9,0.5-2.7,0l-36.7-20.4
		c-1.3-0.7-1.8-2.4-1.1-3.7l0.1-0.1l36.8-59.6c0.8-1.3,2.6-1.7,3.9-0.8c0.3,0.2,0.6,0.5,0.8,0.8L2283.7,1371.7z"/>
	<path class="st0" d="M2274.2,1393.1c1.3-0.8,2.9-0.4,3.7,0.9c0.6,0.9,0.5,2.2-0.1,3l-30.9,42.1c-0.9,1.2-2.7,1.5-3.9,0.6
		c-0.2-0.2-0.4-0.4-0.6-0.6l-30.9-42.1c-0.9-1.2-0.6-2.9,0.6-3.8c0.9-0.7,2.1-0.7,3-0.1l28.2,15.8c0.8,0.5,1.9,0.5,2.7,0
		L2274.2,1393.1z"/>
</g>
<g transform="translate(0,-952.36218)">
	<path d="M3000.2,2472.5c15.3,6.4,26.9,22.6,36.6,39.7c1.7-1.1,3.6-1.9,5.5-2.4c3.4-0.7,7.4-0.4,9.5,1.9c2.4,3.4,1.8,7.5,0.8,10.9
		c-1,3.5-3,7.2-5.8,10.4c0.5,4.6,2.1,10,2.2,14.9c0.1,2.6-0.3,5.5-2.6,7.6c-3,2.3-6.8,2.8-9.9,1.7l-80.3-33.4
		c-4.9-2-8.6-6.6-11.2-11.3c-1.9-3.4-3-6.8-3.4-10.4c-8.1-2.7-13.5-5.7-16.9-9.1c-3.5-3.5-4.7-8-3.2-11.5c2.7-4.8,7.9-5.9,12.7-5.8
		c5,0.4,10,1.4,14.8,3.3c1.5,0.7,2.3,2.8,1.5,4.3c-0.7,1.5-2.8,2.3-4.3,1.5c-3.3-1.4-8.2-2.6-12.2-2.7c-2.5,0-4.9,0.2-6.6,1.8
		c-0.4,0.9-0.5,2.2,1.9,4.5c2.2,2.2,6.7,5,14.1,7.5c4.7-9.2,12.8-16.9,22.4-21.6C2976.3,2469.2,2988.7,2467.7,3000.2,2472.5z
		 M2997.7,2478.4c-9.4-3.9-19.9-2.7-29.1,1.8s-16.9,12.3-20.6,21.1c0,2.8,1.2,5.8,2.5,8.1c2.1,3.8,5.6,7.4,8.1,8.5l79.9,33.2
		c2.4,0.6,3.4-0.1,3.6-0.2c0.2-0.2,0.5-0.9,0.5-2.7c-0.1-3.6-2-9.7-2.4-15.7c-0.1-0.9,0.3-1.8,0.9-2.5c2.6-2.6,4.5-6.2,5.3-9.1
		c0.6-1.7,0.6-3.2,0.4-4.9c-1-0.3-2.3-0.1-3.2,0.1c-2.1,0.5-4.4,1.8-5.4,3c-1.3,1.5-4.2,1.2-5.2-0.5
		C3023.2,2500.6,3011.2,2484,2997.7,2478.4z M3031.2,2527.1c1.6,0.7,2.4,2.6,1.7,4.2c-0.7,1.6-2.6,2.4-4.2,1.7
		c-1.6-0.7-2.4-2.6-1.7-4.2C3027.7,2527.2,3029.6,2526.5,3031.2,2527.1z"/>
</g>
<g transform="translate(0,-952.36218)">
	<path d="M1970.2,2300.5c15.3,6.4,26.9,22.6,36.6,39.7c1.7-1.1,3.6-1.9,5.5-2.4c3.4-0.7,7.4-0.4,9.5,1.9c2.4,3.4,1.8,7.5,0.8,10.9
		c-1,3.5-3,7.2-5.8,10.4c0.5,4.6,2.1,10,2.2,14.9c0.1,2.6-0.3,5.5-2.6,7.6c-3,2.3-6.8,2.8-9.9,1.7l-80.3-33.4
		c-4.9-2-8.6-6.6-11.2-11.3c-1.9-3.4-3-6.8-3.4-10.4c-8.1-2.7-13.5-5.7-16.9-9.1c-3.5-3.5-4.7-8-3.2-11.5c2.7-4.8,7.9-5.9,12.7-5.8
		c5,0.4,10,1.4,14.8,3.3c1.5,0.7,2.3,2.8,1.5,4.3c-0.7,1.5-2.8,2.3-4.3,1.5c-3.3-1.4-8.2-2.6-12.2-2.7c-2.5,0-4.9,0.2-6.6,1.8
		c-0.4,0.9-0.5,2.2,1.9,4.5c2.2,2.2,6.7,5,14.1,7.5c4.7-9.2,12.8-16.9,22.4-21.6C1946.3,2297.2,1958.7,2295.7,1970.2,2300.5z
		 M1967.7,2306.4c-9.4-3.9-19.9-2.7-29.1,1.8c-9.2,4.5-16.9,12.3-20.6,21.1c0,2.8,1.2,5.8,2.5,8.1c2.1,3.8,5.6,7.4,8.1,8.5
		l79.9,33.2c2.4,0.6,3.4-0.1,3.6-0.2c0.2-0.2,0.5-0.9,0.5-2.7c-0.1-3.6-2-9.7-2.4-15.7c-0.1-0.9,0.3-1.8,0.9-2.5
		c2.6-2.6,4.5-6.2,5.3-9.1c0.6-1.7,0.6-3.2,0.4-4.9c-1-0.3-2.3-0.1-3.2,0.1c-2.1,0.5-4.4,1.8-5.4,3c-1.3,1.5-4.2,1.2-5.2-0.5
		C1993.2,2328.6,1981.2,2312,1967.7,2306.4z M2001.2,2355.1c1.6,0.7,2.4,2.6,1.7,4.2c-0.7,1.6-2.6,2.4-4.2,1.7
		c-1.6-0.7-2.4-2.6-1.7-4.2C1997.7,2355.2,1999.6,2354.5,2001.2,2355.1z"/>
</g>
<g>
	<path d="M2761.8,1592.9c-7.3-3.2-12.9,0.3-18.4,3.6c-5.5,3.4-10.7,6.6-18.1,3.8c13.6-7.7,22.9-22.3,22.9-39
		c0-24.7-20.1-44.7-44.7-44.7c-24.6,0-44.7,20.1-44.7,44.7c0,24.7,20.1,44.7,44.7,44.7c5.8,0,11.3-1.1,16.4-3.1
		c4.1,2.2,7.7,3.1,10.9,3.1c6.1,0,10.9-3,15.1-5.6c5.6-3.4,9.2-5.4,14-3.3c1.2,0.5,2.6,0,3.1-1.2
		C2763.5,1594.8,2763,1593.4,2761.8,1592.9z M2722.3,1596.7c-0.1-4.4-0.5-8.8-1.1-13.2c3.1-2.2,6.1-4.5,9-7c0.9,4.2,1.6,8.5,2,12.7
		C2729.3,1592.2,2725.9,1594.7,2722.3,1596.7z M2736.3,1584.2c-0.5-3.8-1.2-7.6-2.1-11.3c3.3-3.2,6.4-6.6,9.3-10.2
		C2743.2,1570.7,2740.6,1578.1,2736.3,1584.2z M2703.5,1521.3c5.6,0,10.9,1.2,15.8,3.2c-1.8,3.2-3.8,6.2-6,9
		c-3.8-4.4-8-8.5-12.4-12.2C2701.7,1521.3,2702.6,1521.3,2703.5,1521.3z M2694.6,1522.3c5.7,4.4,10.9,9.4,15.7,14.9
		c-3,3.3-6.2,6.3-9.7,9c-5.8-6.8-12.4-12.9-19.5-18C2685.1,1525.4,2689.7,1523.4,2694.6,1522.3z M2677.1,1531.2
		c7.2,5,13.8,11,19.6,17.8c-3.8,2.5-7.9,4.6-12.1,6.4c-4.8-5.3-10-10-15.7-14.2C2671.1,1537.3,2673.9,1534,2677.1,1531.2z
		 M2666.8,1545.3c4.6,3.5,9,7.4,13.1,11.7c-5.3,1.7-10.7,2.8-16.4,3.2C2663.6,1554.9,2664.8,1549.9,2666.8,1545.3z M2663.6,1564.9
		L2663.6,1564.9c0.1,0,0.1,0,0.2,0c25.2-1.8,47.5-16.1,59.7-38.2c4.2,2.4,8,5.6,11.1,9.4c-14,24.3-38.8,40.5-66.7,43.5
		C2665.5,1575.1,2664,1570.1,2663.6,1564.9z M2700.5,1601.3c-3.9-0.3-7.6-1.1-11.1-2.4c3.9-1.2,7.8-2.5,11.6-4.1
		C2700.9,1596.9,2700.7,1599.1,2700.5,1601.3z M2682.9,1595.7c-5-3-9.3-7-12.5-11.8c27.8-3.6,52.5-19.7,67.1-43.7
		c2.9,4.6,4.8,9.8,5.7,15.4C2728.3,1575.8,2707.1,1589.9,2682.9,1595.7z M2705.2,1601.4c0.3-2.9,0.5-5.8,0.5-8.8
		c3.8-1.8,7.5-3.9,11.1-6.1c0.5,4.1,0.8,8.3,0.8,12.4C2713.7,1600.3,2709.6,1601.2,2705.2,1601.4z"/>
</g>
<g>
	<g>
		<g>
			<path d="M3029.2,1114.5l-27.3,13.6c-1.3,0.7-2.9,0.1-3.6-1.2c-0.7-1.3-0.1-2.9,1.2-3.6l27.3-13.6c5.5-2.8,7.8-9.5,5.1-15.1
				l-5.2-10.4l-95.1,47.3c-1.8,0.9-2.7,2.9-2.2,4.8l2.9,14.8c0.3,1.1,1.1,2.2,2.3,2.7s2.5,0.5,3.7-0.1l36.5-18.2
				c1.3-0.7,2.9-0.1,3.6,1.2c0.7,1.3,0.1,2.9-1.2,3.6l-36.5,18.2c-2.6,1.3-5.6,1.3-8.3,0.1c-2.7-1.2-4.6-3.6-5.3-6.4l-2.9-14.8
				c-1.1-4.3,1-8.7,5.1-10.7l97.5-48.5c1.3-0.7,2.9-0.1,3.6,1.2l6.4,12.8C3040.7,1100.4,3037.4,1110.4,3029.2,1114.5z"/>
		</g>
		<g>
			<path d="M2981,1197.8l-19.4,9.6c-2.8,1.4-5.9,1.4-8.7,0c-2.7-1.4-4.6-3.9-5.2-6.9l-6.6-46.1c-0.2-1.1,0.4-2.3,1.5-2.8l32.2-16
				c0.8-0.4,1.7-0.4,2.4,0c0.8,0.4,1.3,1.1,1.4,2l7.4,50.4C2986.7,1191.9,2984.6,1196,2981,1197.8z M2946.7,1155.5l6.3,44.1
				c0.2,1.3,1.1,2.4,2.3,3c1.2,0.6,2.7,0.6,3.9,0l19.4-9.6c1.5-0.8,2.4-2.5,2.1-4.2l-6.9-46.8L2946.7,1155.5z"/>
		</g>
		<g>
			<path d="M2990.7,1161.5l-9.8,4.8c-0.8,0.4-1.7,0.4-2.4,0c-0.8-0.4-1.3-1.1-1.4-2l-3.8-25.9c-0.2-1.1,0.4-2.3,1.5-2.8l24.8-12.3
				c1.3-0.7,2.9-0.1,3.6,1.2C3009.8,1138.1,3004.3,1154.7,2990.7,1161.5z M2981.8,1159.9l6.5-3.2c10.2-5.1,14.8-16.9,11.1-27.4
				l-20.5,10.2L2981.8,1159.9z"/>
		</g>
	</g>
	<g>
		<path d="M2993.6,1148.3c-0.2,0.1-0.4,0.2-0.6,0.2c-11.6,2.7-19.1-8.6-19.4-9.1c-0.8-1.2-0.4-2.9,0.8-3.7c1.2-0.8,2.9-0.4,3.7,0.8
			l0,0c0.1,0.1,5.8,8.6,13.7,6.8c1.4-0.3,2.9,0.6,3.2,2C2995.3,1146.5,2994.7,1147.7,2993.6,1148.3z"/>
	</g>
</g>
<g>
	<g>
		<g>
			<path d="M2169,1533l-27.3,13.6c-1.3,0.7-2.9,0.1-3.6-1.2c-0.7-1.3-0.1-2.9,1.2-3.6l27.3-13.6c5.5-2.8,7.8-9.5,5.1-15.1l-5.2-10.4
				l-95.1,47.3c-1.8,0.9-2.7,2.9-2.2,4.8l2.9,14.8c0.3,1.1,1.1,2.2,2.3,2.7c1.2,0.5,2.5,0.5,3.7-0.1l36.5-18.2
				c1.3-0.7,2.9-0.1,3.6,1.2c0.7,1.3,0.1,2.9-1.2,3.6l-36.5,18.2c-2.6,1.3-5.6,1.3-8.3,0.1c-2.7-1.2-4.6-3.6-5.3-6.4l-2.9-14.8
				c-1.1-4.3,1-8.7,5.1-10.7l97.5-48.5c1.3-0.7,2.9-0.1,3.6,1.2l6.4,12.8C2180.6,1518.9,2177.2,1528.9,2169,1533z"/>
		</g>
		<g>
			<path d="M2120.8,1616.3l-19.4,9.6c-2.8,1.4-5.9,1.4-8.7,0c-2.7-1.4-4.6-3.9-5.2-6.9l-6.6-46.1c-0.2-1.1,0.4-2.3,1.5-2.8l32.2-16
				c0.8-0.4,1.7-0.4,2.4,0c0.8,0.4,1.3,1.1,1.4,2l7.4,50.4C2126.5,1610.4,2124.5,1614.5,2120.8,1616.3z M2086.5,1574l6.3,44.1
				c0.2,1.3,1.1,2.4,2.3,3c1.2,0.6,2.7,0.6,3.9,0l19.4-9.6c1.5-0.8,2.4-2.5,2.1-4.2l-6.9-46.8L2086.5,1574z"/>
		</g>
		<g>
			<path d="M2130.5,1580l-9.8,4.8c-0.8,0.4-1.7,0.4-2.4,0c-0.8-0.4-1.3-1.1-1.4-2l-3.8-25.9c-0.2-1.1,0.4-2.3,1.5-2.8l24.8-12.3
				c1.3-0.7,2.9-0.1,3.6,1.2C2149.7,1556.6,2144.1,1573.2,2130.5,1580z M2121.7,1578.4l6.5-3.2c10.2-5.1,14.8-16.9,11.1-27.4
				l-20.5,10.2L2121.7,1578.4z"/>
		</g>
	</g>
	<g>
		<path d="M2133.5,1566.8c-0.2,0.1-0.4,0.2-0.6,0.2c-11.6,2.7-19.1-8.6-19.4-9.1c-0.8-1.2-0.4-2.9,0.8-3.7c1.2-0.8,2.9-0.4,3.7,0.8
			l0,0c0.1,0.1,5.8,8.6,13.7,6.8c1.4-0.3,2.9,0.6,3.2,2C2135.2,1565,2134.6,1566.2,2133.5,1566.8z"/>
	</g>
</g>
</svg>
