<?xml version="1.0" encoding="utf-8"?>
<!-- Generator: Adobe Illustrator 22.0.0, SVG Export Plug-In . SVG Version: 6.00 Build 0)  -->
<svg version="1.1" id="Layer_1" xmlns="http://www.w3.org/2000/svg" xmlns:xlink="http://www.w3.org/1999/xlink" x="0px" y="0px"
	 viewBox="0 0 600.6 369" style="enable-background:new 0 0 600.6 369;" xml:space="preserve">
<style type="text/css">
	.st0{fill:#FFCD03;}
	.st1{fill:#0C2D39;}
</style>
<g>
	<path class="st0" d="M210,313.5c-1.7,0-2.8,0.6-2.8,2.3c0,1.7,1.1,4,3.4,3.4c1.7,0,2.3-1.7,2.3-3.4
		C212.9,314.6,211.2,313.5,210,313.5z"/>
	<path class="st0" d="M226.5,313.5c-0.6,0-1.1,1.7-1.7,2.3c0,1.7,1.1,2.8,2.8,2.8l0,0c0.6,0,1.1-1.7,1.1-2.3
		C229.3,314,228.2,312.9,226.5,313.5z"/>
	<path class="st0" d="M247.5,165.7c2.3,2.8,5.7,2.8,8.5,0.6c0.6-0.6,0.6-0.6,1.1-1.1c8.5-9.1,17-17.6,25.6-26.7
		c3.4-2.8,4-8,1.1-11.4c-0.6-0.6-0.6-0.6-1.1-1.1c-9.1-8.5-17.6-17.6-26.7-26.1c-1.1-1.1-2.8-2.3-4.5-3.4c-2.3-0.6-4.5,0.6-5.7,2.8
		c-6.8,11.4-13.6,23.3-20.5,34.7c-1.7,2.8-1.7,6.3,1.1,8.5C233.3,150.4,240.1,158.3,247.5,165.7z"/>
	<path class="st0" d="M465.2,170.3c12.5-8.5,26.1-16.5,31.3-27.8c4-9.7-9.1-19.3-13.1-30.1c-0.6-1.1-2.3-2.3-3.4-4
		c-10.2,6.3-17,16.5-24.4,25c-2.3,2.3-2.8,5.7-1.7,8.5C457.8,151.5,461.2,160.1,465.2,170.3z"/>
	<path class="st0" d="M245.8,311.8c-1.7,0-3.4,0.6-3.4,2.3c0,1.1,0.6,1.7,1.1,2.3c1.1,0.6,2.3,0.6,3.4-0.6c0,0,0-0.6,0.6-0.6
		C247.5,313.5,246.9,312.3,245.8,311.8z"/>
	<path class="st0" d="M340.1,137.3c8,9.1,11.9,20.5,18.2,30.1c1.1,2.3,2.3,4.5,5.7,5.1c1.1-0.6,2.8-1.1,4-1.7
		c10.8-9.1,22.2-18.2,33-27.8c3.4-2.8,1.7-6.3,0-9.7c-6.8-10.2-13.6-20.5-20.5-30.7c-3.4-5.1-8-6.8-12.5-2.3
		c-9.1,9.1-17.6,18.8-26.7,27.8C338.4,131.1,337.9,134.5,340.1,137.3L340.1,137.3z"/>
	<path class="st0" d="M112.8,173.7c22.7,11.9,25.6,17.6,42.1-8c1.1-2.3,2.8-4.5,4-6.3c4.5-5.7,5.1-10.2-1.7-15.3
		c-8.5-6.3-15.9-13.1-24.4-19.3c-2.3-1.7-4.5-2.8-7.4-4c-3.4,0-6.8,2.3-7.4,5.7c-3.4,12.5-6.8,25-10.2,37.5
		C106.6,167.4,108.3,172,112.8,173.7z"/>
	<path class="st0" d="M415.2,320.3c0.6,0.6,0.6,1.7,1.1,2.3c0.6,0.6,1.7,0,2.3,0l0,0c-0.6-0.6-0.6-1.7-1.1-2.3
		C417.4,319.7,416.3,320.3,415.2,320.3z"/>
	<path class="st0" d="M516.3,142.4c-13.1,9.1-26.1,18.8-38.1,29.5c-15.9,13.6-17.6,13.1-23.9-6.3c-5.1-14.2-10.8-27.8-17.6-41.5
		c-12.5,10.2-23.9,18.8-34.7,28.4c-10.8,10.2-22.7,19.3-34.1,29c-2.3,2.8-6.3,3.4-9.7,1.1c-1.1-0.6-1.7-1.7-2.3-2.8
		c-2.8-5.1-6.3-9.7-8.5-14.8c-8-14.8-17-28.4-27.8-40.9c-6.8-8.5-8.5-8.5-15.3-0.6c-11.9,14.2-25,27.3-36.9,41.5
		c-18.8,21.6-15.9,15.9-30.7,1.1c-13.6-14.8-27.3-29.5-41.5-43.2c-4,2.3-6.8,5.7-9.1,9.7c-8.5,13.6-17.6,26.7-26.1,40.3
		c-15.9,24.4-17.6,24.4-42.6,11.9c-12.5-6.3-25.6-11.9-40.9-19.3c5.1,19.3,9.1,35.8,14.2,52.3c6.8,23.9,12.5,48.3,21,71.6
		c9.1,25.6,4.5,21.6,30.1,21c6.3,0,12.5-1.1,18.8-1.7c26.1-2.3,52.3-6.8,79-6.8c61.9-0.6,124.4-1.7,186.4,0
		c18.8,0.6,38.6-1.7,56.8,10.8c26.7-86.9,44.3-158,42.1-172.7C520.3,139,518.6,141.3,516.3,142.4z"/>
	<path class="st0" d="M260,325.4c-2.3,0-5.1-3.4-7.4,1.1c6.3,0.6,13.1,0,19.3-1.7C265.1,321.4,263.4,324.8,260,325.4z"/>
	<path class="st0" d="M327.6,310.1c-1.7,0-2.8,1.1-2.8,2.3v0.6c0,2.3,1.1,4,4,3.4c1.1-0.6,1.7-2.3,2.3-2.8
		C330.5,310.6,329.3,310.1,327.6,310.1z"/>
	<path class="st0" d="M294.1,310.6h-0.6c-1.7,0-2.8,1.1-2.8,2.8c0,2.3,1.7,3.4,4,3.4c1.7,0,2.8-1.1,2.8-2.8l0,0
		C297,312.3,295.8,310.6,294.1,310.6z"/>
</g>
<path class="st1" d="M450.4,126.5c9.7-6.8,15.3-16.5,23.3-23.9c8-7.4,9.7-6.8,14.8,2.3c5.1,10.2,10.2,19.9,16.5,29
	c6.8-2.8,13.1-9.1,22.2-7.4c7.4,1.1,9.7,4,9.1,11.4c-2.8,18.2-6.8,35.8-13.1,52.8c-13.1,39.8-21.6,81.3-31.3,121.6
	c-4,17-8.5,21-26.1,21.6c-28.4,1.1-56.8-4-85.2-5.1c-17-1.1-34.1-0.6-51.1,0.6c-25,2.3-49.4,4.5-74.4,4.5c-33,0-65.3,4.5-97.7,6.3
	c-5.7,0.6-11.4,0.6-17,0c-14.2-0.6-22.2-9.1-27.8-21.6c-8.5-18.8-13.1-39.2-19.3-59.1c-10.2-31.3-15.9-63.1-26.7-94.3
	c-3.4-9.1,0.6-13.1,9.7-10.2c5.1,1.7,9.7,4,14.2,6.3c6.3,3.4,9.7,1.7,11.4-4.5c2.3-9.7,5.1-19.3,7.4-28.4c1.1-4.5,2.8-8.5,4.5-13.1
	c2.3-6.8,6.8-8,13.1-4.5c11.9,5.1,21.6,14.8,31.8,22.2c11.4,8.5,11.4,9.1,19.9-2.8c2.8-4,6.3-8.5,9.1-12.5c7.4-9.1,8-9.1,15.9,0
	c13.6,16.5,13.6,16.5,23.3-1.7c4-7.4,8-14.2,12.5-21.6c7.4-11.4,11.4-11.9,22.2-2.8c6.3,5.7,11.9,11.9,17.6,17.6
	c2.8,2.8,6.3,5.7,9.1,8.5c2.3,3.4,6.8,4,9.7,1.7c0.6-0.6,1.7-1.1,2.3-2.3c1.7-1.7,3.4-4,5.1-5.7c8.5-11.9,8.5-11.9,17,1.1
	c1.1,1.7,2.3,3.4,3.4,5.1c5.7,6.8,6.8,7.4,13.6,1.1c6.8-6.8,13.6-14.2,20.5-21.6c14.2-14.8,18.8-14.2,29,2.8
	c4.5,8.5,10.2,16.5,16.5,24.4c6.8,8,7.4,8,15.9,1.1c3.4-2.8,7.4-5.7,10.8-9.1c5.7-5.7,10.2-4,13.1,2.3
	C445.8,123.1,447.5,125.4,450.4,126.5z M481.1,312.9c26.7-86.9,44.3-158,42.1-172.7c-2.8-1.1-4.5,1.1-6.8,2.3
	c-13.1,9.1-26.1,18.8-38.1,29.5c-15.9,13.6-17.6,13.1-23.9-6.3c-5.1-14.2-10.8-27.8-17.6-41.5c-12.5,10.2-23.9,18.8-34.7,28.4
	c-10.8,10.2-22.7,19.3-34.1,29c-2.3,2.8-6.3,3.4-9.7,1.1c-1.1-0.6-1.7-1.7-2.3-2.8c-2.8-5.1-6.3-9.7-8.5-14.8
	c-8-14.8-17-28.4-27.8-40.9c-6.8-8.5-8.5-8.5-15.3-0.6c-11.9,14.2-25,27.3-36.9,41.5c-18.8,21.6-15.9,15.9-30.7,1.1
	c-13.6-14.8-27.3-29.5-41.5-43.2c-4,2.3-6.8,5.7-9.1,9.7c-8.5,13.6-17.6,26.7-26.1,40.3c-15.9,24.4-17.6,24.4-42.6,11.9
	c-12.5-6.3-25.6-11.9-40.9-19.3c5.1,19.3,9.1,35.8,14.2,52.3c6.8,23.9,12.5,48.3,21,71.6c9.1,25.6,4.5,21.6,30.1,21
	c6.3,0,12.5-1.1,18.8-1.7c26.1-2.3,52.3-6.8,79-6.8c61.9-0.6,124.4-1.7,186.4,0C443.6,303.2,463.5,301,481.1,312.9L481.1,312.9z
	 M364,173.1c1.1-0.6,2.8-1.1,4-1.7c10.8-9.1,22.2-18.2,33-27.8c3.4-2.8,1.7-6.3,0-9.7c-6.8-10.2-13.6-20.5-20.5-30.7
	c-3.4-5.1-8-6.8-12.5-2.3c-9.1,9.1-17.6,18.8-26.7,27.8c-2.3,1.7-2.8,5.7-0.6,8c0,0,0,0,0,0.6c8,9.1,11.9,20.5,18.2,30.1
	C359.5,169.7,360.6,172.6,364,173.1z M251.5,97c-2.3-0.6-4.5,0.6-5.7,2.8c-6.8,11.4-13.6,23.3-20.5,34.7c-1.7,2.8-1.7,6.3,1.1,8.5
	c6.8,8,13.6,15.3,21,22.7c2.3,2.8,5.7,2.8,8.5,0.6c0.6-0.6,0.6-0.6,1.1-1.1c8.5-9.1,17-17.6,25.6-26.7c3.4-2.8,4-8,1.1-11.4
	c-0.6-0.6-0.6-0.6-1.1-1.1c-9.1-8.5-17.6-17.6-26.7-26.1C254.9,99.2,253.2,98.1,251.5,97z M125.3,120.3c-3.4,0-6.8,2.3-7.4,5.7
	c-3.4,12.5-6.8,25-10.2,37.5c-1.7,4,0.6,8.5,4.5,10.2c22.7,11.9,25.6,17.6,42.1-8c1.1-2.3,2.8-4.5,4-6.3c4.5-5.7,5.1-10.2-1.7-15.3
	c-8.5-6.3-15.9-13.1-24.4-19.3C130.5,123.1,128.2,121.4,125.3,120.3z M479.9,108.9c-10.2,6.3-17,16.5-24.4,25
	c-2.3,2.3-2.8,5.7-1.7,8.5c3.4,9.1,7.4,17.6,11.4,27.8c12.5-8.5,26.1-16.5,31.3-27.8c4-9.7-9.1-19.3-13.1-30.1
	C482.8,111.2,481.6,110,479.9,108.9z M272,324.8c-6.3-3.4-8.5,0-11.4,0.6c-2.3,0-5.1-3.4-7.4,1.1C259.5,327.1,265.7,326.5,272,324.8
	z M297,314c0-1.7-1.1-3.4-3.4-3.4H293c-1.7,0-2.8,1.1-2.8,2.8c0,2.3,1.7,3.4,4,3.4C295.8,316.9,297,315.7,297,314L297,314z
	 M330.5,313.5c0-2.8-1.1-3.4-2.8-3.4c-1.7,0-2.8,1.1-2.8,2.3v0.6c0,2.3,1.1,4,4,3.4C329.3,315.7,329.9,314,330.5,313.5z
	 M212.9,315.7c0-1.7-1.7-2.8-2.8-2.8c-1.7,0-2.8,0.6-2.8,2.3c0,1.7,1.1,4,3.4,3.4C212.3,319.2,212.9,317.5,212.9,315.7z
	 M245.8,311.8c-1.7,0-3.4,0.6-3.4,2.3c0,1.1,0.6,1.7,1.1,2.3c1.1,0.6,2.3,0.6,3.4-0.6c0,0,0-0.6,0.6-0.6
	C247.5,313.5,246.9,312.3,245.8,311.8z M419.1,322.6c-0.6-0.6-0.6-1.7-1.1-2.3s-1.7,0-2.3,0c0.6,0.6,0.6,1.7,1.1,2.3
	C416.9,323.1,418,322.6,419.1,322.6L419.1,322.6z M224.8,315.7c0,1.7,1.1,2.8,2.8,2.8l0,0c0.6,0,1.1-1.7,1.1-2.3
	c0-1.7-1.1-2.8-2.8-2.3C225.4,313.5,225.4,314.6,224.8,315.7L224.8,315.7z"/>
<path class="st1" d="M99.8,66.3c-0.6-2.8,0.6-5.1,2.3-6.8c2.8-1.7,6.3-1.7,8.5,0.6c4.5,2.8,7.4,7.4,8.5,12.5
	c1.1,5.1,0,10.2-2.3,14.8c-1.7,3.4,0,9.1-5.7,9.7c-5.7,0.6-6.3-5.1-7.4-9.7C102,80.5,100.9,73.7,99.8,66.3z"/>
<path class="st1" d="M196.4,86.2c-2.3,6.3,1.1,15.3-6.8,15.9c-7.4,0.6-6.8-8.5-8.5-14.2c-1.7-5.7-2.3-11.9-1.1-18.2
	c0.6-3.4,1.1-6.8,4.5-7.4c3.4-0.6,5.7,2.3,6.3,5.1C193,73.7,194.7,80.5,196.4,86.2z"/>
<path class="st1" d="M504.9,61.7c-1.1,9.7-5.1,18.8-10.8,26.7c-1.1,1.7-3.4,2.8-5.1,2.3c-2.3-0.6-3.4-2.8-3.4-4.5
	c0-11.9,4-23.3,11.4-33c2.3-3.4,5.7-2.3,7.4,1.1C504.4,56.6,504.9,58.9,504.9,61.7z"/>
<path class="st1" d="M303.2,72c0.6-5.7,0.6-11.4,1.7-16.5c0.6-2.8,3.4-5.1,6.3-5.1c0,0,0,0,0.6,0c2.8,0.6,4.5,2.3,5.1,5.1
	c2.8,10.2,2.3,20.5-1.7,30.1c-1.1,2.8-3.4,5.1-6.8,4.5c-4-0.6-4-4-4-7.4C303.2,79.4,303.8,76,303.2,72L303.2,72z"/>
<path class="st1" d="M452.1,72c-1.1,4.5-2.3,9.7-3.4,15.3c-1.1,4-2.8,6.8-7.4,6.3c-4-0.6-6.8-4-6.3-8c0-0.6,0-0.6,0-1.1
	c1.1-6.8,2.3-14.2,4-21c1.1-3.4,2.8-6.8,7.4-5.7c3.4,0.6,4.5,4,4.5,6.8C452.1,66.9,452.1,68.6,452.1,72z"/>
<path class="st1" d="M560.1,87.9c0,7.4-14.2,25-21.6,26.7c-3.4,1.1-5.1-1.1-5.1-4c0-8,10.8-25,18.2-27.8
	C556.6,81.1,560.6,83.3,560.1,87.9z"/>
<path class="st1" d="M53.2,132.2c0,2.3,0.6,5.7-3.4,6.8c-3.4,0.6-5.7-1.7-7.4-4c-4-5.7-6.8-11.9-8.5-18.2c-1.7-4,0-8,4-9.7
	c0.6,0,0.6,0,1.1-0.6c5.1-1.7,8,1.1,9.7,5.1C51.5,118,53.2,124.8,53.2,132.2z"/>
<path class="st1" d="M369.7,57.2c0-3.4,0.6-6.3,0.6-9.7c1.1-5.1,4-9.1,9.1-9.1c5.1,0.6,4,6.3,5.1,9.7c1.1,5.7,0.6,11.4-1.7,16.5
	c-1.1,4-3.4,6.8-7.4,6.3c-3.4-0.6-4.5-4-5.1-6.8C370.3,62.3,370.3,60,369.7,57.2z"/>
<path class="st1" d="M240.7,57.2c0-0.6,0-1.1,0-1.7c0.6-4.5-1.7-11.4,5.7-11.9c8-0.6,6.3,6.8,7.4,10.8c1.7,5.1,2.3,10.2,1.7,15.3
	c-0.6,4-2.3,6.8-6.8,7.4c-4,0-5.1-2.8-5.7-6.3C241.8,66.3,241.3,61.7,240.7,57.2L240.7,57.2z"/>
<path class="st1" d="M457.2,299.8c-11.9-0.6-13.1-1.7-10.8-13.1c1.7-10.2,3.4-20.5,5.1-30.7c1.1-4.5,0.6-11.4,8-10.8
	c8,0.6,17,7.4,17,13.1c-0.6,12.5-2.8,24.4-6.3,36.4C468.6,302.1,461.7,299.8,457.2,299.8z M469.1,268c0-5.1,0.6-9.7-4-10.2
	c-4.5-0.6-5.7,3.4-6.3,6.8c-1.1,6.3-1.7,11.9-2.3,18.2c-0.6,2.3-1.1,5.1,2.3,6.3s5.1-1.1,5.7-3.4C466.3,279.4,467.4,272.6,469.1,268
	z"/>
<path class="st1" d="M183.3,266.3c0-2.8-0.6-5.1-0.6-8c-1.7-8,2.8-12.5,9.7-14.8c11.4-4,16.5-1.1,17.6,10.2c1.1,9.7,1.7,19.3,3.4,29
	c1.7,9.1-12.5,19.3-21,15.3c-1.7-1.1-2.8-4.5-0.6-4.5c19.3-4,10.8-18.8,11.9-29.5c0-2.8-0.6-6.3-1.1-9.1c-0.6-3.4-4-5.7-7.4-4.5
	c-2.8,0.6-5.1,3.4-5.1,6.3c-0.6,8.5,0,17.6,1.1,26.1c0.6,2.8,0.6,5.7-2.3,6.3c-4.5,1.1-5.1-2.8-5.1-5.7
	C183.9,277.7,183.9,272,183.3,266.3L183.3,266.3z"/>
<path class="st1" d="M129.9,305.5c1.1-14.2,0.6-28.4-1.1-42.1c-1.1-10.8,0.6-13.1,9.7-15.9c8.5-2.3,11.4-1.1,12.5,8
	c1.1,9.7,2.8,19.3,4.5,29c2.3,10.2,0.6,14.2-9.7,18.2C140.7,305.5,135,306.7,129.9,305.5z M146.9,288.5c-1.1-9.1-2.3-18.2-3.4-27.8
	c-0.6-2.8-1.7-5.1-5.1-4.5c-2.8,0.6-4.5,2.8-4,5.7l0,0c1.1,9.1,2.3,18.8,3.4,27.8c0.6,2.8,1.7,6.3,6.3,5.1
	C146.9,293.6,147.5,290.7,146.9,288.5z"/>
<path class="st1" d="M317.4,262.3c0-3.4,0-7.4,0-10.8c0-11.9,0.6-11.9,10.2-11.9c11.9,0.6,14.8,2.3,14.2,13.1
	c-1.1,9.7-1.1,19.3,0,29c1.1,5.7-5.1,10.2-13.6,11.9c-6.3,1.1-7.4-2.3-9.1-6.8C315.1,278.2,318,270.3,317.4,262.3z M324.2,265.7
	L324.2,265.7c0,5.1,0,10.2,0.6,15.3c0,1.7,1.1,3.4,2.8,2.8c1.1,0,3.4-1.1,4-2.3c2.8-9.7,4-20.5,2.8-30.7c0-2.3-2.3-4-4-4
	c-2.3-0.6-4.5,1.1-5.1,3.4v0.6C324.2,256.7,324.2,261.2,324.2,265.7z"/>
<path class="st1" d="M277.1,257.2c-2.3,8.5-2.8,17.6-2.3,26.1c0,5.1,1.7,11.4-6.3,11.9c-6.3,0.6-13.6-0.6-15.3-7.4
	c-2.8-13.6-3.4-27.8-0.6-41.5c1.1-5.7,7.4-4,11.9-4c5.7,0,10.2,1.1,11.9,7.4C276.5,252.7,277.1,254.9,277.1,257.2z M269.1,264.6
	c0-4,0-6.8,0-9.1c0-2.8-2.8-5.1-5.7-5.1s-5.1,2.8-5.1,5.1c0,8.5,0,17.6,0.6,26.1c0,2.3,1.7,3.4,4,3.4l0,0c1.7,0,2.8-1.1,3.4-2.8
	C268,277.1,269.1,270.9,269.1,264.6L269.1,264.6z"/>
<path class="st1" d="M413.4,254.4c-1.1,8-1.7,16.5-3.4,24.4c-1.7,7.4-13.6,12.5-20.5,9.7c-2.8-1.1-5.1-4.5-4-7.4
	c1.1-9.7,2.3-19.3,4-29c1.1-6.8,3.4-11.9,12.5-10.2C411.2,243,413.4,245.3,413.4,254.4z M394.1,269.2c0,1.7,0.6,4.5,1.1,6.8
	c0.6,1.7,1.1,3.4,2.8,2.8c1.1,0,3.4-0.6,4-1.7c2.8-7.4,4.5-14.8,4-22.7c0-2.3-1.7-4-4-4c-2.3-0.6-4,0.6-5.1,2.3
	C394.7,257.8,394.1,263.5,394.1,269.2z"/>
</svg>
