<svg xmlns="http://www.w3.org/2000/svg" width="226" height="39" viewBox="0 0 226 39">
    <g fill="none" fillRule="evenodd">
        <path fill="#FFCA28" d="M16.148 4.658l-1.863 8.696h7.453l-4.97 18.632 6.877-3.572-2.528 9.782 17.39-23.6-9.316 3.105 1.864-4.347h8.695l1.863-8.696H16.148zM17.39 5.9h22.36l-1.242 6.211h-8.696l-3.105 8.075 7.453-2.485-9.316 12.421 1.242-4.967-6.832 3.725L23.6 12.111h-7.453l1.242-6.21z"/>
        <path fill="#263238" d="M12.577 16.148c3.565 0 6.735-1.096 8.814-2.794h.347l-.422 1.58c-2.265 1.518-5.344 2.457-8.739 2.457-4.995 0-9.307-2.03-11.335-4.953v1.226c0 4.11 5.085 7.454 11.335 7.454 2.933 0 5.597-.745 7.611-1.952l-.43 1.616c-2.04.986-4.509 1.578-7.18 1.578-4.996 0-9.308-2.03-11.336-4.953v1.226c0 4.11 5.085 7.454 11.335 7.454 2.237 0 4.32-.436 6.078-1.174l-.39 1.468c-1.71.604-3.642.947-5.688.947-4.995 0-9.307-2.03-11.335-4.953v1.227c0 4.11 5.085 7.451 11.335 7.451 1.648 0 3.205-.244 4.618-.663l-.37 1.389a17.52 17.52 0 0 1-4.248.516c-6.784 0-12.315-3.734-12.554-8.383H0V8.697C0 3.9 5.642 0 12.577 0c4.827 0 9.024 1.89 11.131 4.657h-1.625c-2.02-2.052-5.52-3.416-9.506-3.416-6.25 0-11.335 3.343-11.335 7.453s5.085 7.453 11.335 7.453z"/>
        <g fill="#263238">
            <path d="M65.097 20.467c-.106 1.52-.649 2.718-1.627 3.59-.979.875-2.269 1.31-3.87 1.31-1.752 0-3.129-.608-4.132-1.828-1.004-1.22-1.506-2.894-1.506-5.022v-.863c0-1.36.231-2.556.694-3.591.463-1.035 1.124-1.83 1.984-2.383.86-.553 1.86-.83 2.998-.83 1.575 0 2.845.437 3.808 1.31.963.873 1.52 2.1 1.67 3.678h-2.814c-.07-.912-.315-1.573-.737-1.984-.422-.41-1.065-.616-1.927-.616-.938 0-1.64.347-2.107 1.042-.466.697-.705 1.775-.717 3.237v1.068c0 1.527.223 2.643.671 3.348.446.705 1.152 1.057 2.115 1.057.87 0 1.518-.205 1.946-.616.428-.41.674-1.046.737-1.907h2.814zM77.08 17.79c0-1.483-.256-2.608-.77-3.378-.511-.77-1.243-1.155-2.193-1.155-.945 0-1.674.38-2.186 1.14-.514.76-.773 1.874-.78 3.343v.69c0 1.442.258 2.561.77 3.357.513.796 1.25 1.193 2.214 1.193.944 0 1.67-.382 2.176-1.149.507-.767.764-1.885.77-3.354v-.688zm2.853.64c0 1.39-.238 2.61-.714 3.658-.474 1.048-1.155 1.856-2.04 2.426-.885.57-1.9.854-3.044.854-1.132 0-2.142-.28-3.03-.845-.888-.562-1.576-1.366-2.064-2.41-.487-1.046-.735-2.248-.741-3.606v-.698c0-1.392.243-2.617.727-3.674.485-1.058 1.17-1.869 2.054-2.436.886-.565 1.897-.848 3.036-.848 1.137 0 2.149.283 3.034.848.885.567 1.57 1.378 2.055 2.436.484 1.057.727 2.28.727 3.664v.631zM83.923 25.174h2.814v-14.13h-2.814zM102.22 25.174h-2.814l-5.478-9.297v9.297h-2.815v-14.13h2.815l5.487 9.317v-9.317h2.805zM116.454 13.402h-4.184v11.771h-2.814v-11.77h-4.127v-2.359h11.125zM128.044 19.05h-5.404v3.785h6.341v2.339h-9.155v-14.13h9.137v2.359h-6.323v3.367h5.404zM135.215 22.835h5.976v2.339h-8.79v-14.13h2.814zM152.79 19.05h-5.404v3.785h6.341v2.339h-9.155v-14.13h9.137v2.359h-6.323v3.367h5.404zM167.953 23.389c-.506.627-1.223 1.113-2.148 1.46-.926.347-1.952.519-3.077.519-1.182 0-2.219-.267-3.11-.8-.89-.534-1.58-1.31-2.064-2.325-.485-1.015-.733-2.21-.746-3.581v-.96c0-1.411.23-2.632.69-3.664.46-1.032 1.122-1.821 1.99-2.368.865-.546 1.88-.82 3.043-.82 1.62 0 2.886.4 3.8 1.199.913.799 1.454 1.962 1.622 3.488h-2.739c-.125-.808-.402-1.4-.83-1.775-.429-.376-1.018-.563-1.768-.563-.957 0-1.686.372-2.186 1.116-.5.744-.754 1.85-.76 3.319v.902c0 1.482.272 2.6.816 3.358.544.757 1.342 1.136 2.392 1.136 1.057 0 1.811-.234 2.261-.7v-2.435h-2.56V17.75h5.374v5.639zM174.815 17.644h2.27c.707 0 1.254-.187 1.642-.56.388-.37.58-.883.58-1.537 0-.666-.181-1.19-.548-1.572-.365-.381-.926-.572-1.683-.572h-2.261v4.24zM177.056 20h-2.242v5.173H172v-14.13h5.075c1.613 0 2.858.372 3.734 1.117.875.744 1.313 1.795 1.313 3.154 0 .964-.202 1.767-.605 2.41-.404.645-1.016 1.158-1.835 1.539l2.955 5.775v.135h-3.02L177.055 20zM189.565 19.904h3.415l-1.717-5.289-1.698 5.29zm4.174 2.358h-4.934l-.938 2.912h-2.993l5.085-14.13h2.607l5.113 14.13h-2.992l-.948-2.912zM203.538 17.837h2.514c.744 0 1.311-.181 1.702-.543.391-.362.587-.88.587-1.553 0-.692-.197-1.252-.592-1.678-.393-.427-.937-.648-1.63-.661h-2.58v4.435zm0 2.358v4.979h-2.814v-14.13h5.328c1.026 0 1.927.194 2.706.583.78.388 1.378.939 1.797 1.654.418.715.628 1.529.628 2.441 0 1.385-.458 2.476-1.374 3.275-.916.799-2.185 1.198-3.804 1.198h-2.467zM226 25.174h-2.814v-6.056h-5.488v6.056h-2.814v-14.13h2.814v5.726h5.488v-5.726H226z"/>
        </g>
    </g>
</svg>
