<svg xmlns="http://www.w3.org/2000/svg" width="45" height="32" viewBox="0 0 45 32">
    <g fill="#EE8060" fillRule="nonzero">
        <path d="M25.75 4.441a17.202 17.202 0 0 0-8.85 0 .75.75 0 0 0 .39 1.449 15.71 15.71 0 0 1 8.069 0 .75.75 0 0 0 .391-1.449z"/>
        <path d="M43.894 11.465a6.205 6.205 0 0 1-1.489.594c.066-.43.019-.84-.119-1.213a.751.751 0 0 0-.068-.193 1.977 1.977 0 0 0-.039-.08l-.004-.01a.745.745 0 0 0-.094-.134 1.643 1.643 0 0 0-.998-.676 1.914 1.914 0 0 0-1.326.194c-.838.454-1.2 1.417-.87 2.216a.762.762 0 0 0 .057.14l.004.008c.015.028.032.055.055.093.008.014.02.024.029.038.22.348.528.631.905.838-.192.14-.402.262-.631.357-.355.149-.76.165-1.114.167C37.432 6.561 30.158.86 21.322.86c-2.677 0-5.32.533-7.688 1.546-.998-1.268-2.598-1.91-4.768-1.91H6.005a.75.75 0 0 0-.663 1.1l2.502 4.755c.026.05.001.106-.029.138a13.625 13.625 0 0 0-2.268 3.385c-.338.72-.99 1.169-1.701 1.169H2.083A2.084 2.084 0 0 0 0 13.125v3.862c0 1.149.934 2.083 2.083 2.083h1.763c.712 0 1.363.449 1.7 1.172.903 1.939 2.343 3.72 4.163 5.151.496.393.792 1.027.792 1.695v3.666c0 .415.335.75.75.75h4.543a.75.75 0 0 0 .75-.75v-2.073c3.154.777 6.59.761 9.712-.039v2.113c0 .414.336.75.75.75h4.544a.75.75 0 0 0 .75-.75v-3.79c0-.657.29-1.285.772-1.677 3.276-2.637 5.106-6.175 5.182-9.985.45-.004 1.04-.036 1.629-.28a4.482 4.482 0 0 0 1.8-1.364c.895-.025 1.893-.317 2.923-.875a.75.75 0 0 0-.712-1.319zM32.13 24.12c-.846.686-1.33 1.722-1.33 2.845v3.039h-3.044V28.22a1.178 1.178 0 0 0-1.5-1.131c-3.109.869-6.574.888-9.727.039a1.18 1.18 0 0 0-1.485 1.139v1.736h-3.043v-2.916c0-1.122-.509-2.195-1.364-2.872C9 22.928 7.71 21.335 6.906 19.608c-.587-1.258-1.76-2.038-3.06-2.038H2.083a.584.584 0 0 1-.583-.583v-3.862c0-.322.262-.583.583-.583h1.763c1.299 0 2.471-.779 3.06-2.034.5-1.07 1.18-2.084 2.021-3.011.46-.508.558-1.248.245-1.845L7.247 1.996h1.62c1.923 0 3.182.565 3.85 1.725a.75.75 0 0 0 .97.305c2.314-1.09 4.955-1.666 7.635-1.666 8.317 0 15.115 5.437 15.425 12.215a.677.677 0 0 0 .003.095c.005.129.012.258.012.387 0 3.441-1.645 6.659-4.633 9.063zm8.341-12.854a.412.412 0 0 1 .284-.049c.028.006.078.022.102.068l.002.004c.1.192.1.469.007.767-.275-.096-.486-.25-.6-.46v-.002c-.032-.06.022-.228.205-.327z"/>
        <circle cx="9.686" cy="11.348" r="1.004"/>
    </g>
</svg>
