<svg xmlns="http://www.w3.org/2000/svg" width="16" height="16" viewBox="0 0 485.211 485.211" enable-background="new 0 0 485.211 485.211"><path d="M485.211 363.906c0 10.637-2.992 20.498-7.785 29.174l-153.201-171.41 151.54-132.584c5.895 9.355 9.446 20.344 9.446 32.219v242.601zm-242.605-111.113l210.863-184.5c-8.653-4.737-18.397-7.642-28.908-7.642h-363.91c-10.524 0-20.271 2.905-28.889 7.642l210.844 184.5zm58.787-11.162l-48.809 42.734c-2.855 2.487-6.41 3.729-9.978 3.729-3.57 0-7.125-1.242-9.98-3.729l-48.82-42.736-155.139 173.601c9.299 5.834 20.197 9.329 31.983 9.329h363.911c11.784 0 22.687-3.495 31.983-9.329l-155.151-173.599zm-291.945-152.546c-5.894 9.355-9.448 20.344-9.448 32.22v242.602c0 10.637 2.978 20.498 7.789 29.174l153.183-171.44-151.524-132.556z" fill="#fff"/></svg>