<svg xmlns="http://www.w3.org/2000/svg" width="20" height="32" viewBox="0 0 20 32">
    <path fill="#EE8060" fillRule="evenodd" d="M8.681.053c3.062-.327 6.151.874 8.217 3.2 1.451 1.633 2.193 4.08 2.225 7.341.062 6.744.062 10.923 0 12.537-.026.662-.694 1.734-.835 2.384-.039.184-.98 1.59-1.247.818-.013-.033-.008-.08.005-.13.073-.117.14-.239.195-.365.06-.144.156-.358.11-.52-.015-.06-.054-.09-.123-.104a.19.19 0 0 0-.091.016c-.156.075-.258.219-.423.225-.18-.183.013-.371.082-.54.12-.293.206-.532.369-.8.043-.072.132-.128.16-.207.07-.217.024-.551.035-.777l.072-1.62c.069-1.54.126-3.7.126-7.218-.306.651-1.725 2.18-4.257 4.588-.417 2.806-1.103 10.94-.908 10.99 1.21.312 2.454.564 3.647.942.314.102.633.328.47.719-.136.327-.477.307-.765.307h-3.818c-.308 0-.687.06-.86-.265-.105-.19-.049-.378-.023-.582.02-.157.033-.336.074-.486.017-.066.026-.157.041-.323.02-.137.042-.276.061-.413.4-7.123.556-10.67.468-10.642-1.206.374-1.564.12-2.817 0-.596-.058-1.068.053-1.257 0-.133-.037.739 6.535.72 10.167-.009 1.525.146 2.626-.47 2.669-2.085.146-2.643-.198-3.918-.198-.269 0-.668.071-.88-.146-.319-.325-.07-.71.262-.851.438-.183.965-.25 1.422-.367.681-.175 1.36-.352 2.04-.526.24-.062-.123-7.93-.459-10.748-2.316-1.228-3.866-2.84-4.653-4.835.171 3.828-.169 4.812 0 8.64.013.287.531.714.672.966.152.267.48.73.508 1.021.01.118.067.213-.029.319-.067.075-.186.086-.281.062-.133-.036-.115-.084-.141-.118a3.713 3.713 0 0 1-.024-.152c-.02-.146-.245-.146-.228 0 .05.385.154.783.321 1.143-.009.11-.067.192-.225.201-.72.04-2.166-3.451-2.203-4.263-.1-2.277.043-4.81 0-5.786-.022-.493 0-1.65 0-2.199 0-1.835-.048-3.3-.048-5.278 0-1.505.68-2.91 1.453-4.172C3.025 2.103 5.723.37 8.68.053zm.886 17.486a7.972 7.972 0 1 0 0-15.945 7.972 7.972 0 0 0 0 15.945z"/>
</svg>
