<svg xmlns="http://www.w3.org/2000/svg" xmlns:xlink="http://www.w3.org/1999/xlink" width="84" height="84" viewBox="0 0 84 84">
    <defs>
        <path id="a" d="M41.94 97.692h49.848A5.212 5.212 0 0 0 97 92.48v-.644a5.212 5.212 0 0 0-5.212-5.211H78.35a6.558 6.558 0 0 0 0-13.116h-3.006a6.558 6.558 0 0 0 0-13.116h-4.099a6.558 6.558 0 0 0 0-13.116H47.896l17.767-20.413a6.558 6.558 0 0 0-9.894-8.611L24.28 54.425c-.187.217-.33.455-.486.687C19.585 59.578 17 65.591 17 72.212v.54c0 13.773 11.165 24.94 24.94 24.94z"/>
        <path id="b" d="M0 7.455V.201h6.508v7.254H0z"/>
    </defs>
    <g fill="none" fillRule="evenodd">
        <g fillRule="nonzero" transform="rotate(-35 11.284 91.248)">
            <use fill="#FFF" fillRule="evenodd" xlink:href="#a"/>
            <path stroke="#EE8060" stroke-width="3" d="M41.94 96.192h49.848A3.712 3.712 0 0 0 95.5 92.48v-.644a3.712 3.712 0 0 0-3.712-3.711H78.35v-3a5.058 5.058 0 0 0 0-10.116h-3.006v-3a5.058 5.058 0 0 0 0-10.116h-4.099v-3a5.058 5.058 0 0 0 0-10.116H44.601l2.163-2.485 17.767-20.413a5.058 5.058 0 1 0-7.63-6.642L25.413 55.408a3.39 3.39 0 0 0-.263.372l-.005.008-.105.159-.07.103-.085.091A23.34 23.34 0 0 0 18.5 72.213v.539c0 12.945 10.494 23.44 23.44 23.44z"/>
        </g>
        <path fill="#211E1E" d="M17.35 45.738a.447.447 0 0 0 .014-.009v.003l-.014.006zm-.664.859l.015.004v.003l-.015-.007zm2.579 2.84a2 2 0 0 0 .178-.193l.08.183a.494.494 0 0 0-.23.003l-.028.007zm-4.74-3.19l.557 1.438c.145.391.291.781.44 1.171.004.018.007.035.013.053l.042.094.152.402c.203.565.424 1.123.662 1.675.025.083.05.163.072.241.03.1.093.175.19.224.037.02.074.03.112.036.031.007.064.01.096.008a.14.14 0 0 0 .07-.003c.228-.071.454-.144.68-.218 0 .005.003.01.004.015.834-.272 1.66-.566 2.479-.883a.142.142 0 0 0 .088-.178l-.03-.09c-.007.004-.016.007-.023.012-.146-.453-.32-.893-.524-1.324a.168.168 0 0 0-.025-.038l-.009-.028.014-.02-.018-.053a2.973 2.973 0 0 0-.041-.124l-.018.007-.003-.01-1.522.557-.11-.293c.096-.033.191-.067.286-.103.093-.035.198-.064.254-.152.048-.074.053-.171.058-.261.065.07.137.13.237.14h.002c.01.001.017.005.028.006.168.015.365-.086.524-.134a.13.13 0 0 0 .08-.071l.064-.024-.094-.25-.022.013-.287-.765a.74.74 0 0 0-.077-.148 11.06 11.06 0 0 0-.108-.242l.01-.024-.008-.017a.19.19 0 0 0-.043-.057c-.035-.07-.04-.124-.126-.153-.006-.002-.014-.002-.021-.003-.15-.05-.447.145-.57.196-.118.05-.238.099-.358.148a7.058 7.058 0 0 0-.56.204c-.01-.027-.02-.055-.032-.082l.026.085-.009.004-.003-.003a8.027 8.027 0 0 0-.221-.525l.024-.004-.034-.077c.07-.01.154-.031.253-.068.08-.022.2-.062.357-.12.196-.071.342-.129.438-.171.072-.026.158-.06.258-.1.1-.04.217-.082.35-.123l-.043-.117a.594.594 0 0 0-.31-.32l-.036-.012a6.682 6.682 0 0 0-.08-.287l.155-.103-.18-.48v.018l-.128-.342-.018.007-.004-.01-3.016 1.105c-.222.048-.439.125-.494.263-.043.105.014.241.078.362.016.043.035.085.052.125zM26.307 43.712c.077.29.175.573.285.852l.018-.004h.001l.003.007c.006 0 .012-.002.017-.004l.131-.048c.086.036.172.07.26.1-.069.088-.092.142-.067.16.092.074.202.14.328.197a2.579 2.579 0 0 0 .797.237c.046.006.09.014.138.019.257.023.514.017.773-.02l-.014.007c.099-.013.198-.03.298-.051a.703.703 0 0 1 .45.027c.145.06.234.157.267.289a.583.583 0 0 1-.067.435.53.53 0 0 1-.352.273.585.585 0 0 1-.228.008.72.72 0 0 1-.236-.093c-.154-.092-.247-.2-.284-.324-.049-.011-.098-.018-.131-.026-.056-.012-.11-.023-.165-.039l-.003.002-.018-.004c-.43.14-.86.282-1.305.368l-.004.004a4.69 4.69 0 0 0-.14.58c.009.019.021.036.04.049a.234.234 0 0 0 .037.072c.268.362.663.626 1.184.791a2.942 2.942 0 0 0 1.607.05 1.88 1.88 0 0 0 .544-.22c.106-.064.227-.145.36-.239a.136.136 0 0 0 .063-.022 2.28 2.28 0 0 0 .604-.575.037.037 0 0 0 .012-.01c.168-.207.297-.424.39-.65-.013-.4-.013-.802-.012-1.203a1.926 1.926 0 0 0-.111-.25l.055.057a1.477 1.477 0 0 0-.564-.62c-.193-.123-.432-.328-.664-.415l-.036-.024a.057.057 0 0 0-.039-.01c-.02-.01-.037-.01-.052-.002-.31-.067-.812.09-1.116.131a.07.07 0 0 0-.038.019.133.133 0 0 0-.044.016 3.549 3.549 0 0 0-.38.07.716.716 0 0 1-.323.007.613.613 0 0 1-.09-.032.404.404 0 0 1-.26-.371c.041-.158.093-.313.154-.464 0-.002.002-.003.003-.004-.015.007-.029.017-.043.026l.01-.03.036-.045.57-.069.022-.002c.014.01.027.022.04.033.073.168.161.395.328.427.02.006.042.01.065.009a.563.563 0 0 0 .222-.069.964.964 0 0 0 .183-.05l-.005-.008c.072-.026.144-.055.21-.076l.664-.205c.009-.002.016-.006.023-.01l.017-.003-.001.017.013-.006.284-.068a4.734 4.734 0 0 1 .002-.305c-.183-.338-.328-.693-.576-.985l-.11-.065-.037-.022-.036-.02a3.538 3.538 0 0 0-.135-.073 1.948 1.948 0 0 0-.551-.19 1.479 1.479 0 0 0-.316-.025l-.035.002-.123.001a2.682 2.682 0 0 0-.338.006 2.875 2.875 0 0 0-.723.112 5.996 5.996 0 0 0-.559.141l-.044.01c-.019.002-.038.006-.056.009-.005 0-.007.003-.01.004-.045.01-.089.016-.133.026a.066.066 0 0 0-.062.02c-.222.213-.4.466-.571.72a7.45 7.45 0 0 0-.299.471.121.121 0 0 1 .003.041 10.81 10.81 0 0 0-.038.715c.008.144.02.288.033.433M25.777 47.144a2.05 2.05 0 0 1-.207.306l-.074-.197.094-.15c.063.009.127.02.186.041h.001m-6.682-3.152l.03.065.007.017a.138.138 0 0 0 .005.066c.171.518.358 1.03.562 1.536.01.024.024.042.04.056l.367.998c.153.417.38.782.685 1.095.175.181.367.338.572.471.228.17.496.308.722.425.082.042.156-.002.187-.066l.154-.176a.647.647 0 0 0 .155-.177l.052-.06c.02.166.042.332.067.497.011.072.068.14.15.13h.005a.297.297 0 0 1-.015.005.125.125 0 0 0 .04.003c.164-.017.327-.04.49-.063.103-.007.201-.016.292-.026.193-.023.382-.067.567-.13l.015-.004c.011.005.022.008.034.01a.143.143 0 0 0 .119-.01c.43-.225.853-.464 1.195-.784.14-.098.265-.207.36-.331.096-.128.157-.284.199-.453.304-.72.37-1.635.17-2.386a.137.137 0 0 0-.015-.035l.002.022a.132.132 0 0 0-.026-.048 2.418 2.418 0 0 0-.033-.099l-.394-1.074.017.103-.113-.308c.01.002.02.002.029.005l-.715-1.948-.005.002-.003-.006-.018.006-.003-.01-1.738.623a.468.468 0 0 0-.27.24.432.432 0 0 0-.02.355l.702 1.915a.585.585 0 0 0 .28.322c.066.036.133.06.201.073l-.166.053a.128.128 0 0 0-.082.07.123.123 0 0 0-.026.135c.072.198.14.398.205.6a.898.898 0 0 1-.09.429.921.921 0 0 1-.544.486.953.953 0 0 1-.436.053.91.91 0 0 1-.129-.026 17.56 17.56 0 0 1-.706-.793l-.744-2.026.046.198-.214-.583a.71.71 0 0 0-.39-.419c-.012-.005-.023-.007-.034-.011v-.007a.785.785 0 0 0-.105-.03h-.006c-.023-.006-.046-.008-.069-.01a.758.758 0 0 0-.366.038l-1.42.508.16.439a.13.13 0 0 0 .012.05M53.907 62c-.062-.405-.114-.81-.158-1.216a7.53 7.53 0 0 0-.002-.702l-.025-.505-.11-.828-.002-.046a4.243 4.243 0 0 0-.025-.406c.007-.254.049-.63-.074-.818-.084-.128-.262-.212-.439-.281.03-.042.06-.083.087-.125a.774.774 0 0 0 .104-.26.48.48 0 0 1 .035-.024l-.016-.112c.028-.34-.085-.722-.107-1.039-.096-1.328-.051-2.66-.171-3.989-.12-1.32-.32-2.629-.528-3.937-.031-.194-.043-.414-.11-.594v.021c-.061-.181-.173-.327-.407-.373a4.218 4.218 0 0 0-.368-.053c-.379-.04-.774-.041-1.157-.05l-.187-.028a6.728 6.728 0 0 0-.5-.053c-.068-.013-.096.106-.083.358l.003.043a8.247 8.247 0 0 1-.318-.136c-.223-.102-.446-.26-.686-.315l-.02-.002h-.002c-.466-.108-1.1.147-1.547.265-.097.026-.167.138-.16.234.034.41.117.798.254 1.185a32.197 32.197 0 0 1 .273 3.824l-1.77.065-.007-.078-.02.009-.013-.15.029-.004c-.177-2.154-.323-3.573-.44-4.251a.723.723 0 0 0-.058-.104v.015a.628.628 0 0 0-.457-.295h-.012l-.01-.003c-.018.001-.033 0-.047-.002a.08.08 0 0 1-.035-.015 31.288 31.288 0 0 0-1.44-.172A11.428 11.428 0 0 0 41.485 47a4.681 4.681 0 0 0-.77.094c-.15.016-.298.034-.444.06-.209.036-.382.096-.461.309-.088.235-.044.548-.045.794-.003.426.004.851.018 1.277.053 1.581.208 3.157.388 4.729.176 1.545.376 3.087.527 4.635.077.788.141 1.578.183 2.368.024.458-.154 1.317.365 1.558a.814.814 0 0 0 .236.064c.239.037.509-.003.73-.009.134-.003.29.008.447.01v-.004c.201 0 .403-.017.56-.103.231-.129.302-.406.4-.634l.253-.596.058.208c.17.666.29.997.358.994l.897-.02.044-.003-.001.009c.204-.011.506-.043.904-.096a.604.604 0 0 0 .276-.14.4.4 0 0 0 .14-.26c.123-.615.168-1.24.135-1.88-.015-.304-.077-.84-.184-1.612l-.046-.297c-.03-.67-.1-1.336-.211-2l.802-.084c.162.008.446.002.85-.018l-.024-.007.067-.003c.073.772.12 1.36.141 1.764l.039 1.264.09 2.273a.843.843 0 0 0 .274.594c.13.122.278.188.446.2.06.007.123.008.188 0 .195-.01.473-.013.83-.008l-.001-.003.22.004c.952.047 1.903.014 2.85-.103a.16.16 0 0 0 0 .01c.225-.026.448-.056.672-.093.116-.02.241-.112.22-.246M24.888 64.029l.01.017-.118.04c.033-.019.069-.037.108-.057zm-1.768-3.936l-.03.009-.043-.125.073.116zm4.08 4.896l-.642-2.023.003.03-.146-.461a.228.228 0 0 0-.035-.068c-.008-.032-.015-.06-.02-.086a4.654 4.654 0 0 1-.047-.1.885.885 0 0 0-.006-.022l-3.918 1.096-.011-.04-.013.005.016.037-.011.004-.217-.76.775-.254-.108.052 1.098-.36.92-.302c.214-.07.462-.126.688-.207a2.03 2.03 0 0 0 .23-.048l.33-.093-.732-2.557a1.833 1.833 0 0 0-.231-.507c-.103-.323-.211-.645-.326-.964a.19.19 0 0 0-.105-.11v-.002a.252.252 0 0 0-.082-.024.326.326 0 0 0-.163.008l-.984.308c-.1.01-.2.024-.303.049-1.103.237-1.946.454-2.529.653a.5.5 0 0 1-.148-.229 1.305 1.305 0 0 1-.046-.258 1.211 1.211 0 0 0-.04-.232c-.038-.134-.1-.225-.187-.273-.049-.04-.413-.227-1.093-.56a5.8 5.8 0 0 1-.968-.584l1.286.41c.106.034.209.068.31.098.038.014.072.025.1.034l.019.002.003.001a2.664 2.664 0 0 0 .246.054l-.003.001c.222.043.445.05.691-.014 1.127-.296 2.237-.689 3.35-1.037.09-.018.18-.037.272-.054.117-.022.24-.143.204-.272-.178-.636-.71-.946-1.14-1.365v.022c-.102-.097-.2-.2-.286-.314.27-.152.457-.257.56-.312l-.334-1.166.014-.024-.216-.754-.025-.016-.028-.095-7.9 2.21a1.391 1.391 0 0 0-.854.658c-.197.335-.24.695-.13 1.079l1.342 4.509c.702 2.753 1.445 5.539 2.41 8.214.027.123.052.245.076.364.038.18.123.332.25.456.137.234.327.382.593.397.094.008.197 0 .312-.027.325-.08.647-.222.959-.338.074-.027.147-.054.216-.084l-.005-.01a.595.595 0 0 0 .301-.265c.244-.467-.25-1.143-.44-1.547l-.484-1.034a6.41 6.41 0 0 0-.095-.271l.952 1.79c.163.316.407.546.732.69a1.47 1.47 0 0 0 1.02.066l2.183-.61-.121.049 1.499-.42c.126-.035.243-.083.352-.141.436-.08.882-.21 1.116-.487.124-.147.131-.275.097-.453-.072-.372-.237-.75-.352-1.112zM27.055 53.339c.017.074.036.148.055.222l-.063-.211.008-.011zm.58 1.737l-.01-.027.012.028h-.002zm11.587-2.5c-.008.005-.015.01-.023.013a60.603 60.603 0 0 1-.651-2.352l.021.003a78.042 78.042 0 0 1-.158-.625.36.36 0 0 0-.173-.252.426.426 0 0 0-.163-.057.454.454 0 0 0-.17 0l-.044.01a.177.177 0 0 0-.143-.212.166.166 0 0 0-.107.007c-1.144.445-2.352.649-3.56.849l-3.626.6c-.136.023-.164.166-.11.256-.07.109-.138.219-.204.33-.345-.11-.705-.22-1.06-.265a2.151 2.151 0 0 0-.646 0c-.422.072-.845.223-1.261.39a9.02 9.02 0 0 0-1.032.316.15.15 0 0 0-.08.063c-.062.013-.121.076-.096.154l.067.2a.11.11 0 0 0-.001.077l.21.629.592 2.331c.063.246.079.632.354.75a1.21 1.21 0 0 0 .328.067c.029.011.06.02.091.025l.014.001.008.002c.173.03.373-.017.566-.07.09-.012.176-.024.25-.03a.148.148 0 0 0 .113-.065l.292-.061-.004-.007 1.01-.212c.21-.045.46-.071.692-.12.001.01.001.018.004.028l.544 2.486c.061.28.077.642.236.888.07.108.176.195.292.273-.165.171-.279.352-.22.631.082.394.209.783.331 1.172l.44 2.441a.214.214 0 0 0 .012.065l.366 2.035a.34.34 0 0 0 .276.134.648.648 0 0 0 .334-.067l.24-.045c.352-.048.702-.1 1.053-.152l-.001-.005a79.296 79.296 0 0 0 2.466-.413v.013c.285-.052.57-.105.855-.16.11-.021.218-.13.188-.25l-.216-.86-.517-3.03-.027.005-.002-.012c-.31.057-.551.144-.724.258.073-.12.15-.244.218-.37l.006.052c.067-.119.125-.24.16-.366.065-.24-.002-.49-.04-.728a19761.564 19761.564 0 0 1-.813-4.985l-.027.013-.05-.31a27.7 27.7 0 0 0 .998-.203l-.038.022c.764-.165 1.589-.36 1.81-.401a.628.628 0 0 0 .485-.288.664.664 0 0 0 .082-.559l-.017-.056z"/>
        <g transform="translate(8 45.97)">
            <mask id="c" fill="#fff">
                <use xlink:href="#b"/>
            </mask>
            <path fill="#211E1E" d="M2.71 2.504c-.022-.063.013-.142.08-.161a.776.776 0 0 1 .089-.02l-.026.013a.76.76 0 0 1 .116-.017.121.121 0 0 1 .087-.031c.01.002.02.004.03.009l.113.052a.826.826 0 0 1 .159.075c.266.13.49.27.65.568.048.09.083.181.11.275.072.191.101.382.088.571l.003.058c.01.021.015.046.011.075-.001.01-.005.021-.007.033l.004.073a.115.115 0 0 1-.055.105c-.023.058-.05.114-.08.166-.057.1-.136.222-.256.252a.136.136 0 0 1-.037.004.128.128 0 0 1-.038 0 .136.136 0 0 1-.087-.075l-.025-.063a8.8 8.8 0 0 1-.9-1.955v-.002l-.026.004-.004-.01m-.676 1.815l-.042.002.06-.018-.018.016M4.614.857c-.002.005-.005.009-.006.014l-.006.026C4.599.878 4.598.86 4.594.841l.02.016m1.83 3.54a3.522 3.522 0 0 0 .011-1.274l-.011.113a3.504 3.504 0 0 0-.26-.919 3.494 3.494 0 0 0-.944-1.28c-.015-.012-.061.014-.138.075A.647.647 0 0 0 5.029.81c-.073-.115-.243-.203-.396-.27h.014C4.582.508 4.52.484 4.472.462A3.08 3.08 0 0 0 3.693.24a3.363 3.363 0 0 0-.797-.027c-.145 0-.288.011-.428.03-.117.014-.232.031-.346.058a3.118 3.118 0 0 0-.243.075C1.256.568.666.894.082 1.174a.071.071 0 0 0-.04.054c-.03.012-.053.042-.037.082.42 1.028.838 2.056 1.256 3.084.013.03.038.047.071.047h.012c.003 0 .006.003.01.003l.529.007a18.11 18.11 0 0 1-.258.22c-.05.039-.08.076-.088.112a.32.32 0 0 0 .027.148l.553 1.299.327.78.18.415a.146.146 0 0 0 .088.028c.036.005.077 0 .124-.02l.084-.036.265-.112c.03-.005.059-.012.088-.018l-.006-.007c.171-.038.326-.1.5-.176.159-.07.321-.12.483-.17l-.044.03c.132-.042.265-.082.397-.134.126-.05.246-.115.361-.19a2.42 2.42 0 0 0 .69-.452c.115-.106.206-.226.275-.36.186-.225.337-.49.426-.74.075-.21.094-.438.089-.671" mask="url(#c)"/>
        </g>
    </g>
</svg>
