<svg xmlns="http://www.w3.org/2000/svg" width="18" height="16" viewBox="0 0 18 16"><path fill="#FFF" fillRule="evenodd" d="M18 2.322a7.071 7.071 0 0 1-2.12.612 3.865 3.865 0 0 0 1.623-2.15 7.164 7.164 0 0 1-2.346.942 3.601 3.601 0 0 0-2.695-1.226c-2.038 0-3.692 1.74-3.692 3.886 0 .305.032.6.095.885-3.069-.162-5.79-1.708-7.612-4.062a4.038 4.038 0 0 0-.5 1.956c0 1.348.652 2.538 1.643 3.235a3.556 3.556 0 0 1-1.673-.485v.048c0 1.884 1.273 3.455 2.963 3.81-.31.092-.636.137-.973.137-.238 0-.47-.023-.695-.069.47 1.544 1.833 2.668 3.45 2.698a7.177 7.177 0 0 1-5.468 1.611 10.095 10.095 0 0 0 5.66 1.745c6.794 0 10.508-5.921 10.508-11.057l-.01-.504a7.7 7.7 0 0 0 1.842-2.012"/></svg>