<svg xmlns="http://www.w3.org/2000/svg" width="36" height="46" viewBox="0 0 36 46">
    <g fill="none" fillRule="evenodd">
        <path fill="#99A6B2" fillRule="nonzero" d="M9.667 18.167c0-.15.038-.426.144-.68.14-.337.328-.487.689-.487.36 0 .549.15.69.487.105.254.143.53.143.68v.666a.833.833 0 0 0 1.667 0v-.666c0-.35-.066-.825-.272-1.32-.381-.914-1.13-1.514-2.228-1.514-1.098 0-1.847.6-2.228 1.513-.206.496-.272.97-.272 1.32v.667a.833.833 0 0 0 1.667 0v-.666zM25.5 20.833c1.38 0 2.5-1.306 2.5-2.916C28 16.306 26.88 15 25.5 15S23 16.306 23 17.917c0 1.61 1.12 2.916 2.5 2.916zm-10.126 4.56c.08.13.282.366.603.611.544.415 1.21.663 2.023.663.813 0 1.479-.248 2.023-.663.32-.245.523-.482.603-.61a.833.833 0 0 1 1.415.88c-.179.288-.51.675-1.007 1.055-.822.627-1.837 1.004-3.034 1.004-1.197 0-2.212-.377-3.034-1.004-.498-.38-.828-.767-1.007-1.056a.833.833 0 1 1 1.415-.88z"/>
        <path stroke="#99A6B2" d="M2.5 39.5h31V14.304C33.5 6.72 26.563.5 18 .5 9.437.5 2.5 6.72 2.5 14.304V39.5zM.5 42.5h35v3H.5z"/>
    </g>
</svg>
