<svg xmlns="http://www.w3.org/2000/svg" width="32" height="32" viewBox="0 0 32 32">
    <path fill="#EE8060" fillRule="nonzero" d="M31.996 6.632V4.145c-.08-.912-.19-1.054-.997-1.136l-4.922-.054-.19-1.504C25.888.663 25.019 0 24.253 0H7.31c-.767 0-1.412.663-1.412 1.45v1.12H1.502C.655 2.61.091 3.233.01 4.104v2.528c-.04.663-.242 7.088 6.454 8.166 1.048 3.026 3.469 5.43 6.534 6.342v4.104l-5.324 2.61c-.807.498-1.21 1.162-1.21 1.908v.829c.08.87.645 1.409 1.492 1.409h15.69c.848 0 1.453-.539 1.493-1.368v-.87c0-.746-.403-1.41-1.17-1.866l-5.283-2.611v-4.187c2.944-.911 5.324-3.274 6.413-6.259 2.259-.29 3.993-1.16 5.203-2.611 1.856-2.28 1.694-5.181 1.694-5.596zm-30.494.124V4.187c-.445-.083 0-.083 0-.083h.04l4.518-.042v7.296c0 .29 0 .538.04.829v.082c.041.29.081.54.122.87-4.962-1.201-4.76-6.134-4.72-6.383zM23.647 29.72v.705H7.916v-.705c0-.207.242-.414.403-.497l5.486-2.653h3.953l5.486 2.653c.16.083.403.29.403.497zm-6.494-8.166v3.482H14.49v-3.482h2.662zm-1.372-1.533c-3.791 0-7.335-2.57-8.384-6.094-.04-.207-.121-.414-.161-.621-.081-.373-.121-.788-.162-1.16v-.125c0-.208-.04-.373-.04-.58V1.09h18.065v10.167c0 .207 0 .373-.04.58v.124c0 .166-.04.373-.04.54-.041.248-.081.414-.122.621 0 .041 0 .083-.04.124l-.121.498c-1.008 3.565-5.203 6.276-8.955 6.276zm13.352-8.746c-.847 1.036-1.833 1.7-3.406 1.99v-.042c.04-.29.08-.54.12-.83v-.082c.04-.29.04-.58.04-.87V4.144l4.577-.041h.04v2.652c0 .042.202 2.57-1.371 4.519zM13.94 16.577c-.121.29-.403.497-.686.497-.08 0-.161 0-.282-.041-2.46-.954-2.985-3.233-2.945-4.27V4.971c0-.415.323-.746.726-.746.404 0 .726.331.726.746v7.834c0 .124-.08 2.03 1.977 2.819.444.124.645.58.484.953z"/>
</svg>
