<svg xmlns="http://www.w3.org/2000/svg" width="18" height="16" viewBox="0 0 18 16"><path fill="#FFF" fillRule="evenodd" d="M11.677 10.372c-.672 0-1.238-.54-1.238-1.207s.566-1.225 1.238-1.225c.673 0 1.219.558 1.219 1.225s-.546 1.207-1.219 1.207m.286 2.343c-.626.62-1.593.922-2.954.922h-.02c-1.36 0-2.326-.301-2.952-.922a.483.483 0 0 1 0-.689.495.495 0 0 1 .695 0c.432.429 1.17.637 2.258.637h.019c1.087 0 1.826-.208 2.259-.637a.495.495 0 0 1 .695 0 .484.484 0 0 1 0 .69m-6.859-3.552c0-.666.564-1.225 1.237-1.225.672 0 1.218.559 1.218 1.225 0 .667-.546 1.207-1.218 1.207-.673 0-1.237-.54-1.237-1.207m9.896-7.689c.455 0 .826.367.826.818 0 .451-.37.818-.826.818a.824.824 0 0 1-.827-.818c0-.451.37-.819.827-.819m3 6.366c0-1.182-.97-2.144-2.163-2.144-.517 0-.99.18-1.363.481-1.32-.821-2.993-1.316-4.788-1.421l.936-2.932 2.573.6c.067.928.85 1.663 1.804 1.663.997 0 1.809-.805 1.809-1.793 0-.989-.812-1.793-1.81-1.793-.697 0-1.303.394-1.605.968l-2.99-.697a.492.492 0 0 0-.58.327l-1.163 3.639c-1.933.047-3.75.543-5.166 1.413a2.165 2.165 0 0 0-1.33-.456 2.156 2.156 0 0 0-2.164 2.145c0 .73.371 1.377.937 1.763a3.73 3.73 0 0 0-.036.515c0 1.477.866 2.852 2.44 3.87 1.509.976 3.506 1.513 5.622 1.513 2.117 0 4.114-.537 5.623-1.513 1.573-1.018 2.44-2.393 2.44-3.87 0-.158-.01-.314-.03-.47a2.139 2.139 0 0 0 1.004-1.809"/></svg>