<svg xmlns="http://www.w3.org/2000/svg" width="122" height="22" viewBox="0 0 122 22">
    <g fill="#fff" fillRule="evenodd">
        <path d="M24.76 6.517l.042-.008v.006l-.042.002zm-2.39 1.598l.032.022v.01c-.01-.011-.02-.022-.032-.032zm4.076 9.307c.208-.097.41-.209.61-.336.016.176.032.352.046.528a1.316 1.316 0 0 0-.58-.186l-.076-.006zM17.24 5.41l.184 4.083c.033 1.103.071 2.207.113 3.31-.003.049-.01.094-.009.146l.026.27c.015.379.028.758.044 1.137.032 1.59.114 3.178.245 4.764-.005.23-.013.452-.023.666a.956.956 0 0 0 .288.724c.078.079.163.136.252.182a.927.927 0 0 0 .234.101c.05.03.108.05.18.052.63.014 1.26.022 1.89.027l-.003.042c2.324.02 4.646-.02 6.969-.125a.377.377 0 0 0 .372-.37c.002-.086 0-.17 0-.256-.022.006-.045.009-.068.014a28.74 28.74 0 0 0-.199-3.768.466.466 0 0 0-.03-.117v-.075c.018-.015.037-.026.053-.04v-.149c.003-.174.004-.29.002-.345l-.051.001v-.027l-4.292.115-.028-.83c.268 0 .537-.005.806-.015.264-.01.55.004.766-.168.182-.145.278-.385.366-.606.104.233.233.444.477.55l.004.001c.022.013.04.03.064.041.411.18.99.09 1.428.104a.349.349 0 0 0 .263-.11l.18-.004-.024-.707-.067.013-.074-2.162a2.011 2.011 0 0 0-.068-.437c-.02-.233-.043-.466-.068-.7l.044-.05-.005-.05a.498.498 0 0 0-.059-.18c-.027-.206.005-.345-.187-.49-.014-.011-.035-.016-.05-.026h-.001c-.334-.254-1.245-.012-1.593.012l-1.026.07c-.634-.006-1.16.007-1.576.04l-.012-.234-.009.236-.025.001-.005-.01a20.983 20.983 0 0 0-.112-1.505l.065.012c-.008-.074-.013-.149-.022-.223.185.035.413.05.692.043.222.012.554.013.998 0 .554-.014.969-.034 1.245-.06.202-.006.447-.016.733-.034.285-.016.613-.02.983-.012l-.011-.33A1.58 1.58 0 0 0 27 6.887c-.026-.024-.055-.04-.081-.062.02-.262.035-.525.044-.788.217-.06.38-.103.474-.127l-.047-1.359-.014.048-.033-.967-.052.001v-.027l-8.506.228c-.599-.068-1.206-.058-1.462.241-.196.229-.168.618-.108.975.005.122.014.244.024.36zM48.957 8.992c-.051.794-.044 1.587-.004 2.38.016.003.032.006.048.005h.003l.001.022c.016.002.031.004.048.004l.368-.01c.185.162.374.32.569.47-.247.162-.35.279-.305.346.17.262.39.52.657.771a6.83 6.83 0 0 0 1.795 1.264l.006.003c.11.055.217.113.332.163a8.816 8.816 0 0 0 1.956.603c-.013.003-.027.003-.04.005.26.052.522.095.79.124.229.02.439.07.631.148.173.077.333.175.476.3.314.275.456.592.426.95-.033.397-.211.743-.534 1.038a1.406 1.406 0 0 1-1.115.386 1.543 1.543 0 0 1-.579-.17 1.902 1.902 0 0 1-.514-.433c-.308-.361-.45-.712-.44-1.054-.112-.07-.23-.129-.307-.175-.128-.077-.256-.153-.38-.236h-.01l-.041-.026c-1.2-.01-2.395-.017-3.587-.177l-.014.008c-.309.428-.59.872-.842 1.335.008.056.025.11.06.158.001.09.011.161.032.212.367 1.136 1.136 2.132 2.306 2.987 1.17.855 2.5 1.348 3.99 1.48.554.05 1.071.02 1.553-.09.32-.074.69-.174 1.105-.298a.362.362 0 0 0 .178-.003 6.045 6.045 0 0 0 2.001-.934.092.092 0 0 0 .038-.012 6.961 6.961 0 0 0 1.529-1.304c.304-1.017.644-2.024.983-3.031a5.152 5.152 0 0 0-.066-.722c.029.064.062.126.089.191-.093-.703-.341-1.349-.893-2.033-.38-.47-.807-1.188-1.316-1.602l-.071-.092a.15.15 0 0 0-.088-.058c-.04-.04-.085-.056-.13-.049-.719-.428-2.114-.457-2.91-.611a.192.192 0 0 0-.113.013.375.375 0 0 0-.123.004 9.585 9.585 0 0 0-1.011-.145 1.892 1.892 0 0 1-.82-.256 1.659 1.659 0 0 1-.2-.155c-.286-.263-.415-.565-.387-.904.007-.082.024-.165.048-.247.237-.361.497-.706.78-1.036l.01-.006c-.044.004-.087.02-.13.028.017-.021.033-.044.051-.064.043-.03.085-.06.129-.084l1.487.307.058.014c.026.039.049.078.073.117.04.482.07 1.128.462 1.347.047.033.097.06.156.078.181.056.396.044.615.016.158.03.33.032.503.03l-.006-.027c.204-.005.407-.018.59-.013l1.842.047a.448.448 0 0 0 .064-.005l.047.004c-.007.014-.01.029-.018.042.013-.002.027-.002.04-.003l.768.068c.08-.257.169-.51.264-.763-.175-1.003-.24-2.016-.617-2.96-.072-.087-.146-.17-.22-.256l-.073-.086-.075-.08a8.412 8.412 0 0 0-.278-.297 5.152 5.152 0 0 0-1.222-.944 3.958 3.958 0 0 0-.772-.329c-.029-.009-.06-.015-.089-.024-.103-.035-.207-.067-.311-.1a7.05 7.05 0 0 0-.852-.27 7.64 7.64 0 0 0-1.91-.331 15.736 15.736 0 0 0-1.523-.117l-.118-.014-.15-.024c-.01-.002-.02.002-.03.002-.117-.014-.234-.033-.352-.044h-.004a.175.175 0 0 0-.168-.006c-.738.349-1.398.834-2.043 1.327a19.99 19.99 0 0 0-1.148.931.328.328 0 0 1-.026.106c-.255.58-.485 1.167-.7 1.76-.1.37-.192.743-.282 1.116M44.73 17.163a5.41 5.41 0 0 1-.779.59l-.02-.556c.12-.098.24-.2.364-.296a2.384 2.384 0 0 1 .435.262M30.616 3.608l.02.188.001.05a.365.365 0 0 0-.04.17c-.01 1.445.028 2.888.114 4.33a.38.38 0 0 0 .054.176l.076 2.813a8.14 8.14 0 0 0 .796 3.327 8.68 8.68 0 0 0 1.04 1.666c.427.62.984 1.19 1.453 1.675.17.177.392.129.524-.006l.537-.313a1.558 1.558 0 0 0 .538-.314l.18-.104c-.09.433-.174.866-.25 1.302-.032.19.052.408.265.456l.014.002h-.042c.029.017.06.032.096.04.427.095.855.178 1.285.256.264.07.518.13.757.18a7.263 7.263 0 0 0 1.53.152l.043.005c.023.02.05.037.077.05a.38.38 0 0 0 .306.08c1.268-.203 2.534-.446 3.663-.961.434-.128.84-.295 1.182-.529.349-.238.634-.58.881-.969 1.37-1.55 2.311-3.791 2.44-5.846a.36.36 0 0 0-.007-.1l-.013.058a.356.356 0 0 0-.025-.143 6.191 6.191 0 0 0 0-.276l-.082-3.03c-.016.091-.03.182-.044.273l-.024-.87c.022.014.047.024.068.039l-.15-5.494h-.015v-.017l-.052.001v-.027l-4.887.096a1.24 1.24 0 0 0-.882.373c-.242.242-.359.533-.35.875l.148 5.402c.01.398.154.747.43 1.044.136.146.284.263.444.353-.154-.002-.308-.007-.462-.008a.34.34 0 0 0-.265.109.325.325 0 0 0-.18.313c.013.56.014 1.12.01 1.679a2.383 2.383 0 0 1-.588 1.003c-.476.493-1.068.747-1.777.76a2.537 2.537 0 0 1-1.14-.234 2.518 2.518 0 0 1-.3-.174 46.43 46.43 0 0 1-1.106-2.586l-.155-5.715c-.02.178-.035.357-.053.535l-.044-1.642a1.88 1.88 0 0 0-.628-1.383c-.023-.022-.05-.036-.075-.057l.008-.017a2.073 2.073 0 0 0-.24-.16c-.005-.004-.01-.008-.015-.01-.053-.032-.109-.057-.164-.082a2.012 2.012 0 0 0-.952-.214l-3.996.078.034 1.237a.34.34 0 0 0-.01.135M121.557 21.202a34.904 34.904 0 0 1-.03-1.567c.044-.295.077-.593.095-.894l.037-.646-.024-1.07.005-.057c.014-.177.026-.35.024-.52.045-.322.15-.794.02-1.051-.088-.174-.303-.307-.519-.42.043-.048.087-.097.127-.146a.968.968 0 0 0 .169-.315.824.824 0 0 1 .048-.027l-.004-.145c.082-.429-.007-.93.008-1.336.064-1.704.306-3.392.339-5.1.032-1.694-.04-3.389-.123-5.082-.012-.252.003-.533-.057-.771l-.002.027c-.053-.24-.175-.44-.467-.531a5.253 5.253 0 0 0-.46-.12c-.476-.104-.979-.16-1.464-.225l-.236-.061a8.752 8.752 0 0 0-.627-.137c-.086-.027-.138.121-.157.444l-.002.055c-.13-.07-.259-.143-.386-.218-.268-.16-.531-.392-.828-.496-.008-.003-.018-.004-.026-.006h-.001c-.58-.202-1.422.034-2.006.122-.127.019-.232.152-.235.275a5.953 5.953 0 0 0 .156 1.544c.025 1.09.005 2.207-.062 3.354-.041.71-.083 1.227-.123 1.55l-2.262-.166.003-.1-.028.008.006-.192.037-.002c.076-2.765.086-4.59.032-5.47a.917.917 0 0 0-.059-.139l-.002.019a.802.802 0 0 0-.54-.439l-.016-.002-.011-.005c-.024-.001-.042-.006-.06-.01a.1.1 0 0 1-.042-.023 41 41 0 0 0-1.81-.42 14.663 14.663 0 0 0-2.148-.304 6.023 6.023 0 0 0-.994.012c-.191 0-.383.002-.573.015-.27.017-.499.07-.63.328-.145.288-.132.692-.168 1.004a42.463 42.463 0 0 0-.154 1.627c-.154 2.02-.176 4.047-.167 6.071.01 1.99.049 3.98.025 5.971a68.805 68.805 0 0 1-.098 3.039c-.033.586-.38 1.653.247 2.032.088.053.187.089.292.115.298.08.647.066.93.09.17.015.367.05.567.074v-.004c.257.028.516.035.726-.054.313-.131.442-.474.598-.75l.406-.723c.015.09.03.179.044.272.124.872.23 1.31.317 1.315l1.144.1.056.002-.002.012c.262.014.65.016 1.164.003a.775.775 0 0 0 .37-.14.51.51 0 0 0 .215-.311 9.729 9.729 0 0 0 .434-2.373c.022-.388.02-1.08-.01-2.075l-.016-.385c.055-.856.058-1.714.01-2.573l1.032.004c.204.032.567.064 1.084.096l-.03-.013.086.005a56.212 56.212 0 0 1-.067 2.265l-.127 1.613-.202 2.905c-.018.302.07.566.265.794a.917.917 0 0 0 .54.317c.076.017.155.027.24.025.25.015.602.05 1.056.106v-.003c.09.01.182.022.28.035a21.24 21.24 0 0 0 3.64.267l-.001.013c.289-.003.577-.01.866-.026.151-.007.323-.108.316-.282M83.287 17.029l.005.024-.155.006.15-.03zm-.767-5.322h-.04l-.007-.163.047.163zm3.207 7.266l-.076-2.644-.006.037-.018-.602a.284.284 0 0 0-.018-.094l.005-.11a8.346 8.346 0 0 1-.021-.137v-.027l-5.069-.032v-.051l-.017.001.007.05H80.5v-.984l1.016-.038-.147.025 1.44-.055 1.205-.045c.28-.011.597.008.895-.012.096.012.193.02.291.02l.427.003.002-3.313c0-.244-.035-.473-.103-.688-.012-.422-.03-.844-.059-1.266a.238.238 0 0 0-.088-.167V8.84a.32.32 0 0 0-.09-.057.406.406 0 0 0-.197-.047l-1.285.032a2.535 2.535 0 0 0-.38-.045c-1.402-.096-2.486-.124-3.253-.086a.623.623 0 0 1-.098-.326c0-.108.01-.216.033-.324a1.53 1.53 0 0 0 .033-.292c0-.174-.044-.304-.132-.391-.044-.065-.416-.414-1.117-1.047a7.237 7.237 0 0 1-.959-1.03c.467.31.934.62 1.401.932.115.077.227.152.338.224.04.029.077.054.108.075l.021.008.004.003.013.005c.086.052.174.1.263.144h-.004c.25.127.516.213.832.22 1.452.032 2.916-.057 4.369-.092l.344.03c.147.013.336-.09.337-.257.006-.822-.524-1.376-.896-2.026l-.007.027a3.258 3.258 0 0 1-.235-.474c.374-.091.635-.152.777-.182V2.353l.025-.024v-.977c-.007-.01-.016-.018-.024-.028V1.2l-10.22-.065a1.734 1.734 0 0 0-1.25.495 1.65 1.65 0 0 0-.526 1.247l.059 5.862c-.104 3.538-.17 7.13.067 10.666-.01.156-.022.311-.034.462-.016.23.032.44.143.632.084.327.26.569.574.678.11.042.236.069.383.075.416.017.85-.043 1.264-.075.098-.008.195-.014.287-.027l-.001-.013a.74.74 0 0 0 .451-.215c.452-.475.092-1.454.004-2.004l-.225-1.405a8.478 8.478 0 0 0-.02-.356l.525 2.472c.087.434.3.792.64 1.076.34.284.74.427 1.2.43l2.823.018c-.054.006-.108.01-.162.017l1.94.013c.163 0 .32-.017.47-.049.55.054 1.129.052 1.504-.2.199-.134.251-.285.271-.51.042-.469-.026-.979-.04-1.452zM88.365 4.393c-.003.095-.002.19-.002.286a67.637 67.637 0 0 1-.01-.275l.012-.011m.158 2.277l-.002-.036.005.038-.003-.002m14.758.6l-.033.007a75.646 75.646 0 0 1-.052-3.04l.026.01c0-.263.002-.53.004-.803a.448.448 0 0 0-.13-.358.54.54 0 0 0-.18-.12.567.567 0 0 0-.203-.052l-.057-.002a.221.221 0 0 0-.107-.3.205.205 0 0 0-.13-.026c-1.52.18-3.04.049-4.56-.086l-4.561-.406c-.17-.016-.25.147-.214.272-.117.11-.233.222-.348.335-.381-.24-.782-.485-1.195-.65a2.675 2.675 0 0 0-.78-.2c-.532-.046-1.089.004-1.643.076-.448-.007-.895.013-1.344.06a.188.188 0 0 0-.116.05c-.079-.004-.17.053-.163.155l.018.264a.136.136 0 0 0-.026.092l.059.823-.014 2.998c-.001.315-.102.786.193 1.015.055.043.121.08.192.112.057.027.119.05.183.07a.596.596 0 0 0 .102.06l.016.005.009.005c.2.088.456.096.705.091.113.014.22.027.311.041.067.01.12-.008.157-.042l.37.017a.352.352 0 0 1-.002-.01l1.284.06c.269.012.578.058.873.072l-.005.034-.119 3.169c-.013.356-.107.798.008 1.146.051.151.152.29.268.42-.253.154-.447.337-.464.692-.023.5.008 1.01.035 1.517l-.231 3.082a.292.292 0 0 0-.006.081l-.193 2.57c.053.125.15.208.291.248a.69.69 0 0 0 .178.036.8.8 0 0 0 .246-.013l.303.021c.44.051.878.099 1.318.144v-.006c1.033.107 2.067.197 3.103.272a.101.101 0 0 0-.003.015c.36.026.72.052 1.08.074.14.008.304-.09.305-.244l.008-1.104.323-3.816-.035-.002.001-.016c-.392-.027-.71.002-.954.086.126-.124.258-.248.38-.379l-.01.066c.117-.123.226-.252.306-.393.154-.268.151-.592.18-.891l.128-1.407.446-4.86-.036.008.035-.39c.347.027.801.049 1.269.067l-.053.014c.972.04 2.029.062 2.309.081a.78.78 0 0 0 .674-.195.828.828 0 0 0 .274-.649l-.003-.073M5.78 7.783c.001-.176.153-.346.339-.337.084.004.163.014.24.027l-.077.01c.108.012.211.028.307.054a.322.322 0 0 1 .245-.004c.022.013.044.026.065.046l.241.229c.122.093.233.201.335.321.56.55 1.002 1.092 1.153 1.976.045.263.057.524.046.784.018.54-.07 1.042-.262 1.507-.014.05-.03.098-.043.148a.338.338 0 0 1-.033.196c-.014.026-.031.051-.045.077l-.054.187a.303.303 0 0 1-.226.217 3.57 3.57 0 0 1-.341.35c-.226.201-.53.44-.855.417a.372.372 0 0 1-.097-.022.35.35 0 0 1-.096-.03.358.358 0 0 1-.153-.263l-.012-.18c-.453-1.855-.62-3.764-.609-5.668l.001-.006-.068-.01v-.026m-3.23 3.984l-.106-.031.165.005a4.84 4.84 0 0 0-.06.026m9.402-6.51c-.01.009-.02.016-.028.029-.013.02-.024.04-.038.06.01-.049.023-.097.028-.147.014.019.025.038.038.057m1.606 10.43A9.322 9.322 0 0 0 14.66 12.5c-.039.092-.082.182-.122.273.153-.821.195-1.663.12-2.526a9.255 9.255 0 0 0-1.287-4.01c-.027-.043-.167-.017-.41.073.08-.294.13-.586.072-.825-.086-.348-.439-.712-.765-1.01l.034.01c-.138-.127-.271-.242-.375-.336a8.113 8.113 0 0 0-1.768-1.217 8.89 8.89 0 0 0-1.978-.741 8.021 8.021 0 0 0-1.1-.286 7.55 7.55 0 0 0-.918-.146 8.182 8.182 0 0 0-.672-.018c-1.726-.045-3.48.277-5.185.487a.189.189 0 0 0-.146.1c-.088.006-.168.063-.16.176l.548 8.803c.006.086.057.15.14.178l.028.01c.009.005.013.013.023.016l1.323.463c-.254.105-.53.217-.835.337-.157.053-.262.12-.315.205a.847.847 0 0 0-.057.394l.293 3.727.163 2.237.103 1.192a.38.38 0 0 0 .194.144.606.606 0 0 0 .328.055l.24-.019.761-.059c.081.014.16.02.238.029l-.01-.021c.462.048.905.023 1.403-.021.458-.04.907-.028 1.357-.02l-.137.04c.369.007.737.017 1.11-.002a5.563 5.563 0 0 0 1.068-.17 6.416 6.416 0 0 0 2.115-.553c.376-.17.706-.396.992-.673a6.713 6.713 0 0 0 1.696-1.5c.362-.46.605-1.017.788-1.608"/>
    </g>
</svg>
