<svg xmlns="http://www.w3.org/2000/svg" width="24" height="47" viewBox="0 0 24 47"><path fill="#99A6B2" d="M2.71.002a.546.546 0 0 0-.238.068c-1.082.587-2.464 1.852-2.472 4.296-.008 2.446 1.29 3.712 2.489 4.312a.546.546 0 1 0 .477-.972c-.983-.49-1.882-1.23-1.875-3.323.006-2.06 1.005-2.86 1.892-3.341a.546.546 0 0 0-.273-1.04zm18.512 0a.546.546 0 0 0-.205 1.04c.887.482 1.886 1.28 1.892 3.34.007 2.094-.892 2.833-1.875 3.324a.546.546 0 1 0 .477.972c1.2-.6 2.497-1.866 2.489-4.312-.008-2.444-1.39-3.709-2.472-4.296a.546.546 0 0 0-.306-.068zm-14.132 1.108c-1.456 0-2.727 1.396-2.727 3.273 0 1.866 1.267 3.272 2.727 3.272a.546.546 0 1 0 0-1.09c-.722 0-1.636-.806-1.636-2.182 0-1.391.91-2.182 1.636-2.182a.546.546 0 1 0 0-1.091zm9.716 0a.548.548 0 1 0 .102 1.09c.726 0 1.636.792 1.636 2.183 0 1.376-.914 2.181-1.636 2.181a.546.546 0 1 0 0 1.091c1.46 0 2.727-1.406 2.727-3.272 0-1.877-1.271-3.273-2.727-3.273a.546.546 0 0 0-.102 0zm-4.806.545a2.736 2.736 0 0 0-2.727 2.728c0 1.312.942 2.42 2.182 2.676v2.778h-2.182a.546.546 0 0 0-.103 0 .546.546 0 0 0-.426.426l-3.834 19.517a.548.548 0 0 0-.017.051v.035a.548.548 0 0 0-.017.034.546.546 0 0 0-.017.017.548.548 0 0 0 0 .05v.035a.546.546 0 0 0-.017.17l-3.189 16.091a.546.546 0 1 0 1.057.222l1.21-6.102h16.16l1.21 6.102a.546.546 0 1 0 1.057-.222l-3.188-16.142v-.051a.546.546 0 0 0-.051-.222l-3.852-19.585a.546.546 0 0 0-.529-.426h-2.182v-2.778a2.745 2.745 0 0 0 2.182-2.676c0-1.5-1.227-2.728-2.727-2.728zm0 1.091c.91 0 1.636.726 1.636 1.637 0 .91-.726 1.636-1.636 1.636-.91 0-1.636-.726-1.636-1.636 0-.91.726-1.637 1.636-1.637zm-2.284 8.182h4.568l.034.17a.545.545 0 0 0-.017.018l-2.301 2.83-2.301-2.83a.545.545 0 0 0-.017-.017l.034-.17zm-.307 1.568l1.875 2.335-3.084 3.802 1.21-6.137zm5.182 0l1.21 6.137-3.102-3.819 1.892-2.318zm-2.591 3.188l3.222 3.971h-6.444l3.222-3.971zm-2.949 5.062h5.898l-2.949 2.642-2.949-2.642zm-1.312.256l3.46 3.12-4.96 4.448 1.5-7.568zm8.522 0l1.5 7.568-4.96-4.449 3.46-3.12zm-4.261 3.835l5.148 4.636h-10.296l5.148-4.636zm-4.739 5.727h9.478l-4.739 3.154-4.739-3.154zm-1.483.324l5.233 3.495-6.818 4.534 1.585-8.029zm12.444 0l1.585 8.029-6.818-4.534 5.233-3.495zm-6.222 4.142l6.392 4.262h-12.784l6.392-4.262z"/></svg>